<svg width="58" height="58" viewBox="0 0 58 58" fill="none" xmlns="http://www.w3.org/2000/svg">
<path d="M54 36C54 45.9411 45.9411 54 36 54L9 54C6.23857 54 4 51.7614 4 49L4 15C4 9.47715 8.47715 5 14 5L49 5C51.7614 5 54 7.23858 54 10L54 36Z" fill="#E8F5E9"/>
<path d="M34.174 28.5735C33.885 28.5735 33.6167 28.4941 33.3784 28.3663V28.3697C33.3784 28.8243 33.2017 29.2512 32.8811 29.571C32.5605 29.8916 32.1339 30.0683 31.6798 30.0683C31.3866 30.0683 31.1149 29.9869 30.8741 29.8557C30.8497 30.2716 30.6835 30.6603 30.3869 30.9572C30.0663 31.2778 29.6397 31.4545 29.1853 31.4545C28.2826 31.4545 27.5495 30.7448 27.4967 29.8554C27.2174 30.0064 26.9016 30.0855 26.5758 30.0646C25.6878 30.0064 24.9923 29.2391 24.9923 28.3174V20.6774L24.1224 22.1846C23.791 22.761 23.1708 23.1189 22.503 23.1189C22.1776 23.1189 21.8561 23.0336 21.5714 22.8704C21.2169 22.6649 20.9633 22.335 20.8578 21.9403C20.7518 21.5453 20.8067 21.1322 21.0116 20.7783C21.0119 20.7783 23.858 15.8496 24.0317 15.5469C24.0523 15.5014 24.1111 15.3693 24.1612 15.2568C24.2089 15.1494 24.2499 15.0391 24.2892 14.9283C25.1475 12.5052 27.2728 11 29.8359 11C33.1643 11 35.8721 13.9362 35.8721 17.5455L35.8724 26.8747C35.8724 27.3287 35.696 27.7554 35.3757 28.0763C35.0551 28.3969 34.6285 28.5736 34.1739 28.5736L34.174 28.5735ZM29.8359 11.9025C27.6335 11.9025 25.8781 13.1465 25.14 15.2301C25.0927 15.3624 25.0435 15.4948 24.9862 15.6237C24.8196 15.9972 24.8196 15.9972 24.7727 16.0509L24.7665 16.0455C24.5341 16.484 23.8437 17.6796 21.7931 21.23C21.7089 21.3756 21.6866 21.5446 21.7295 21.7064C21.7731 21.8681 21.8774 22.0043 22.0219 22.0877C22.4703 22.3453 23.0843 22.1791 23.3399 21.7338L25.0529 18.768C25.1552 18.5913 25.3622 18.5046 25.5606 18.5583C25.758 18.6111 25.8951 18.7901 25.8951 18.9942V28.3177C25.8951 28.7576 26.227 29.1372 26.635 29.1641C26.8702 29.1765 27.0896 29.0976 27.2544 28.9331C27.4043 28.7833 27.4868 28.5837 27.4868 28.3702V22.2726C27.4868 22.0232 27.689 21.8211 27.9383 21.8211C28.1877 21.8211 28.3898 22.0229 28.3898 22.2726L28.3895 29.7562C28.3895 30.195 28.7466 30.5521 29.1854 30.5521C29.3986 30.5521 29.5987 30.4695 29.7488 30.3197C29.8987 30.1695 29.9812 29.9694 29.9812 29.7562V22.2726C29.9812 22.0232 30.1831 21.8211 30.4327 21.8211C30.6821 21.8211 30.8842 22.0229 30.8842 22.2726L30.884 28.3001V28.3702C30.884 28.8087 31.241 29.1657 31.6801 29.1657C31.893 29.1657 32.0926 29.0829 32.2435 28.9325C32.3934 28.7829 32.4759 28.5833 32.4759 28.3699V22.2722C32.4759 22.0229 32.6778 21.8207 32.9274 21.8207C33.1768 21.8207 33.3789 22.0226 33.3789 22.2722L33.3784 26.8749C33.3784 27.314 33.7354 27.671 34.1739 27.671C34.3874 27.671 34.587 27.5882 34.7368 27.4386C34.8872 27.2882 34.9695 27.0881 34.9695 26.8749L34.9698 17.5457C34.9698 14.4344 32.6668 11.9026 29.8359 11.9026L29.8359 11.9025Z" fill="#103E13"/>
<path d="M16.4349 35.0576L22.9865 31.1273C23.7764 30.6529 24.7928 30.8544 25.2994 31.5864C25.4843 31.853 25.5788 32.1637 25.5935 32.4801C25.8377 32.3526 26.1035 32.2833 26.374 32.2833C26.5126 32.2833 26.6517 32.3006 26.7891 32.3348C27.2293 32.4447 27.6002 32.7198 27.8335 33.1088C28.067 33.4984 28.1351 33.955 28.0251 34.3946C27.9236 34.8015 27.6763 35.1439 27.3322 35.3788C27.5728 35.5207 27.7803 35.7144 27.9279 35.9609C28.1614 36.3505 28.2295 36.8069 28.1198 37.247C28.0099 37.6867 27.7348 38.0576 27.3452 38.2914L27.3429 38.2928C27.5793 38.4345 27.7831 38.6262 27.929 38.869C28.1628 39.2586 28.231 39.7152 28.121 40.1553C28.0107 40.5953 27.7356 40.9662 27.3466 41.1997L19.347 45.9989C17.8539 46.8942 16.1279 47.2033 14.4876 46.8683C12.8326 46.5301 11.4619 45.5788 10.6285 44.1895C9.30961 41.9914 9.50726 39.3943 11.1433 37.4122C11.2183 37.3217 11.292 37.2295 11.3591 37.134C11.43 37.033 11.5129 36.9143 11.5411 36.8736C11.7105 36.5711 14.4738 31.5924 14.4735 31.593C14.7525 31.0895 15.2756 30.8044 15.815 30.8047C16.0666 30.8047 16.3219 30.8667 16.5574 30.9973C16.8418 31.1562 17.0807 31.3877 17.2478 31.6667C17.5913 32.2393 17.6035 32.9557 17.28 33.5355L16.4349 35.0576ZM16.4742 32.1309C16.3865 31.9847 16.2661 31.8682 16.1188 31.7857C15.8143 31.6172 15.4309 31.7269 15.2633 32.0302C13.286 35.5925 12.612 36.8065 12.3519 37.2385L12.3578 37.2399C12.336 37.3123 12.336 37.3123 12.098 37.6524C12.0171 37.7674 11.9292 37.878 11.8396 37.9868C10.4327 39.6913 10.2694 41.8363 11.4022 43.7251C12.1039 44.895 13.2636 45.6971 14.6679 45.9837C16.0874 46.2724 17.5835 46.0038 18.8821 45.2247L26.8825 40.4253C27.0651 40.3159 27.194 40.142 27.2455 39.9359C27.297 39.7301 27.265 39.5161 27.1553 39.3334C26.9297 38.9574 26.4398 38.8339 26.0637 39.0603L22.117 41.4281C21.9033 41.5565 21.6257 41.4875 21.4976 41.2735C21.3692 41.0597 21.4385 40.7824 21.6522 40.654L25.5992 38.2863L26.8811 37.5173C27.0637 37.4076 27.1929 37.2337 27.2444 37.0282C27.2958 36.8221 27.2639 36.6078 27.1542 36.4254C26.9283 36.0491 26.4384 35.9267 26.0626 36.1523L20.8338 39.2891C20.6195 39.4177 20.3427 39.3482 20.2143 39.1344C20.086 38.9207 20.1555 38.6434 20.369 38.515L26.7864 34.6653C26.969 34.5556 27.0979 34.382 27.1494 34.1759C27.2008 33.9701 27.1689 33.756 27.0595 33.5734C26.9501 33.3911 26.7762 33.2621 26.5701 33.2107C26.3629 33.1592 26.1497 33.1912 25.9676 33.3003L24.7797 34.013C24.7794 34.013 24.7794 34.0133 24.7791 34.0133H24.7788L19.5503 37.1501C19.336 37.279 19.0589 37.2095 18.9308 36.9954C18.8025 36.7817 18.872 36.5044 19.0855 36.376L24.3143 33.2392C24.4969 33.1296 24.6262 32.9557 24.6776 32.7501C24.7341 32.5245 24.6912 32.2938 24.5572 32.1005C24.3248 31.7643 23.8278 31.675 23.4509 31.9014L15.4563 36.6975C15.2813 36.8021 15.0571 36.7766 14.9104 36.635C14.7633 36.4931 14.7303 36.27 14.8292 36.0916L16.4916 33.0965C16.6584 32.7971 16.6519 32.4273 16.4741 32.131L16.4742 32.1309Z" fill="#103E13"/>
<path d="M47.7417 44.1892C46.9086 45.5788 45.5383 46.5299 43.883 46.868C42.2424 47.2025 40.5169 46.894 39.0236 45.9986L31.0232 41.1993C30.6339 40.9657 30.3585 40.5948 30.2483 40.1543C30.1388 39.7147 30.2073 39.2581 30.4405 38.8691C30.5861 38.6259 30.7902 38.4342 31.0269 38.2926L31.0246 38.2912C30.6353 38.0577 30.3599 37.6867 30.2503 37.2468C30.14 36.8069 30.2084 36.35 30.4419 35.9605C30.5923 35.7103 30.7984 35.5146 31.0337 35.3758C30.6921 35.1409 30.4462 34.7996 30.345 34.3948C30.2347 33.9546 30.3031 33.498 30.5366 33.1089C30.7699 32.7196 31.1411 32.4445 31.581 32.3346C31.7184 32.3001 31.8578 32.2831 31.9958 32.2831C32.2666 32.2834 32.5324 32.3521 32.7766 32.4799C32.7916 32.1635 32.8858 31.8528 33.0707 31.5862C33.5776 30.8549 34.5931 30.6524 35.3841 31.1271L41.9356 35.0569L41.0911 33.5358C40.7671 32.9551 40.779 32.2387 41.1225 31.6659C41.2899 31.3871 41.529 31.1556 41.8149 30.9953C42.0498 30.8653 42.3043 30.8036 42.5553 30.8036C43.0944 30.8039 43.618 31.0883 43.8968 31.5919C44.8682 33.3422 46.7013 36.6432 46.8302 36.8736C46.8576 36.9135 46.9405 37.0322 47.0114 37.1332C47.079 37.229 47.1519 37.3206 47.2274 37.4116C48.8633 39.3946 49.0606 41.9914 47.7417 44.1893L47.7417 44.1892ZM46.5309 37.987C46.441 37.8782 46.3528 37.7671 46.2725 37.6526C46.0282 37.3059 46.022 37.2969 46.0036 37.2061C45.7181 36.7337 45.0215 35.4796 43.1067 32.0298C42.9387 31.727 42.557 31.6165 42.2531 31.7844C42.1036 31.8681 41.9834 31.9849 41.8958 32.1311C41.7182 32.4271 41.7114 32.7969 41.8791 33.0971L43.5409 36.0914C43.6401 36.2701 43.6071 36.4928 43.4603 36.6348C43.3139 36.777 43.09 36.8018 42.9141 36.6972L34.9195 31.9012C34.5426 31.6753 34.0459 31.7638 33.813 32.1002C33.6789 32.2936 33.6363 32.5243 33.6922 32.7496C33.7437 32.9555 33.8729 33.129 34.0558 33.2387C34.0564 33.239 34.0567 33.2396 34.0572 33.2399L39.2844 36.3758C39.4981 36.5041 39.5674 36.7812 39.4391 36.9952C39.3107 37.2086 39.0339 37.2785 38.8196 37.1498L32.4022 33.3001C32.2201 33.191 32.0058 33.1587 31.8 33.2105C31.5936 33.2619 31.4201 33.3909 31.3106 33.5738C31.201 33.7561 31.1693 33.9701 31.2202 34.176C31.2716 34.3818 31.4008 34.5556 31.5835 34.6653L32.8322 35.4143L38.0006 38.5151C38.2143 38.6435 38.2836 38.9206 38.1552 39.1346C38.0269 39.348 37.7501 39.4176 37.5358 39.2892L32.3075 36.1525C31.9315 35.9263 31.4418 36.049 31.2157 36.4256C31.106 36.6082 31.0743 36.8222 31.1252 37.028C31.1766 37.2339 31.3058 37.4074 31.4888 37.5174L32.7706 38.2864L36.717 40.6542C36.9308 40.7825 37 41.0596 36.8717 41.2736C36.7433 41.4871 36.4665 41.5572 36.2522 41.4283L32.3058 39.0605C32.1237 38.9514 31.9103 38.9191 31.7033 38.9709C31.4975 39.0223 31.3234 39.1512 31.214 39.3336C31.1046 39.5162 31.0726 39.7305 31.1235 39.9361C31.175 40.1419 31.3042 40.3155 31.4871 40.4254L39.4875 45.2248C40.7857 46.0037 42.283 46.2734 43.7017 45.9839C45.1056 45.6972 46.2654 44.8951 46.9671 43.7253C48.101 41.8361 47.9379 39.6909 46.5314 37.987L46.5309 37.987Z" fill="#103E13"/>
</svg>
