<svg width="66" height="56" viewBox="0 0 66 56" fill="none" xmlns="http://www.w3.org/2000/svg">
<path d="M65.5 38C65.5 47.9411 57.4411 56 47.5 56L20.5 56C17.7386 56 15.5 53.7614 15.5 51L15.5 17C15.5 11.4772 19.9772 7 25.5 7L60.5 7C63.2614 7 65.5 9.23858 65.5 12L65.5 38Z" fill="#E8F5E9"/>
<path d="M43.9164 26.0109C43.6044 26.0109 43.3507 25.7576 43.3507 25.4452V24.4839C43.3507 24.1719 43.604 23.9182 43.9164 23.9182C44.2284 23.9182 44.4821 24.1715 44.4821 24.4839V25.4452C44.4821 25.7576 44.2284 26.0109 43.9164 26.0109Z" fill="#103E13"/>
<path d="M41.5381 26.0109C41.2261 26.0109 40.9724 25.7576 40.9724 25.4452V24.4839C40.9724 24.1719 41.2257 23.9182 41.5381 23.9182C41.8501 23.9182 42.1038 24.1715 42.1038 24.4839V25.4452C42.1034 25.7576 41.8505 26.0109 41.5381 26.0109Z" fill="#103E13"/>
<path d="M39.16 26.0109C38.848 26.0109 38.5944 25.7576 38.5944 25.4452V24.4839C38.5944 24.1719 38.8476 23.9182 39.16 23.9182C39.4721 23.9182 39.7257 24.1715 39.7257 24.4839V25.4452C39.7257 25.7576 39.4725 26.0109 39.16 26.0109Z" fill="#103E13"/>
<path d="M43.9164 29.942C43.6044 29.942 43.3507 29.6888 43.3507 29.3763V28.4154C43.3507 28.1034 43.604 27.8497 43.9164 27.8497C44.2284 27.8497 44.4821 28.103 44.4821 28.4154V29.3763C44.4821 29.6888 44.2284 29.942 43.9164 29.942Z" fill="#103E13"/>
<path d="M41.5381 29.942C41.2261 29.942 40.9724 29.6888 40.9724 29.3763V28.4154C40.9724 28.1034 41.2257 27.8497 41.5381 27.8497C41.8501 27.8497 42.1038 28.103 42.1038 28.4154V29.3763C42.1034 29.6888 41.8505 29.942 41.5381 29.942Z" fill="#103E13"/>
<path d="M39.16 29.942C38.848 29.942 38.5944 29.6888 38.5944 29.3763V28.4154C38.5944 28.1034 38.8476 27.8497 39.16 27.8497C39.4721 27.8497 39.7257 28.103 39.7257 28.4154V29.3763C39.7257 29.6888 39.4725 29.942 39.16 29.942Z" fill="#103E13"/>
<path d="M43.9164 33.8733C43.6044 33.8733 43.3507 33.6201 43.3507 33.3076V32.3463C43.3507 32.0343 43.604 31.7806 43.9164 31.7806C44.2284 31.7806 44.4821 32.0339 44.4821 32.3463V33.3076C44.4821 33.6201 44.2284 33.8733 43.9164 33.8733Z" fill="#103E13"/>
<path d="M41.5381 33.8733C41.2261 33.8733 40.9724 33.6201 40.9724 33.3076V32.3463C40.9724 32.0343 41.2257 31.7806 41.5381 31.7806C41.8501 31.7806 42.1038 32.0339 42.1038 32.3463V33.3076C42.1034 33.6201 41.8505 33.8733 41.5381 33.8733Z" fill="#103E13"/>
<path d="M39.16 33.8733C38.848 33.8733 38.5944 33.6201 38.5944 33.3076V32.3463C38.5944 32.0343 38.8476 31.7806 39.16 31.7806C39.4721 31.7806 39.7257 32.0339 39.7257 32.3463V33.3076C39.7257 33.6201 39.4725 33.8733 39.16 33.8733Z" fill="#103E13"/>
<path d="M43.9164 37.8037C43.6044 37.8037 43.3507 37.5505 43.3507 37.2381V36.2767C43.3507 35.9647 43.604 35.7111 43.9164 35.7111C44.2284 35.7111 44.4821 35.9643 44.4821 36.2767V37.2381C44.4821 37.5505 44.2284 37.8037 43.9164 37.8037Z" fill="#103E13"/>
<path d="M41.5381 37.8037C41.2261 37.8037 40.9724 37.5505 40.9724 37.2381V36.2767C40.9724 35.9647 41.2257 35.7111 41.5381 35.7111C41.8501 35.7111 42.1038 35.9643 42.1038 36.2767V37.2381C42.1034 37.5505 41.8505 37.8037 41.5381 37.8037Z" fill="#103E13"/>
<path d="M39.16 37.8037C38.848 37.8037 38.5944 37.5505 38.5944 37.2381V36.2767C38.5944 35.9647 38.8476 35.7111 39.16 35.7111C39.4721 35.7111 39.7257 35.9643 39.7257 36.2767V37.2381C39.7257 37.5505 39.4725 37.8037 39.16 37.8037Z" fill="#103E13"/>
<path d="M43.9164 41.735C43.6044 41.735 43.3507 41.4817 43.3507 41.1693V40.2084C43.3507 39.8964 43.604 39.6427 43.9164 39.6427C44.2284 39.6427 44.4821 39.896 44.4821 40.2084V41.1693C44.4821 41.4813 44.2284 41.735 43.9164 41.735Z" fill="#103E13"/>
<path d="M41.5381 41.735C41.2261 41.735 40.9724 41.4817 40.9724 41.1693V40.2084C40.9724 39.8964 41.2257 39.6427 41.5381 39.6427C41.8501 39.6427 42.1038 39.896 42.1038 40.2084V41.1693C42.1034 41.4813 41.8505 41.735 41.5381 41.735Z" fill="#103E13"/>
<path d="M39.16 41.735C38.848 41.735 38.5944 41.4817 38.5944 41.1693L38.5948 40.2084C38.5948 39.8964 38.848 39.6427 39.1604 39.6427C39.4725 39.6427 39.7261 39.896 39.7261 40.2084V41.1693C39.7257 41.4813 39.4725 41.735 39.16 41.735Z" fill="#103E13"/>
<path d="M23.0005 45.6471C23.0005 45.9592 23.2537 46.2128 23.5661 46.2128H58.0139C58.3259 46.2128 58.5796 45.9596 58.5796 45.6471C58.5796 45.3351 58.3263 45.0815 58.0139 45.0815H56.9682V28.8402C56.9682 28.5281 56.715 28.2745 56.4025 28.2745L47.1668 28.2749V16.5658C47.1668 16.3677 47.0635 16.1847 46.8946 16.0821C46.7262 15.9792 46.5156 15.9729 46.3404 16.064L35.8401 21.531C35.6527 21.6284 35.5359 21.8217 35.5359 22.0327V32.2604H25.3739C25.0619 32.2604 24.8082 32.5137 24.8082 32.8261V45.0816H23.5649C23.2529 45.0812 23 45.3344 23 45.6468L23.0005 45.6471ZM47.167 36.8422H55.8374V45.0819L47.167 45.0815V36.8422ZM47.167 32.9113H55.8374V35.7113L47.167 35.7109V32.9113ZM47.167 29.4056H55.8374V31.7808H47.167V29.4056ZM36.6667 22.3762L46.0353 17.4982V45.081H36.6667V22.3762ZM28.7359 40.5635C28.7359 39.3895 29.666 38.4341 30.8096 38.4341C31.9531 38.4341 32.8837 39.3891 32.8837 40.5635V45.0817H28.7359V40.5635ZM25.9395 33.3916H35.5358V45.0815H34.015V40.5633C34.015 38.7657 32.5776 37.303 30.8096 37.303C29.0424 37.303 27.605 38.7653 27.605 40.5633V45.0815H25.9395V33.3916Z" fill="#103E13"/>
</svg>
