<svg width="261" height="272" viewBox="0 0 261 272" fill="none" xmlns="http://www.w3.org/2000/svg">
<path d="M224.482 262.665C244.65 262.665 261 253.217 261 241.562C261 229.907 244.65 220.458 224.482 220.458C204.313 220.458 187.964 229.907 187.964 241.562C187.964 253.217 204.313 262.665 224.482 262.665Z" fill="#E0E0E0"/>
<path d="M98.9905 271.973C98.3916 271.966 97.8131 271.754 97.3514 271.373C96.8897 270.991 96.5727 270.462 96.4533 269.875L95.8631 266.765C94.5308 266.521 93.2145 266.197 91.9216 265.794H91.8198L86.3519 268.333C85.9026 268.528 85.415 268.617 84.926 268.595C84.437 268.573 83.9595 268.439 83.5298 268.204L78.1026 265.054C77.7751 264.878 77.4986 264.62 77.3 264.305C77.1013 263.991 76.9873 263.63 76.9688 263.259C76.9504 262.887 77.0283 262.517 77.1948 262.184C77.3614 261.852 77.611 261.568 77.9194 261.36L81.2165 258.984C80.9171 258.585 80.643 258.167 80.3956 257.734L73.4488 257.3C72.8182 257.26 72.2263 256.982 71.793 256.522C71.3596 256.062 71.1173 255.454 71.1151 254.821V250.747C71.1155 250.115 71.3561 249.506 71.7882 249.045C72.2203 248.583 72.8115 248.304 73.442 248.262L80.3888 247.821C80.6362 247.39 80.9104 246.975 81.2097 246.578L77.8991 244.222C77.5906 244.014 77.341 243.73 77.1745 243.398C77.0079 243.065 76.9301 242.695 76.9485 242.323C76.9669 241.952 77.081 241.591 77.2796 241.277C77.4783 240.962 77.7548 240.704 78.0823 240.528L83.5094 237.378C83.9818 237.114 84.5151 236.978 85.0562 236.984C85.4956 236.978 85.931 237.068 86.3316 237.249L91.8062 239.788H91.8741C93.1828 239.382 94.5149 239.055 95.8631 238.81L96.4533 235.701C96.5715 235.113 96.8882 234.583 97.3501 234.201C97.8121 233.819 98.3913 233.608 98.9905 233.603H107.002C107.601 233.609 108.18 233.821 108.641 234.203C109.103 234.585 109.42 235.113 109.54 235.701L110.13 238.81C111.459 239.055 112.773 239.377 114.064 239.775H114.166L119.641 237.235C120.039 237.055 120.472 236.965 120.909 236.97C121.453 236.963 121.988 237.099 122.463 237.364L127.89 240.515C128.217 240.692 128.492 240.949 128.69 241.263C128.888 241.578 129.002 241.937 129.021 242.308C129.04 242.679 128.964 243.049 128.799 243.382C128.634 243.714 128.387 243.999 128.08 244.209L124.776 246.585C125.076 246.983 125.353 247.398 125.604 247.828L132.551 248.269C133.181 248.31 133.773 248.59 134.205 249.052C134.637 249.513 134.877 250.122 134.878 250.754V254.828C134.876 255.46 134.635 256.068 134.203 256.529C133.771 256.99 133.181 257.27 132.551 257.313L125.604 257.748C125.354 258.181 125.078 258.598 124.776 258.997L128.08 261.374C128.387 261.583 128.634 261.868 128.799 262.201C128.964 262.533 129.04 262.903 129.021 263.274C129.002 263.645 128.888 264.005 128.69 264.319C128.492 264.633 128.217 264.891 127.89 265.067L122.463 268.218C121.987 268.48 121.452 268.615 120.909 268.612C120.473 268.614 120.04 268.524 119.641 268.347L114.166 265.808H114.098C112.792 266.216 111.462 266.545 110.116 266.792L109.526 269.895C109.408 270.484 109.092 271.014 108.63 271.397C108.168 271.78 107.589 271.993 106.989 272L98.9905 271.973ZM103 249.104C100.102 249.036 97.2361 249.714 94.6759 251.073C92.8103 252.153 91.7384 253.531 91.7384 254.869C91.7384 256.206 92.8103 257.585 94.6759 258.664C97.2611 259.959 100.112 260.633 103.003 260.633C105.894 260.633 108.745 259.959 111.331 258.664C113.196 257.585 114.261 256.206 114.261 254.869C114.261 253.531 113.196 252.153 111.331 251.073C108.767 249.715 105.899 249.037 103 249.104Z" fill="#E0E0E0"/>
<path d="M128.974 155.759L126.701 154.448C125.837 154.01 124.882 153.781 123.913 153.781C122.944 153.781 121.989 154.01 121.124 154.448L1.14988 223.808C-0.383295 224.691 -0.383295 226.144 1.14988 227.027L3.41573 228.337C4.28108 228.776 5.2374 229.004 6.20734 229.004C7.17727 229.004 8.13359 228.776 8.99894 228.337L45.4425 207.288L60.2112 215.816C64.3901 218.234 71.2351 218.234 75.4141 215.816L100.555 201.286C104.124 199.249 104.124 195.854 100.555 193.817L84.6878 184.575L128.98 158.984C130.507 158.094 130.507 156.648 128.974 155.759Z" fill="#E0E0E0"/>
<g opacity="0.1">
<path opacity="0.1" d="M133.621 38.1421L25.077 100.861V162.331C25.0689 162.687 25.1682 163.038 25.3619 163.336C25.4267 163.444 25.5169 163.533 25.6246 163.597C25.7323 163.661 25.8541 163.697 25.9793 163.703C26.1351 163.7 26.2872 163.655 26.4202 163.574L136.205 100.081V39.6495C136.205 37.9792 135.045 37.3137 133.621 38.1421Z" fill="#103E13"/>
</g>
<path d="M77.6866 212.204L98.4863 200.172C100.63 198.929 101.702 197.307 101.702 195.684C101.702 194.061 101.702 192.785 101.702 192.785L82.1234 181.669C81.5215 181.275 81.0206 180.744 80.6612 180.12C80.3018 179.496 80.0939 178.796 80.0542 178.077V152.411L43.7396 173.426V199.092C43.7744 199.808 43.9767 200.505 44.3302 201.128C44.6838 201.751 45.1786 202.281 45.7748 202.678L62.1242 212.184C66.4456 214.682 73.3992 214.682 77.6866 212.204Z" fill="#37474F"/>
<path d="M52.457 203.635V206.521L45.8019 202.677C45.2 202.283 44.6992 201.752 44.3398 201.128C43.9804 200.504 43.7724 199.805 43.7328 199.086V173.426L50.6524 169.427C50.8017 171.185 50.9509 173.005 51.1002 174.777L46.2429 177.588V197.639C46.2755 198.356 46.4769 199.055 46.8305 199.679C47.1842 200.303 47.6802 200.835 48.2781 201.231L52.457 203.635Z" fill="#263238"/>
<path d="M46.2429 197.646C46.2788 198.362 46.4815 199.06 46.8349 199.684C47.1883 200.307 47.6825 200.84 48.2781 201.238L62.1174 209.311C66.4117 211.79 73.3653 211.79 77.6527 209.311L98.4592 197.279C102.753 194.801 102.753 190.781 98.4592 188.303L84.6063 180.223C84.0029 179.83 83.5009 179.3 83.1413 178.675C82.7817 178.051 82.5747 177.351 82.5372 176.631V156.587L46.2429 177.588V197.646Z" fill="#455A64"/>
<path opacity="0.15" d="M88.8598 182.661L84.647 180.223C84.0436 179.83 83.5416 179.3 83.182 178.675C82.8224 178.051 82.6154 177.351 82.5779 176.631V156.587L46.2429 177.588V197.646C46.2788 198.362 46.4815 199.06 46.8349 199.684C47.1883 200.307 47.6825 200.84 48.2781 201.238L52.4231 203.628L88.8598 182.661Z" fill="#103E13"/>
<path d="M2.96103 213.474C3.74652 213.853 4.61029 214.043 5.48244 214.026C6.35458 214.01 7.21059 213.788 7.98117 213.379C25.8434 203.058 109.653 154.625 127.515 144.311C128.267 143.817 128.892 143.154 129.341 142.375C129.79 141.595 130.05 140.721 130.099 139.822V39.6359C130.135 38.7485 129.928 37.8683 129.499 37.0907C129.071 36.313 128.438 35.6677 127.669 35.2248C126.9 34.7819 126.024 34.5582 125.137 34.5781C124.25 34.598 123.386 34.8608 122.637 35.3378L3.12384 104.406C2.37694 104.902 1.75657 105.566 1.31243 106.346C0.868298 107.125 0.612755 107.998 0.566284 108.894V209.08C0.595234 209.949 0.826895 210.799 1.24273 211.562C1.65856 212.324 2.24703 212.979 2.96103 213.474Z" fill="#37474F"/>
<path d="M7.98133 213.378L127.515 144.304C128.268 143.812 128.895 143.149 129.344 142.369C129.793 141.589 130.052 140.714 130.1 139.816V39.6358C130.1 37.979 128.94 37.3136 127.515 38.142L7.98133 107.21C7.22827 107.702 6.60176 108.365 6.15266 109.145C5.70357 109.924 5.44455 110.799 5.39664 111.698V211.885C5.38985 213.535 6.54991 214.2 7.98133 213.378Z" fill="#455A64"/>
<path d="M8.81567 199.798V112.886C8.84573 112.334 9.00508 111.797 9.28085 111.318C9.55661 110.84 9.94106 110.432 10.4031 110.13L125.086 43.8591C125.961 43.3499 126.674 43.7641 126.674 44.7758V131.688C126.644 132.242 126.484 132.78 126.207 133.261C125.93 133.741 125.544 134.149 125.079 134.451L10.4031 200.722C9.52799 201.224 8.81567 200.817 8.81567 199.798Z" fill="#4CAF4F"/>
<path opacity="0.75" d="M8.81567 199.798V112.886C8.84573 112.334 9.00508 111.797 9.28085 111.318C9.55661 110.84 9.94106 110.432 10.4031 110.13L125.086 43.8591C125.961 43.3499 126.674 43.7641 126.674 44.7758V131.688C126.644 132.242 126.484 132.78 126.207 133.261C125.93 133.741 125.544 134.149 125.079 134.451L10.4031 200.722C9.52799 201.224 8.81567 200.817 8.81567 199.798Z" fill="white"/>
<path d="M1.29906 106.341L6.15639 109.145C5.69318 109.922 5.42978 110.801 5.3898 111.705V211.885C5.3898 213.392 6.41418 214.234 7.98128 213.378C7.21224 213.792 6.35571 214.017 5.48269 214.033C4.60966 214.05 3.74527 213.858 2.96113 213.474C2.25077 213.049 1.65694 212.454 1.23302 211.743C0.809091 211.032 0.568364 210.227 0.532471 209.4V108.907C0.566718 108.001 0.830494 107.118 1.29906 106.341Z" fill="#263238"/>
<path d="M62.4634 174.988L73.0261 168.877C73.5552 168.578 73.9758 168.789 73.9758 169.359C73.9521 169.678 73.8538 169.986 73.6888 170.26C73.5238 170.534 73.2968 170.765 73.0261 170.934L62.4634 177.045C61.9411 177.351 61.5137 177.134 61.5137 176.57C61.5364 176.25 61.6342 175.94 61.7993 175.665C61.9643 175.39 62.1919 175.158 62.4634 174.988Z" fill="#4CAF4F"/>
<path d="M188.272 45.6246L176.393 52.4961C176.271 52.5782 176.169 52.6879 176.096 52.8164C176.023 52.9449 175.981 53.0886 175.973 53.2362V67.7668C175.98 67.9135 176.023 68.0561 176.097 68.1826C176.172 68.3091 176.276 68.4157 176.4 68.4934L178.083 69.4575C178.216 69.5229 178.362 69.5568 178.51 69.5568C178.658 69.5568 178.804 69.5229 178.937 69.4575L190.816 62.5793C190.939 62.4986 191.041 62.3902 191.114 62.2628C191.187 62.1354 191.229 61.9926 191.237 61.8459V47.3153C191.229 47.1679 191.186 47.0245 191.111 46.897C191.037 46.7695 190.934 46.6615 190.809 46.582L189.161 45.6178C189.023 45.5463 188.871 45.5096 188.716 45.5108C188.561 45.512 188.408 45.551 188.272 45.6246Z" fill="#333333"/>
<path d="M178.937 69.4508C178.804 69.5147 178.658 69.5478 178.51 69.5478C178.362 69.5478 178.216 69.5147 178.083 69.4508L176.4 68.4866C176.276 68.409 176.172 68.3024 176.097 68.1759C176.023 68.0494 175.98 67.9067 175.973 67.7601V53.2295C175.979 53.0752 176.026 52.9254 176.108 52.7949L178.639 54.248C178.557 54.3838 178.51 54.5332 178.51 54.3023V68.8329C178.51 69.4508 178.686 69.5934 178.937 69.4508Z" fill="#333333"/>
<path opacity="0.4" d="M191.23 47.2677C191.196 47.0504 191.026 46.9757 190.816 47.0979L178.937 53.9762C178.814 54.054 178.711 54.1613 178.639 54.2885L176.102 52.8355C176.176 52.7117 176.278 52.607 176.4 52.5299L188.279 45.6517C188.41 45.5849 188.556 45.55 188.703 45.55C188.85 45.55 188.996 45.5849 189.127 45.6517L190.809 46.6091C190.924 46.681 191.021 46.7774 191.093 46.8912C191.166 47.0051 191.213 47.1337 191.23 47.2677Z" fill="white"/>
<path d="M174.813 64.0119C174.541 63.849 172.513 62.7083 172.452 62.6539C172.402 62.6239 172.359 62.5832 172.326 62.5345C172.294 62.4859 172.273 62.4306 172.264 62.3728C172.256 62.3149 172.26 62.2559 172.278 62.2C172.295 62.1441 172.324 62.0927 172.364 62.0496L175.973 57.9077L178.51 59.3676L174.738 63.4008C174.698 63.4436 174.668 63.4948 174.649 63.5506C174.631 63.6064 174.625 63.6656 174.632 63.7239C174.64 63.7822 174.659 63.8382 174.691 63.888C174.722 63.9378 174.763 63.9801 174.813 64.0119Z" fill="#37474F"/>
<path opacity="0.4" d="M174.813 64.0119C174.541 63.849 172.513 62.7083 172.452 62.6539C172.402 62.6239 172.359 62.5832 172.326 62.5345C172.294 62.4859 172.273 62.4306 172.264 62.3728C172.256 62.3149 172.26 62.2559 172.278 62.2C172.295 62.1441 172.324 62.0927 172.364 62.0496L175.973 57.9077L178.51 59.3676L174.738 63.4008C174.698 63.4436 174.668 63.4948 174.649 63.5506C174.631 63.6064 174.625 63.6656 174.632 63.7239C174.64 63.7822 174.659 63.8382 174.691 63.888C174.722 63.9378 174.763 63.9801 174.813 64.0119Z" fill="white"/>
<path d="M190.816 47.0642L178.937 53.9424C178.813 54.0219 178.71 54.1299 178.635 54.2574C178.561 54.385 178.518 54.5283 178.51 54.6757V59.3812L174.738 63.4145C174.675 63.4639 174.63 63.5317 174.608 63.6085C174.586 63.6853 174.589 63.767 174.616 63.8421C174.643 63.9173 174.693 63.982 174.758 64.0271C174.824 64.0722 174.903 64.0954 174.982 64.0935L178.51 63.8355V69.2335C178.51 69.5051 178.7 69.6138 178.937 69.478L190.816 62.5997C190.939 62.519 191.041 62.4106 191.114 62.2832C191.187 62.1558 191.229 62.013 191.237 61.8664V47.3358C191.237 47.037 191.047 46.9284 190.816 47.0642Z" fill="#37474F"/>
<path d="M188.483 59.9584L186.047 58.1319L188.557 53.3246C188.67 53.1103 188.692 52.8601 188.621 52.629C188.549 52.3978 188.388 52.2048 188.174 52.0922C187.96 51.9797 187.71 51.9569 187.479 52.0288C187.248 52.1007 187.055 52.2615 186.943 52.4758L184.568 57.0184L182.397 55.3752C182.302 55.303 182.193 55.2502 182.078 55.22C181.962 55.1898 181.842 55.1827 181.723 55.1991C181.605 55.2155 181.491 55.255 181.387 55.3156C181.284 55.3761 181.194 55.4563 181.122 55.5517C181.05 55.6471 180.997 55.7558 180.967 55.8716C180.937 55.9874 180.93 56.108 180.946 56.2265C180.962 56.3451 181.002 56.4592 181.062 56.5625C181.123 56.6657 181.203 56.756 181.298 56.8282L183.713 58.6547L181.305 63.2584C181.193 63.4736 181.171 63.7246 181.243 63.9563C181.316 64.188 181.477 64.3814 181.692 64.4941C181.822 64.5605 181.966 64.5954 182.112 64.596C182.279 64.5963 182.442 64.5508 182.584 64.4646C182.727 64.3784 182.843 64.2548 182.92 64.1071L185.186 59.7751L187.363 61.4183C187.556 61.5627 187.798 61.6252 188.037 61.5922C188.276 61.5591 188.492 61.4332 188.639 61.2417C188.787 61.0506 188.854 60.8083 188.825 60.5679C188.796 60.3274 188.673 60.1083 188.483 59.9584Z" fill="#F5F7FA"/>
<path d="M244.04 233.502C244.522 234.452 244.737 235.515 244.664 236.578C244.617 237.508 244.06 238.716 244.311 240.815C244.562 242.913 245.044 243.578 245.268 245.058C245.399 245.737 245.395 246.436 245.254 247.113C245.113 247.791 244.839 248.433 244.447 249.003C243.579 250.416 241.666 251.536 237.88 251.4C234.827 251.292 233.593 249.723 233.525 247.924L244.04 233.502Z" fill="#263238"/>
<path d="M243.172 229.17C243.266 229.56 243.327 229.958 243.355 230.358C243.47 231.071 243.681 231.716 243.85 232.443C243.898 232.626 243.938 232.809 243.979 232.993C244.271 234.398 243.979 235.851 243.979 237.284C244.096 238.977 244.394 240.652 244.868 242.281C245.546 245.255 245.661 247.245 243.063 249.302C241.706 250.389 240.194 250.423 238.457 250.47C237.121 250.517 235.798 250.197 234.631 249.547C233.518 248.725 233.532 248.032 233.525 247.768C233.423 244.61 234.563 240.937 234.794 237.786C234.879 236.938 234.898 236.084 234.848 235.233C234.739 234.188 234.38 233.149 234.264 232.096C234.183 231.704 234.233 231.296 234.407 230.935C234.582 230.736 234.798 230.576 235.041 230.467C235.283 230.358 235.546 230.302 235.811 230.304C237.168 230.12 238.579 229.985 239.97 229.883C240.297 229.821 240.635 229.889 240.913 230.073C241.184 230.317 241.191 230.752 241.265 231.085C241.34 231.417 241.598 231.845 241.944 231.764C242.058 231.727 242.159 231.657 242.234 231.562C242.309 231.468 242.354 231.354 242.364 231.234C242.398 231.003 242.5 229.197 242.493 228.932C242.521 228.946 243.009 228.871 243.172 229.17Z" fill="#37474F"/>
<path d="M197.231 239.647C197.007 240.205 197.007 240.827 197.231 241.385C197.455 241.901 200.039 243.503 203.614 243.422C206.26 243.337 208.835 242.55 211.077 241.141C212.467 240.292 213.892 240.183 215.663 240.149C217.433 240.115 219.509 239.47 220.113 238.676C220.34 237.898 220.34 237.071 220.113 236.292L197.231 239.647Z" fill="#263238"/>
<path d="M210.175 229.075C210.038 229.33 209.915 229.593 209.808 229.862C209.37 230.833 208.693 231.676 207.841 232.313C206.607 233.168 205.283 233.883 203.893 234.445C203.011 234.839 202.088 234.948 201.179 235.26C200.171 235.583 199.2 236.011 198.282 236.537C196.844 237.419 196.573 239.789 198.126 240.794C199.483 241.656 203.058 242.682 206.898 241.758C208.994 241.256 211.375 239.131 214.102 239.042C215.832 238.981 219.123 238.628 220.289 237.358C220.717 235.464 220.249 234.928 219.862 233.284C219.655 232.375 219.546 231.446 219.536 230.514C219.536 230.025 219.862 228.62 218.858 228.477L218.756 229.529C218.756 229.529 218.56 229.883 217.488 230.073C217.142 230.134 216.87 230.589 216.687 231.003C216.504 231.417 216.389 231.736 216.009 231.729C215.89 231.713 215.778 231.665 215.684 231.591C215.59 231.517 215.517 231.42 215.473 231.308C215.391 231.087 215.325 230.86 215.276 230.629C215.139 230.259 214.923 229.924 214.643 229.646C214.363 229.368 214.026 229.154 213.655 229.02C213.04 228.812 212.402 228.678 211.755 228.62C211.267 228.545 210.86 228.334 210.398 228.755C210.31 228.852 210.235 228.959 210.175 229.075Z" fill="#37474F"/>
<path d="M238.009 148.314C238.687 158.683 239.047 164.719 240.899 193.013C242.262 197.855 243.128 202.824 243.484 207.842C243.85 214.103 244.739 232.965 244.739 232.965C244.739 232.965 239.698 237.107 233.884 235.192C233.884 235.192 228.607 207.462 226.761 198.812C224.997 190.507 223.641 181.429 223.641 181.429L222.331 193.013C222.331 193.013 222.562 198.167 222.399 205.86C222.318 209.974 220.364 232.246 220.364 232.246C220.364 232.246 213.288 235.464 208.512 231.329C208.512 231.329 208.166 195.213 208.092 191.492C208.01 187.241 208.77 144.498 208.77 144.498L238.009 148.314Z" fill="#455A64"/>
<path d="M223.614 181.436L219.998 162.471C219.998 162.471 214.408 161.983 211.321 158.859C211.321 158.859 211.871 161.921 218.899 163.755L222.393 181.219L222.331 193.013L223.614 181.436Z" fill="#37474F"/>
<path d="M244.576 229.564C242.427 231.426 239.664 232.423 236.822 232.361C236.822 232.361 241.639 231.641 244.529 228.464L244.576 229.564Z" fill="#37474F"/>
<path d="M220.588 229.618C220.588 229.618 215.656 231.343 211.497 230.025C211.497 230.025 214.706 232.185 220.513 230.412L220.588 229.618Z" fill="#37474F"/>
<path d="M168.568 109.733C168.533 109.571 168.464 109.418 168.365 109.285C168.192 108.972 168.105 108.619 168.112 108.261C168.12 107.904 168.221 107.554 168.406 107.248C168.525 107.099 168.626 106.934 168.704 106.759C168.84 106.386 168.67 105.965 168.704 105.564C168.826 103.779 172.055 104.559 173.08 104.885C173.378 104.987 175.115 105.435 175.793 105.673C175.733 104.693 175.829 103.71 176.078 102.76C176.54 100.906 178.066 101.097 178.154 102.231C178.238 103.257 178.429 104.272 178.724 105.259C178.914 105.985 179.402 106.705 179.681 107.778C180.081 109.136 179.979 109.896 181.336 111.173C183.371 113.095 193.818 120.183 193.818 120.183C196.423 118.506 206.504 112.3 210.283 110.25C213.94 108.26 215.805 109.862 215.805 109.862L212.617 121.616C212.617 121.616 200.046 128.107 195.514 130.09C192.353 131.448 190.955 130.687 187.469 127.578C184.701 124.957 181.051 121.168 177.109 117.678C175.536 116.279 174.396 115.566 173.283 115.512C172.863 115.512 172.442 115.464 172.028 115.424C171.092 115.315 169.993 115.084 169.538 114.154C169.382 113.841 169.308 113.475 169.179 113.162C168.982 112.66 168.67 112.212 168.501 111.709C168.361 111.373 168.314 111.004 168.365 110.643C168.365 110.351 168.609 110.059 168.568 109.733Z" fill="#E8F5E9"/>
<path d="M216.47 108.959C213.254 108.959 212.006 108.959 207.922 111.282C203.838 113.604 195.874 118.88 195.874 118.88C195.874 118.88 199.442 120.869 200.155 127.931L213.044 121.874L216.47 108.959Z" fill="#455A64"/>
<path d="M174.552 106.753C175.617 107.011 175.949 107.683 176.024 109.184C176.065 110.073 176.438 111.696 177.449 112.287C176.981 112.27 176.529 112.111 176.153 111.832C175.664 111.39 175.536 111.35 175.298 111.635C175.123 111.826 174.904 111.973 174.66 112.062C174.835 112.237 174.948 112.464 174.984 112.709C175.019 112.954 174.975 113.203 174.857 113.42C174.443 114.222 172.361 114.378 170.597 113.611C170.597 113.611 173.426 114.29 173.989 113.366C174.552 112.443 173.032 111.438 171.954 111.214C171.954 111.214 174.667 111.669 175.02 110.766C175.373 109.863 174.219 109.272 172.618 108.98C172.618 108.98 174.857 109.231 175.183 108.45C175.305 108.139 175.308 107.794 175.191 107.481C175.075 107.168 174.847 106.908 174.552 106.753Z" fill="#C8E6C9"/>
<path d="M193.791 120.204C195.203 121.147 196.295 122.496 196.925 124.074C196.925 124.074 197.149 121.093 194.7 119.626L193.791 120.204Z" fill="#C8E6C9"/>
<path d="M208.384 120.57C208.784 112.579 211.999 109.353 216.47 108.96L226.517 108.281C229.231 108.912 236.286 110.27 236.286 110.27C239.21 111.146 241.266 118.778 240.58 123.123C239.895 127.469 238.464 130.783 238.063 138.095C238.179 145.021 238.281 146.393 238.281 149.109C232.033 153.081 215.249 153.909 208.648 149.924C208.648 149.924 208.533 143.229 208.397 138.965C208.166 131.652 208.248 123.32 208.384 120.57Z" fill="#4CAF4F"/>
<path d="M211.023 86.6678C210.619 86.8987 210.284 87.2344 210.055 87.6395C209.826 88.0446 209.71 88.5042 209.72 88.9697C209.704 89.6668 209.903 90.352 210.29 90.932C210.875 91.6717 211.684 92.2008 212.596 92.4393C212.989 92.5335 213.373 92.663 213.743 92.8264C214.204 93.155 214.635 93.5231 215.032 93.9264C215.649 94.4017 216.26 94.8905 216.891 95.3523C218.142 96.2873 219.449 97.1445 220.805 97.9189C222.108 98.6656 223.469 99.3059 224.875 99.8337C226.361 100.384 227.589 99.9016 229.176 100.044L228.946 104.349C228.946 104.349 229.475 103.358 230.079 102.176C230.601 101.158 232.792 95.9701 232.792 95.9701C233.647 93.9331 234.733 91.8011 234.604 89.5264C234.495 87.6863 234.129 86.0703 232.731 85.2895C232.616 83.171 232.134 82.1389 230.649 81.005C229.552 80.2631 228.293 79.7972 226.978 79.647C225.493 79.4753 223.991 79.5279 222.521 79.8031C220.323 80.1562 218.125 80.7198 215.9 80.6044C214.711 80.4775 213.509 80.5533 212.345 80.8284C211.606 81.0684 210.964 81.5413 210.516 82.1764C210.067 82.8115 209.835 83.5748 209.856 84.3524C209.808 85.1605 210.453 86.4913 211.023 86.6678Z" fill="#37474F"/>
<path d="M224.943 87.2177C224.943 88.5757 226.191 90.4973 228.091 92.1541C227.867 93.4108 227.901 94.7001 228.193 95.9429C228.309 96.3291 228.488 96.6938 228.722 97.0225C228.809 97.1601 228.925 97.2765 229.062 97.3635C229.199 97.4504 229.354 97.5056 229.516 97.525C229.957 97.525 230.133 97.2941 230.269 96.9478C230.469 96.509 230.696 96.0828 230.947 95.6713C231.059 95.4956 231.189 95.3318 231.334 95.1824C232.012 94.5645 233.973 93.8244 234.889 95.9157C235.804 98.007 234.088 100.967 232.501 101.409C229.787 102.176 229.17 100.309 229.17 100.309L229.217 109.367C228.451 111.662 224.204 113.896 220.785 113.441C217.366 112.986 218.451 110.922 219.842 109.523L219.665 106.379C218.448 106.5 217.22 106.454 216.016 106.243C214.598 105.972 213.431 104.641 212.841 102.475C211.9 98.3481 211.762 94.0788 212.434 89.8998C212.949 87.3467 213.58 86.2468 213.885 85.948C213.885 86.5048 214.95 88.2091 217.712 88.5893C220.629 89.0103 222.84 88.0868 224.943 87.2177Z" fill="#E8F5E9"/>
<path d="M219.652 106.393C222.175 106.162 224.224 105.816 225.649 105.035C226.694 104.485 227.596 102.767 227.867 102.156C227.867 102.156 227.799 104.505 226.395 105.809C224.414 107.649 219.726 107.649 219.726 107.649L219.652 106.393Z" fill="#C8E6C9"/>
<path d="M220.975 94.8635C220.976 95.043 221.03 95.2182 221.13 95.3672C221.23 95.5162 221.372 95.6326 221.537 95.7018C221.703 95.771 221.885 95.7901 222.061 95.7566C222.237 95.7232 222.4 95.6387 222.529 95.5136C222.657 95.3885 222.746 95.2283 222.785 95.053C222.823 94.8776 222.81 94.6948 222.745 94.5272C222.681 94.3596 222.569 94.2147 222.423 94.1103C222.277 94.0059 222.104 93.9467 221.924 93.94C221.801 93.9382 221.679 93.9607 221.565 94.0061C221.451 94.0516 221.347 94.1191 221.258 94.2049C221.17 94.2906 221.1 94.3929 221.051 94.5059C221.002 94.6189 220.976 94.7404 220.975 94.8635Z" fill="#263238"/>
<path d="M221.307 91.869L223.525 92.7856C223.641 92.4825 223.635 92.1465 223.508 91.8478C223.382 91.5491 223.145 91.3109 222.847 91.1832C222.701 91.1235 222.545 91.0939 222.387 91.0963C222.23 91.0987 222.075 91.133 221.931 91.1971C221.787 91.2611 221.657 91.3537 221.55 91.4692C221.443 91.5846 221.36 91.7207 221.307 91.869Z" fill="#263238"/>
<path d="M222.175 99.8064L218.783 101.164C218.864 101.392 218.989 101.601 219.153 101.779C219.316 101.956 219.514 102.099 219.734 102.198C219.954 102.297 220.192 102.35 220.433 102.355C220.674 102.359 220.914 102.315 221.137 102.224C221.587 102.031 221.946 101.673 222.139 101.223C222.332 100.773 222.345 100.266 222.175 99.8064Z" fill="#388E3B"/>
<path d="M220.201 102.19C220.198 102.246 220.198 102.303 220.201 102.359C220.519 102.411 220.846 102.373 221.144 102.251C221.486 102.104 221.777 101.86 221.98 101.548C222.182 101.236 222.288 100.871 222.284 100.499C222.164 100.472 222.041 100.458 221.918 100.458C221.461 100.462 221.025 100.646 220.703 100.97C220.382 101.294 220.201 101.733 220.201 102.19Z" fill="#C8E6C9"/>
<path d="M213.003 92.7313L215.195 91.8825C215.144 91.7385 215.065 91.6061 214.962 91.4934C214.859 91.3807 214.735 91.2899 214.596 91.2265C214.457 91.1631 214.307 91.1283 214.155 91.1244C214.002 91.1205 213.851 91.1474 213.709 91.2035C213.414 91.3135 213.174 91.5358 213.042 91.822C212.91 92.1081 212.896 92.4349 213.003 92.7313Z" fill="#263238"/>
<path d="M213.566 94.6664C213.559 94.7897 213.576 94.9132 213.617 95.0297C213.658 95.1463 213.722 95.2535 213.805 95.3451C213.887 95.4368 213.987 95.511 214.099 95.5635C214.211 95.616 214.332 95.6457 214.455 95.6509C214.646 95.6644 214.835 95.6205 215.001 95.5251C215.166 95.4296 215.299 95.2869 215.382 95.1152C215.466 94.9435 215.496 94.7507 215.47 94.5616C215.443 94.3726 215.36 94.1958 215.232 94.0541C215.104 93.9124 214.937 93.8122 214.752 93.7664C214.567 93.7207 214.372 93.7314 214.193 93.7972C214.014 93.863 213.858 93.981 213.747 94.1359C213.635 94.2907 213.572 94.4755 213.566 94.6664Z" fill="#263238"/>
<path d="M218.437 99.3583L215.059 98.72L218.247 93.3152L218.437 99.3583Z" fill="#C8E6C9"/>
<path d="M236.87 110.433C241.096 111.166 243.653 112.524 244.739 115.865C246.279 120.618 250.587 134.082 251.475 138.869C252.018 141.809 252.866 143.67 250.376 145.605C244.443 149.902 238.249 153.825 231.829 157.352C226.185 160.312 217.664 160.896 217.664 160.896L223.844 157.155L224.943 155.057L241.462 140.411L235.221 121.956C235.221 121.956 233.647 112.47 236.87 110.433Z" fill="#E8F5E9"/>
<path d="M241.462 140.411C242.805 139.718 244.294 139.36 245.804 139.365C245.804 139.365 244.339 138.102 241.103 139.365L241.462 140.411Z" fill="#C8E6C9"/>
<path d="M236.286 110.27C238.219 110.63 240.356 110.84 242.324 112.09C244.291 113.339 244.651 114.853 246.163 119.518C247.676 124.183 249.46 131.061 249.46 131.061C249.46 131.061 245.756 134.198 239.38 134.286C239.38 134.286 236.239 125.561 235.465 123.619C234.692 121.677 232.745 115.417 236.286 110.27Z" fill="#455A64"/>
<path d="M229.475 152.185V152.768C229.481 153.056 229.412 153.341 229.274 153.594C229.136 153.846 228.934 154.058 228.688 154.208L213.288 163.565C213.039 163.705 212.757 163.779 212.471 163.779C212.185 163.779 211.903 163.705 211.653 163.565L182.645 147.662C182.394 147.522 182.184 147.318 182.036 147.072C181.887 146.825 181.805 146.545 181.797 146.257V145.863L212.454 162.689L229.475 152.185Z" fill="#4CAF4F"/>
<g opacity="0.5">
<path opacity="0.5" d="M229.475 152.185V152.768C229.481 153.056 229.412 153.341 229.274 153.594C229.136 153.846 228.934 154.058 228.688 154.208L213.288 163.565C213.039 163.705 212.757 163.779 212.471 163.779C212.185 163.779 211.903 163.705 211.653 163.565L182.645 147.662C182.394 147.522 182.184 147.318 182.036 147.072C181.887 146.825 181.805 146.545 181.797 146.257V145.863L212.454 162.689L229.475 152.185Z" fill="white"/>
</g>
<g opacity="0.1">
<path opacity="0.1" d="M229.475 152.185V152.768C229.481 153.056 229.412 153.341 229.274 153.594C229.136 153.846 228.934 154.058 228.688 154.208L213.288 163.565C213.039 163.705 212.757 163.779 212.471 163.779C212.185 163.779 211.903 163.705 211.653 163.565L182.645 147.662C182.394 147.522 182.184 147.318 182.036 147.072C181.887 146.825 181.805 146.545 181.797 146.257V145.863L212.454 162.689L229.475 152.185Z" fill="#103E13"/>
</g>
<path d="M181.79 145.863L198.554 135.678C198.702 135.593 198.871 135.548 199.042 135.548C199.213 135.548 199.382 135.593 199.531 135.678L229.38 152.056C229.412 152.075 229.439 152.102 229.458 152.135C229.476 152.168 229.486 152.205 229.486 152.242C229.486 152.28 229.476 152.317 229.458 152.35C229.439 152.382 229.412 152.41 229.38 152.429L212.454 162.716L181.79 145.863Z" fill="#4CAF4F"/>
<g opacity="0.85">
<path opacity="0.85" d="M181.79 145.863L198.554 135.678C198.702 135.593 198.871 135.548 199.042 135.548C199.213 135.548 199.382 135.593 199.531 135.678L229.38 152.056C229.412 152.075 229.439 152.102 229.458 152.135C229.476 152.168 229.486 152.205 229.486 152.242C229.486 152.28 229.476 152.317 229.458 152.35C229.439 152.382 229.412 152.41 229.38 152.429L212.454 162.716L181.79 145.863Z" fill="white"/>
</g>
<path d="M212.305 161.093L221.348 155.6L194.497 140.866L185.406 146.332L212.305 161.093Z" fill="#4CAF4F"/>
<g opacity="0.6">
<path opacity="0.6" d="M212.305 161.093L221.348 155.6L194.497 140.866L185.406 146.332L212.305 161.093Z" fill="white"/>
</g>
<path d="M216.755 146.433L216.585 146.535L212.155 149.231L204.069 144.79L203.899 144.702L208.499 141.905L216.755 146.433Z" fill="#4CAF4F"/>
<path d="M216.585 146.535L212.155 149.231L204.069 144.79L208.506 142.102L216.585 146.535Z" fill="#4CAF4F"/>
<g opacity="0.6">
<path opacity="0.6" d="M216.585 146.535L212.155 149.231L204.069 144.79L208.506 142.102L216.585 146.535Z" fill="white"/>
</g>
<path d="M212.447 162.689V163.775C212.161 163.784 211.877 163.716 211.626 163.578L182.645 147.662C182.394 147.522 182.184 147.318 182.036 147.072C181.887 146.825 181.805 146.545 181.797 146.257V145.863L212.447 162.689Z" fill="#4CAF4F"/>
<g opacity="0.03">
<path opacity="0.03" d="M212.447 162.689V163.775C212.161 163.784 211.877 163.716 211.626 163.578L182.645 147.662C182.394 147.522 182.184 147.318 182.036 147.072C181.887 146.825 181.805 146.545 181.797 146.257V145.863L212.447 162.689Z" fill="white"/>
</g>
<g opacity="0.2">
<path opacity="0.2" d="M212.447 162.689V163.775C212.161 163.784 211.877 163.716 211.626 163.578L182.645 147.662C182.394 147.522 182.184 147.318 182.036 147.072C181.887 146.825 181.805 146.545 181.797 146.257V145.863L212.447 162.689Z" fill="#103E13"/>
</g>
<path d="M211.993 162.94C211.724 163.052 211.434 163.102 211.144 163.085C210.854 163.069 210.571 162.987 210.317 162.845L181.444 146.997C181.192 146.857 180.973 146.662 180.804 146.427C180.635 146.193 180.52 145.923 180.468 145.639L176.94 127.075C176.93 126.969 176.93 126.862 176.94 126.756C176.933 126.499 176.978 126.244 177.071 126.005C177.164 125.766 177.304 125.548 177.483 125.364L207.454 141.837C207.64 141.936 207.801 142.077 207.925 142.247C208.05 142.418 208.135 142.614 208.173 142.821L211.993 162.94Z" fill="#4CAF4F"/>
<g opacity="0.4">
<path opacity="0.4" d="M211.993 162.94C211.724 163.052 211.434 163.102 211.144 163.085C210.854 163.069 210.571 162.987 210.317 162.845L181.444 146.997C181.192 146.857 180.973 146.662 180.804 146.427C180.635 146.193 180.52 145.923 180.468 145.639L176.94 127.075C176.93 126.969 176.93 126.862 176.94 126.756C176.933 126.499 176.978 126.244 177.071 126.005C177.164 125.766 177.304 125.548 177.483 125.364L207.454 141.837C207.64 141.936 207.801 142.077 207.925 142.247C208.05 142.418 208.135 142.614 208.173 142.821L211.993 162.94Z" fill="white"/>
</g>
<path d="M212.447 162.689L212.257 162.804C212.173 162.856 212.084 162.901 211.993 162.94L208.173 142.848C208.134 142.641 208.05 142.445 207.925 142.274C207.801 142.104 207.64 141.964 207.454 141.864L177.449 125.391C177.562 125.269 177.692 125.164 177.835 125.079L207.909 141.579C208.093 141.682 208.253 141.824 208.377 141.995C208.501 142.166 208.587 142.362 208.628 142.57L212.447 162.689Z" fill="#4CAF4F"/>
<g opacity="0.6">
<path opacity="0.6" d="M212.447 162.689L212.257 162.804C212.173 162.856 212.084 162.901 211.993 162.94L208.173 142.848C208.134 142.641 208.05 142.445 207.925 142.274C207.801 142.104 207.64 141.964 207.454 141.864L177.449 125.391C177.562 125.269 177.692 125.164 177.835 125.079L207.909 141.579C208.093 141.682 208.253 141.824 208.377 141.995C208.501 142.166 208.587 142.362 208.628 142.57L212.447 162.689Z" fill="white"/>
</g>
<path d="M207.895 142.237L208.343 141.966C208.485 142.141 208.582 142.349 208.628 142.57L212.447 162.689L212.257 162.804C212.173 162.856 212.084 162.901 211.993 162.94L208.173 142.848C208.13 142.625 208.035 142.416 207.895 142.237Z" fill="#4CAF4F"/>
<path opacity="0.5" d="M207.895 142.237L208.343 141.966C208.485 142.141 208.582 142.349 208.628 142.57L212.447 162.689L212.257 162.804C212.173 162.856 212.084 162.901 211.993 162.94L208.173 142.848C208.13 142.625 208.035 142.416 207.895 142.237Z" fill="white"/>
<path opacity="0.1" d="M207.895 142.237L208.343 141.966C208.485 142.141 208.582 142.349 208.628 142.57L212.447 162.689L212.257 162.804C212.173 162.856 212.084 162.901 211.993 162.94L208.173 142.848C208.13 142.625 208.035 142.416 207.895 142.237Z" fill="#103E13"/>
<path d="M195.555 146.094C195.073 144.546 194.014 143.242 192.597 142.454C191.207 141.694 190.264 142.074 190.501 143.324C190.738 144.573 192.061 146.189 193.459 146.956C194.856 147.723 195.792 147.336 195.555 146.094Z" fill="#455A64"/>
<path d="M230.038 150.542C228.423 151.675 226.246 150.759 224.102 151.017C221.958 151.275 220.127 151.804 218.404 151.757C216.68 151.709 215.839 152.056 217.047 153.434C218.254 154.812 221.707 154.018 222.644 154.439C222.91 154.595 223.138 154.809 223.309 155.066C223.481 155.323 223.592 155.616 223.634 155.922C223.675 156.228 223.647 156.54 223.551 156.833C223.455 157.127 223.293 157.395 223.078 157.617C222.067 158.791 228.83 156.523 229.733 155.132C230.635 153.74 231.259 150.718 230.038 150.542Z" fill="#E8F5E9"/>
</svg>
