<svg width="422" height="407" viewBox="0 0 422 407" fill="none" xmlns="http://www.w3.org/2000/svg">
<path d="M367.293 393.032C397.507 393.032 422 378.894 422 361.454C422 344.015 397.507 329.877 367.293 329.877C337.079 329.877 312.586 344.015 312.586 361.454C312.586 378.894 337.079 393.032 367.293 393.032Z" fill="#E0E0E0"/>
<path d="M179.296 406.959C178.399 406.95 177.532 406.633 176.841 406.061C176.149 405.49 175.674 404.699 175.495 403.82L174.611 399.167C172.615 398.802 170.643 398.317 168.706 397.714H168.554L160.362 401.514C159.689 401.805 158.959 401.938 158.226 401.905C157.494 401.871 156.778 401.672 156.135 401.321L148.004 396.606C147.514 396.343 147.099 395.957 146.802 395.486C146.504 395.016 146.333 394.476 146.306 393.92C146.278 393.364 146.395 392.81 146.644 392.313C146.894 391.815 147.268 391.39 147.73 391.079L152.669 387.523C152.221 386.926 151.81 386.302 151.439 385.654L141.032 385.004C140.088 384.944 139.201 384.528 138.552 383.839C137.903 383.151 137.54 382.241 137.536 381.295V375.199C137.537 374.253 137.897 373.342 138.545 372.651C139.192 371.961 140.078 371.542 141.022 371.48L151.429 370.82C151.8 370.175 152.211 369.554 152.659 368.961L147.699 365.435C147.237 365.124 146.863 364.7 146.614 364.202C146.364 363.704 146.248 363.15 146.275 362.594C146.303 362.038 146.474 361.499 146.771 361.028C147.069 360.557 147.483 360.172 147.974 359.908L156.104 355.194C156.812 354.799 157.611 354.596 158.421 354.605C159.08 354.595 159.732 354.73 160.332 355.001L168.533 358.801H168.635C170.596 358.193 172.591 357.704 174.611 357.338L175.495 352.684C175.672 351.805 176.147 351.012 176.839 350.441C177.531 349.869 178.398 349.553 179.296 349.545H191.298C192.196 349.555 193.062 349.872 193.754 350.443C194.446 351.014 194.92 351.805 195.099 352.684L195.984 357.338C197.975 357.704 199.943 358.185 201.878 358.78H202.031L210.232 354.981C210.829 354.711 211.478 354.576 212.133 354.584C212.947 354.574 213.749 354.777 214.46 355.174L222.59 359.888C223.079 360.152 223.492 360.538 223.788 361.008C224.085 361.478 224.256 362.016 224.285 362.572C224.313 363.127 224.199 363.68 223.952 364.178C223.705 364.675 223.334 365.102 222.875 365.415L217.925 368.971C218.375 369.566 218.789 370.187 219.165 370.83L229.572 371.491C230.517 371.553 231.402 371.971 232.05 372.662C232.697 373.352 233.058 374.263 233.058 375.209V381.305C233.055 382.251 232.694 383.16 232.047 383.85C231.4 384.54 230.516 384.96 229.572 385.024L219.165 385.674C218.791 386.322 218.377 386.947 217.925 387.544L222.875 391.1C223.334 391.413 223.705 391.839 223.952 392.337C224.199 392.835 224.313 393.388 224.285 393.943C224.256 394.498 224.085 395.036 223.788 395.506C223.492 395.976 223.079 396.362 222.59 396.627L214.46 401.341C213.747 401.733 212.946 401.935 212.133 401.93C211.478 401.933 210.831 401.798 210.232 401.534L202.031 397.734H201.929C199.972 398.345 197.98 398.837 195.963 399.207L195.079 403.85C194.902 404.731 194.428 405.525 193.736 406.098C193.044 406.671 192.177 406.99 191.278 407L179.296 406.959ZM185.302 372.74C180.962 372.638 176.668 373.653 172.832 375.687C170.038 377.302 168.432 379.365 168.432 381.366C168.432 383.368 170.038 385.43 172.832 387.046C176.705 388.983 180.977 389.992 185.307 389.992C189.638 389.992 193.909 388.983 197.782 387.046C200.577 385.43 202.173 383.368 202.173 381.366C202.173 379.365 200.577 377.302 197.782 375.687C193.943 373.654 189.646 372.64 185.302 372.74Z" fill="#E0E0E0"/>
<path d="M224.213 233.065L220.809 231.105C219.514 230.448 218.083 230.107 216.632 230.107C215.18 230.107 213.749 230.448 212.455 231.105L32.7226 334.889C30.4258 336.21 30.4258 338.384 32.7226 339.705L36.1171 341.666C37.4134 342.322 38.8461 342.664 40.2991 342.664C41.7522 342.664 43.1848 342.322 44.4812 341.666L99.0766 310.17L121.201 322.931C127.462 326.548 137.716 326.548 143.977 322.931L181.641 301.188C186.986 298.14 186.986 293.06 181.641 290.012L157.869 276.185L224.223 237.891C226.51 236.56 226.51 234.396 224.213 233.065Z" fill="#E0E0E0"/>
<g opacity="0.1">
<path opacity="0.1" d="M231.175 57.0731L68.5673 150.921V242.9C68.5553 243.433 68.704 243.957 68.9942 244.404C69.0912 244.565 69.2263 244.699 69.3877 244.794C69.549 244.89 69.7316 244.945 69.919 244.953C70.1524 244.948 70.3803 244.881 70.5796 244.76L235.047 149.753V59.3286C235.047 56.8292 233.309 55.8335 231.175 57.0731Z" fill="#103E13"/>
</g>
<path d="M147.381 317.526L178.541 299.522C181.752 297.663 183.358 295.235 183.358 292.806C183.358 290.378 183.358 288.468 183.358 288.468L154.028 271.836C153.126 271.245 152.376 270.451 151.837 269.518C151.299 268.584 150.987 267.537 150.928 266.461V228.056L96.5256 259.502V297.907C96.5777 298.977 96.8808 300.02 97.4104 300.952C97.94 301.884 98.6813 302.678 99.5745 303.271L124.067 317.495C130.541 321.234 140.958 321.234 147.381 317.526Z" fill="#37474F"/>
<path d="M109.585 304.704V309.022L99.6152 303.271C98.7135 302.681 97.9632 301.887 97.4248 300.953C96.8864 300.02 96.5749 298.973 96.5155 297.897V259.502L106.882 253.517C107.105 256.149 107.329 258.872 107.552 261.524L100.276 265.73V295.732C100.325 296.805 100.626 297.851 101.156 298.785C101.686 299.719 102.429 300.515 103.325 301.107L109.585 304.704Z" fill="#263238"/>
<path d="M100.276 295.743C100.329 296.814 100.633 297.858 101.163 298.791C101.692 299.725 102.432 300.521 103.325 301.117L124.057 313.198C130.49 316.906 140.907 316.906 147.33 313.198L178.5 295.194C184.933 291.486 184.933 285.471 178.5 281.762L157.747 269.672C156.843 269.084 156.091 268.29 155.553 267.356C155.014 266.422 154.704 265.374 154.648 264.297V234.305L100.276 265.73V295.743Z" fill="#455A64"/>
<path opacity="0.15" d="M164.12 273.319L157.808 269.672C156.904 269.084 156.152 268.29 155.614 267.356C155.075 266.422 154.765 265.374 154.709 264.297V234.305L100.276 265.73V295.743C100.329 296.814 100.633 297.858 101.163 298.791C101.692 299.725 102.432 300.521 103.325 301.117L109.534 304.694L164.12 273.319Z" fill="#103E13"/>
<path d="M35.4359 319.426C36.6126 319.994 37.9067 320.277 39.2132 320.252C40.5197 320.228 41.8021 319.896 42.9565 319.283C69.7156 303.84 195.269 231.369 222.028 215.935C223.154 215.197 224.092 214.205 224.764 213.039C225.437 211.872 225.826 210.564 225.9 209.22V59.3081C225.954 57.9804 225.643 56.6632 225.001 55.4997C224.359 54.3361 223.411 53.3705 222.259 52.7077C221.107 52.045 219.795 51.7103 218.466 51.7401C217.137 51.7699 215.842 52.163 214.721 52.8768L35.6798 156.225C34.5609 156.967 33.6315 157.961 32.9662 159.128C32.3008 160.294 31.918 161.6 31.8484 162.941V312.852C31.8918 314.152 32.2388 315.423 32.8618 316.565C33.4847 317.706 34.3663 318.686 35.4359 319.426Z" fill="#37474F"/>
<path d="M42.9566 319.283L222.028 215.925C223.156 215.189 224.095 214.197 224.768 213.03C225.44 211.863 225.828 210.554 225.9 209.209V59.308C225.9 56.829 224.162 55.8333 222.028 57.0728L42.9566 160.421C41.8285 161.157 40.8899 162.149 40.2171 163.316C39.5443 164.483 39.1563 165.792 39.0845 167.137V317.048C39.0744 319.517 40.8122 320.513 42.9566 319.283Z" fill="#455A64"/>
<path d="M44.2067 298.963V168.915C44.2517 168.089 44.4904 167.285 44.9035 166.569C45.3167 165.852 45.8926 165.243 46.5848 164.79L218.39 65.6277C219.701 64.8657 220.768 65.4855 220.768 66.9993V197.048C220.723 197.876 220.484 198.683 220.069 199.401C219.654 200.12 219.075 200.73 218.38 201.183L46.5848 300.345C45.2738 301.097 44.2067 300.487 44.2067 298.963Z" fill="#4CAF4F"/>
<path opacity="0.75" d="M44.2067 298.963V168.915C44.2517 168.089 44.4904 167.285 44.9035 166.569C45.3167 165.852 45.8926 165.243 46.5848 164.79L218.39 65.6277C219.701 64.8657 220.768 65.4855 220.768 66.9993V197.048C220.723 197.876 220.484 198.683 220.069 199.401C219.654 200.12 219.075 200.73 218.38 201.183L46.5848 300.345C45.2738 301.097 44.2067 300.487 44.2067 298.963Z" fill="white"/>
<path d="M32.9461 159.12L40.2228 163.316C39.5289 164.479 39.1343 165.795 39.0744 167.147V317.048C39.0744 319.304 40.609 320.563 42.9567 319.283C41.8046 319.903 40.5214 320.239 39.2136 320.263C37.9057 320.288 36.6108 320.001 35.4361 319.426C34.3719 318.79 33.4823 317.901 32.8472 316.837C32.2121 315.773 31.8515 314.567 31.7977 313.329V162.961C31.849 161.604 32.2442 160.283 32.9461 159.12Z" fill="#263238"/>
<path d="M124.575 261.838L140.399 252.694C141.192 252.247 141.822 252.562 141.822 253.416C141.786 253.893 141.639 254.355 141.392 254.764C141.145 255.174 140.805 255.519 140.399 255.773L124.575 264.917C123.793 265.374 123.153 265.049 123.153 264.206C123.187 263.727 123.333 263.263 123.58 262.852C123.828 262.44 124.169 262.093 124.575 261.838Z" fill="#4CAF4F"/>
<path d="M313.048 68.2693L295.252 78.5512C295.068 78.6742 294.916 78.8382 294.806 79.0305C294.697 79.2227 294.634 79.4378 294.622 79.6587V101.401C294.633 101.621 294.697 101.834 294.809 102.023C294.92 102.213 295.076 102.372 295.262 102.488L297.783 103.931C297.982 104.029 298.201 104.08 298.423 104.08C298.645 104.08 298.864 104.029 299.063 103.931L316.859 93.6389C317.042 93.5182 317.195 93.356 317.305 93.1654C317.414 92.9747 317.477 92.7611 317.489 92.5416V70.7991C317.477 70.5786 317.413 70.364 317.301 70.1732C317.19 69.9824 317.035 69.8208 316.849 69.7018L314.379 68.2591C314.173 68.1521 313.944 68.0971 313.712 68.0989C313.48 68.1007 313.252 68.1592 313.048 68.2693Z" fill="#333333"/>
<path d="M299.063 103.921C298.864 104.016 298.645 104.066 298.423 104.066C298.202 104.066 297.983 104.016 297.783 103.921L295.262 102.478C295.076 102.362 294.92 102.203 294.809 102.013C294.697 101.824 294.633 101.61 294.622 101.391V79.6485C294.632 79.4177 294.702 79.1935 294.825 78.9983L298.616 81.1725C298.494 81.3757 298.423 81.5993 298.423 81.2538V102.996C298.423 103.921 298.687 104.134 299.063 103.921Z" fill="#333333"/>
<path opacity="0.4" d="M317.479 70.7281C317.428 70.403 317.174 70.2912 316.859 70.4741L299.063 80.7662C298.878 80.8826 298.724 81.0432 298.616 81.2336L294.815 79.0593C294.926 78.8741 295.08 78.7175 295.262 78.6021L313.058 68.31C313.255 68.2101 313.472 68.158 313.693 68.158C313.914 68.158 314.131 68.2101 314.328 68.31L316.848 69.7426C317.02 69.8502 317.165 69.9944 317.274 70.1648C317.383 70.3352 317.453 70.5275 317.479 70.7281Z" fill="white"/>
<path d="M292.884 95.7826C292.478 95.5387 289.439 93.8318 289.348 93.7506C289.272 93.7057 289.208 93.6446 289.16 93.5719C289.111 93.4991 289.079 93.4164 289.067 93.3298C289.054 93.2432 289.061 93.1549 289.087 93.0713C289.112 92.9877 289.156 92.9108 289.215 92.8463L294.622 86.6487L298.423 88.8331L292.773 94.8682C292.712 94.9322 292.667 95.0087 292.639 95.0922C292.612 95.1758 292.603 95.2643 292.614 95.3515C292.625 95.4388 292.655 95.5226 292.701 95.5971C292.748 95.6716 292.81 95.7349 292.884 95.7826Z" fill="#37474F"/>
<path opacity="0.4" d="M292.884 95.7826C292.478 95.5387 289.439 93.8318 289.348 93.7506C289.272 93.7057 289.208 93.6446 289.16 93.5719C289.111 93.4991 289.079 93.4164 289.067 93.3298C289.054 93.2432 289.061 93.1549 289.087 93.0713C289.112 92.9877 289.156 92.9108 289.215 92.8463L294.622 86.6487L298.423 88.8331L292.773 94.8682C292.712 94.9322 292.667 95.0087 292.639 95.0922C292.612 95.1758 292.603 95.2643 292.614 95.3515C292.625 95.4388 292.655 95.5226 292.701 95.5971C292.748 95.6716 292.81 95.7349 292.884 95.7826Z" fill="white"/>
<path d="M316.859 70.4232L299.063 80.7153C298.877 80.8343 298.722 80.9958 298.611 81.1867C298.499 81.3775 298.435 81.592 298.423 81.8126V88.8535L292.772 94.8885C292.679 94.9624 292.61 95.064 292.577 95.1789C292.544 95.2937 292.548 95.416 292.589 95.5285C292.629 95.6409 292.704 95.7377 292.803 95.8053C292.901 95.8728 293.019 95.9075 293.138 95.9045L298.423 95.5185V103.596C298.423 104.002 298.708 104.165 299.063 103.961L316.859 93.6693C317.042 93.5486 317.195 93.3864 317.305 93.1958C317.414 93.0052 317.477 92.7915 317.489 92.5721V70.8296C317.489 70.3825 317.204 70.22 316.859 70.4232Z" fill="#37474F"/>
<path d="M313.363 89.7171L309.714 86.984L313.475 79.7907C313.643 79.47 313.677 79.0956 313.569 78.7498C313.462 78.404 313.221 78.1151 312.9 77.9467C312.58 77.7782 312.205 77.7441 311.859 77.8518C311.513 77.9594 311.224 78.2 311.056 78.5207L307.499 85.3178L304.247 82.859C304.104 82.751 303.941 82.6721 303.768 82.6268C303.594 82.5816 303.414 82.571 303.237 82.5955C303.059 82.62 302.888 82.6793 302.734 82.7698C302.579 82.8603 302.444 82.9804 302.336 83.1232C302.228 83.2659 302.149 83.4286 302.104 83.6019C302.058 83.7751 302.048 83.9556 302.072 84.1329C302.097 84.3103 302.156 84.4811 302.247 84.6356C302.337 84.7901 302.457 84.9252 302.6 85.0333L306.218 87.7663L302.61 94.6548C302.442 94.9769 302.409 95.3525 302.517 95.6992C302.626 96.0458 302.868 96.3353 303.19 96.504C303.385 96.6033 303.601 96.6555 303.82 96.6564C304.069 96.6567 304.314 96.5887 304.527 96.4597C304.74 96.3308 304.914 96.1457 305.029 95.9248L308.424 89.4427L311.686 91.9015C311.975 92.1176 312.338 92.2111 312.695 92.1617C313.053 92.1122 313.377 91.9238 313.597 91.6373C313.819 91.3513 313.92 90.9888 313.876 90.629C313.832 90.2692 313.648 89.9413 313.363 89.7171Z" fill="#F5F7FA"/>
<path d="M396.593 349.394C397.314 350.816 397.637 352.406 397.528 353.997C397.456 355.388 396.623 357.197 396.999 360.336C397.375 363.476 398.097 364.472 398.432 366.686C398.629 367.703 398.622 368.748 398.411 369.761C398.199 370.775 397.789 371.736 397.202 372.589C395.901 374.703 393.036 376.379 387.365 376.176C382.791 376.013 380.942 373.666 380.84 370.974L396.593 349.394Z" fill="#263238"/>
<path d="M395.292 342.912C395.432 343.496 395.524 344.091 395.566 344.69C395.739 345.757 396.054 346.722 396.308 347.809C396.379 348.083 396.44 348.358 396.501 348.632C396.938 350.735 396.501 352.91 396.501 355.053C396.677 357.586 397.123 360.093 397.832 362.531C398.849 366.981 399.021 369.958 395.129 373.037C393.096 374.662 390.83 374.713 388.228 374.784C386.228 374.854 384.246 374.376 382.496 373.402C380.83 372.173 380.85 371.137 380.84 370.74C380.687 366.016 382.395 360.519 382.74 355.805C382.869 354.536 382.896 353.258 382.822 351.985C382.659 350.42 382.12 348.866 381.948 347.291C381.826 346.704 381.901 346.094 382.161 345.554C382.424 345.255 382.748 345.016 383.111 344.853C383.473 344.69 383.867 344.607 384.265 344.609C386.297 344.334 388.411 344.131 390.495 343.979C390.985 343.886 391.492 343.988 391.907 344.263C392.314 344.629 392.324 345.279 392.436 345.777C392.548 346.275 392.934 346.915 393.452 346.793C393.624 346.738 393.775 346.633 393.887 346.492C393.999 346.351 394.067 346.18 394.082 346.001C394.133 345.655 394.286 342.953 394.275 342.556C394.316 342.577 395.048 342.465 395.292 342.912Z" fill="#37474F"/>
<path d="M326.468 358.589C326.133 359.424 326.133 360.355 326.468 361.19C326.803 361.962 330.676 364.36 336.031 364.238C339.995 364.111 343.853 362.933 347.211 360.824C349.294 359.554 351.428 359.392 354.081 359.341C356.733 359.29 359.843 358.325 360.748 357.136C361.088 355.972 361.088 354.734 360.748 353.57L326.468 358.589Z" fill="#263238"/>
<path d="M345.859 342.77C345.654 343.152 345.471 343.545 345.31 343.948C344.654 345.4 343.64 346.662 342.363 347.616C340.515 348.894 338.531 349.964 336.448 350.806C335.127 351.396 333.745 351.558 332.383 352.025C330.874 352.508 329.419 353.149 328.043 353.936C325.889 355.256 325.482 358.802 327.81 360.306C329.842 361.596 335.198 363.13 340.95 361.749C344.091 360.997 347.658 357.817 351.743 357.685C354.335 357.593 359.264 357.065 361.012 355.165C361.652 352.33 360.951 351.528 360.372 349.069C360.062 347.708 359.898 346.319 359.884 344.924C359.884 344.192 360.372 342.089 358.868 341.876L358.715 343.45C358.715 343.45 358.421 343.979 356.815 344.263C356.296 344.355 355.89 345.035 355.616 345.655C355.341 346.275 355.168 346.752 354.599 346.742C354.422 346.717 354.254 346.646 354.113 346.535C353.972 346.425 353.863 346.279 353.796 346.112C353.674 345.781 353.575 345.442 353.502 345.096C353.296 344.543 352.972 344.04 352.553 343.625C352.133 343.209 351.628 342.889 351.073 342.688C350.151 342.377 349.196 342.176 348.227 342.089C347.495 341.977 346.886 341.662 346.194 342.292C346.062 342.436 345.95 342.597 345.859 342.77Z" fill="#37474F"/>
<path d="M387.558 221.926C388.574 237.441 389.113 246.473 391.887 288.81C393.929 296.055 395.226 303.49 395.759 310.999C396.308 320.367 397.639 348.591 397.639 348.591C397.639 348.591 390.088 354.789 381.379 351.924C381.379 351.924 373.472 310.43 370.707 297.486C368.065 285.061 366.032 271.477 366.032 271.477L364.071 288.81C364.071 288.81 364.417 296.521 364.173 308.033C364.051 314.19 361.124 347.514 361.124 347.514C361.124 347.514 350.524 352.33 343.369 346.143C343.369 346.143 342.851 292.102 342.739 286.534C342.617 280.174 343.755 216.216 343.755 216.216L387.558 221.926Z" fill="#455A64"/>
<path d="M365.992 271.487L360.575 243.11C360.575 243.11 352.201 242.378 347.577 237.705C347.577 237.705 348.4 242.287 358.929 245.03L364.163 271.162L364.071 288.81L365.992 271.487Z" fill="#37474F"/>
<path d="M397.395 343.501C394.176 346.288 390.036 347.78 385.779 347.687C385.779 347.687 392.995 346.61 397.324 341.855L397.395 343.501Z" fill="#37474F"/>
<path d="M361.459 343.583C361.459 343.583 354.071 346.163 347.841 344.192C347.841 344.192 352.648 347.423 361.347 344.771L361.459 343.583Z" fill="#37474F"/>
<path d="M283.53 164.197C283.477 163.954 283.373 163.725 283.225 163.526C282.966 163.058 282.836 162.529 282.847 161.994C282.857 161.459 283.009 160.936 283.286 160.478C283.465 160.254 283.616 160.009 283.733 159.747C283.936 159.188 283.682 158.558 283.733 157.959C283.916 155.286 288.753 156.455 290.288 156.943C290.735 157.095 293.337 157.765 294.353 158.121C294.262 156.655 294.406 155.183 294.78 153.762C295.471 150.989 297.758 151.273 297.89 152.97C298.016 154.506 298.302 156.025 298.744 157.501C299.028 158.588 299.76 159.665 300.176 161.271C300.776 163.303 300.624 164.441 302.656 166.351C305.705 169.226 321.356 179.833 321.356 179.833C325.259 177.324 340.361 168.037 346.022 164.969C351.499 161.992 354.294 164.39 354.294 164.39L349.518 181.977C349.518 181.977 330.686 191.69 323.897 194.657C319.161 196.689 317.067 195.551 311.844 190.897C307.697 186.976 302.229 181.306 296.325 176.084C293.967 173.991 292.26 172.924 290.593 172.843C289.963 172.843 289.333 172.772 288.713 172.711C287.31 172.548 285.664 172.203 284.983 170.811C284.749 170.344 284.637 169.795 284.444 169.328C284.149 168.576 283.682 167.905 283.428 167.153C283.219 166.649 283.148 166.099 283.225 165.558C283.225 165.121 283.591 164.684 283.53 164.197Z" fill="#E8F5E9"/>
<path d="M355.29 163.039C350.473 163.039 348.603 163.039 342.485 166.513C336.367 169.988 324.435 177.882 324.435 177.882C324.435 177.882 329.781 180.859 330.848 191.426L350.158 182.363L355.29 163.039Z" fill="#455A64"/>
<path d="M292.493 159.737C294.089 160.123 294.587 161.129 294.699 163.374C294.76 164.705 295.319 167.133 296.833 168.017C296.132 167.992 295.455 167.754 294.892 167.336C294.16 166.676 293.967 166.615 293.611 167.042C293.348 167.328 293.021 167.548 292.656 167.682C292.917 167.943 293.087 168.283 293.141 168.649C293.194 169.015 293.127 169.388 292.951 169.714C292.331 170.913 289.211 171.146 286.568 169.998C286.568 169.998 290.806 171.014 291.65 169.632C292.493 168.251 290.217 166.747 288.601 166.412C288.601 166.412 292.666 167.092 293.194 165.741C293.723 164.39 291.995 163.506 289.597 163.069C289.597 163.069 292.951 163.445 293.438 162.277C293.621 161.811 293.626 161.295 293.451 160.826C293.277 160.357 292.936 159.97 292.493 159.737Z" fill="#C8E6C9"/>
<path d="M321.315 179.864C323.43 181.275 325.067 183.294 326.011 185.655C326.011 185.655 326.346 181.195 322.677 179L321.315 179.864Z" fill="#C8E6C9"/>
<path d="M343.176 180.412C343.776 168.454 348.593 163.628 355.29 163.038L370.342 162.022C374.407 162.967 384.976 164.999 384.976 164.999C389.357 166.31 392.436 177.73 391.409 184.232C390.383 190.735 388.239 195.693 387.639 206.635C387.812 216.998 387.964 219.051 387.964 223.115C378.604 229.058 353.461 230.298 343.572 224.334C343.572 224.334 343.4 214.316 343.196 207.936C342.851 196.993 342.973 184.527 343.176 180.412Z" fill="#4CAF4F"/>
<path d="M347.129 129.683C346.524 130.029 346.023 130.531 345.68 131.137C345.337 131.743 345.163 132.431 345.178 133.127C345.154 134.171 345.452 135.196 346.032 136.064C346.908 137.17 348.121 137.962 349.487 138.319C350.076 138.46 350.651 138.654 351.205 138.898C351.895 139.39 352.541 139.941 353.136 140.544C354.061 141.255 354.975 141.987 355.92 142.678C357.794 144.077 359.753 145.36 361.784 146.518C363.737 147.636 365.776 148.594 367.882 149.383C370.108 150.206 371.947 149.485 374.325 149.698L373.98 156.14C373.98 156.14 374.773 154.656 375.677 152.889C376.46 151.365 379.742 143.602 379.742 143.602C381.023 140.554 382.649 137.364 382.456 133.96C382.293 131.207 381.744 128.789 379.651 127.621C379.478 124.451 378.757 122.906 376.531 121.21C374.889 120.099 373.002 119.402 371.033 119.178C368.808 118.921 366.557 119 364.356 119.411C361.063 119.94 357.77 120.783 354.437 120.61C352.655 120.42 350.855 120.534 349.111 120.945C348.004 121.305 347.042 122.012 346.37 122.962C345.698 123.913 345.351 125.055 345.381 126.219C345.31 127.428 346.276 129.419 347.129 129.683Z" fill="#37474F"/>
<path d="M367.984 130.506C367.984 132.538 369.854 135.413 372.699 137.892C372.363 139.773 372.415 141.702 372.852 143.562C373.027 144.14 373.294 144.685 373.645 145.177C373.774 145.383 373.948 145.557 374.154 145.687C374.36 145.818 374.592 145.9 374.834 145.929C375.494 145.929 375.758 145.584 375.962 145.065C376.262 144.409 376.601 143.771 376.978 143.155C377.146 142.893 377.34 142.647 377.557 142.424C378.574 141.499 381.511 140.392 382.883 143.521C384.255 146.65 381.683 151.08 379.305 151.741C375.24 152.889 374.315 150.095 374.315 150.095L374.386 163.648C373.238 167.082 366.876 170.425 361.754 169.744C356.632 169.064 358.258 165.975 360.341 163.882L360.077 159.178C358.254 159.358 356.414 159.29 354.609 158.975C352.485 158.568 350.737 156.577 349.853 153.336C348.445 147.161 348.238 140.773 349.243 134.519C350.016 130.699 350.961 129.053 351.418 128.606C351.418 129.439 353.014 131.989 357.15 132.558C361.52 133.188 364.833 131.807 367.984 130.506Z" fill="#E8F5E9"/>
<path d="M360.057 159.198C363.837 158.853 366.907 158.334 369.041 157.166C370.606 156.343 371.957 153.773 372.364 152.858C372.364 152.858 372.262 156.374 370.159 158.324C367.191 161.078 360.168 161.078 360.168 161.078L360.057 159.198Z" fill="#C8E6C9"/>
<path d="M362.038 141.946C362.041 142.215 362.122 142.477 362.272 142.7C362.421 142.923 362.633 143.097 362.881 143.201C363.129 143.304 363.402 143.333 363.666 143.283C363.93 143.233 364.174 143.106 364.366 142.919C364.559 142.732 364.693 142.492 364.75 142.23C364.808 141.967 364.788 141.694 364.691 141.443C364.595 141.192 364.427 140.975 364.208 140.819C363.99 140.663 363.73 140.574 363.461 140.564C363.277 140.562 363.094 140.595 362.923 140.663C362.752 140.731 362.596 140.832 362.464 140.961C362.331 141.089 362.226 141.242 362.153 141.411C362.08 141.58 362.041 141.762 362.038 141.946Z" fill="#263238"/>
<path d="M362.536 137.466L365.86 138.837C366.033 138.384 366.024 137.881 365.834 137.434C365.645 136.987 365.29 136.631 364.843 136.44C364.625 136.35 364.391 136.306 364.155 136.31C363.919 136.313 363.686 136.364 363.471 136.46C363.255 136.556 363.061 136.695 362.901 136.867C362.74 137.04 362.616 137.244 362.536 137.466Z" fill="#263238"/>
<path d="M363.837 149.343L358.756 151.375C358.876 151.715 359.065 152.028 359.309 152.294C359.554 152.56 359.85 152.773 360.18 152.921C360.51 153.07 360.866 153.149 361.227 153.156C361.589 153.163 361.948 153.096 362.282 152.96C362.956 152.672 363.494 152.135 363.783 151.462C364.073 150.789 364.092 150.03 363.837 149.343Z" fill="#388E3B"/>
<path d="M360.88 152.909C360.875 152.994 360.875 153.078 360.88 153.163C361.357 153.24 361.846 153.184 362.293 153C362.805 152.781 363.24 152.415 363.544 151.949C363.848 151.482 364.007 150.936 364 150.379C363.82 150.339 363.636 150.318 363.451 150.318C362.767 150.323 362.113 150.599 361.632 151.084C361.15 151.569 360.88 152.225 360.88 152.909Z" fill="#C8E6C9"/>
<path d="M350.097 138.756L353.38 137.486C353.304 137.27 353.186 137.072 353.032 136.904C352.877 136.735 352.691 136.599 352.483 136.504C352.275 136.41 352.05 136.358 351.822 136.352C351.594 136.346 351.366 136.386 351.154 136.47C350.712 136.635 350.353 136.967 350.155 137.395C349.957 137.824 349.936 138.313 350.097 138.756Z" fill="#263238"/>
<path d="M350.941 141.652C350.93 141.836 350.956 142.021 351.017 142.195C351.078 142.37 351.173 142.53 351.297 142.667C351.421 142.804 351.571 142.916 351.739 142.994C351.906 143.073 352.087 143.117 352.272 143.125C352.557 143.145 352.842 143.079 353.089 142.937C353.337 142.794 353.536 142.58 353.661 142.323C353.786 142.066 353.832 141.778 353.792 141.495C353.752 141.212 353.628 140.948 353.436 140.736C353.245 140.523 352.994 140.374 352.716 140.305C352.439 140.237 352.147 140.253 351.879 140.351C351.611 140.45 351.378 140.626 351.211 140.858C351.043 141.09 350.949 141.366 350.941 141.652Z" fill="#263238"/>
<path d="M358.238 148.672L353.176 147.717L357.953 139.63L358.238 148.672Z" fill="#C8E6C9"/>
<path d="M385.85 165.243C392.182 166.341 396.013 168.373 397.639 173.371C399.946 180.483 406.4 200.631 407.731 207.794C408.544 212.193 409.815 214.977 406.085 217.872C397.197 224.302 387.917 230.172 378.299 235.449C369.844 239.879 357.079 240.753 357.079 240.753L366.337 235.155L367.984 232.015L392.731 210.1L383.381 182.485C383.381 182.485 381.023 168.291 385.85 165.243Z" fill="#E8F5E9"/>
<path d="M392.731 210.1C394.742 209.064 396.973 208.527 399.235 208.535C399.235 208.535 397.04 206.645 392.192 208.535L392.731 210.1Z" fill="#C8E6C9"/>
<path d="M384.976 164.999C387.873 165.538 391.074 165.853 394.021 167.722C396.969 169.592 397.507 171.857 399.774 178.837C402.04 185.817 404.713 196.109 404.713 196.109C404.713 196.109 399.164 200.803 389.611 200.935C389.611 200.935 384.905 187.88 383.747 184.974C382.588 182.068 379.671 172.701 384.976 164.999Z" fill="#455A64"/>
<path d="M374.773 227.717V228.591C374.782 229.022 374.678 229.448 374.471 229.826C374.265 230.204 373.962 230.521 373.594 230.745L350.524 244.746C350.15 244.956 349.728 245.066 349.299 245.066C348.87 245.066 348.449 244.956 348.075 244.746L304.618 220.951C304.242 220.74 303.928 220.436 303.705 220.067C303.482 219.698 303.359 219.278 303.347 218.848V218.258L349.274 243.435L374.773 227.717Z" fill="#4CAF4F"/>
<g opacity="0.5">
<path opacity="0.5" d="M374.773 227.717V228.591C374.782 229.022 374.678 229.448 374.471 229.826C374.265 230.204 373.962 230.521 373.594 230.745L350.524 244.746C350.15 244.956 349.728 245.066 349.299 245.066C348.87 245.066 348.449 244.956 348.075 244.746L304.618 220.951C304.242 220.74 303.928 220.436 303.705 220.067C303.482 219.698 303.359 219.278 303.347 218.848V218.258L349.274 243.435L374.773 227.717Z" fill="white"/>
</g>
<g opacity="0.1">
<path opacity="0.1" d="M374.773 227.717V228.591C374.782 229.022 374.678 229.448 374.471 229.826C374.265 230.204 373.962 230.521 373.594 230.745L350.524 244.746C350.15 244.956 349.728 245.066 349.299 245.066C348.87 245.066 348.449 244.956 348.075 244.746L304.618 220.951C304.242 220.74 303.928 220.436 303.705 220.067C303.482 219.698 303.359 219.278 303.347 218.848V218.258L349.274 243.435L374.773 227.717Z" fill="#103E13"/>
</g>
<path d="M303.337 218.258L328.45 203.018C328.673 202.891 328.925 202.824 329.182 202.824C329.438 202.824 329.691 202.891 329.913 203.018L374.63 227.524C374.679 227.553 374.719 227.594 374.747 227.643C374.775 227.692 374.789 227.747 374.789 227.804C374.789 227.86 374.775 227.915 374.747 227.964C374.719 228.013 374.679 228.054 374.63 228.083L349.274 243.476L303.337 218.258Z" fill="#4CAF4F"/>
<g opacity="0.85">
<path opacity="0.85" d="M303.337 218.258L328.45 203.018C328.673 202.891 328.925 202.824 329.182 202.824C329.438 202.824 329.691 202.891 329.913 203.018L374.63 227.524C374.679 227.553 374.719 227.594 374.747 227.643C374.775 227.692 374.789 227.747 374.789 227.804C374.789 227.86 374.775 227.915 374.747 227.964C374.719 228.013 374.679 228.054 374.63 228.083L349.274 243.476L303.337 218.258Z" fill="white"/>
</g>
<path d="M349.05 241.047L362.597 232.828L322.372 210.781L308.754 218.959L349.05 241.047Z" fill="#4CAF4F"/>
<g opacity="0.6">
<path opacity="0.6" d="M349.05 241.047L362.597 232.828L322.372 210.781L308.754 218.959L349.05 241.047Z" fill="white"/>
</g>
<path d="M355.717 219.112L355.463 219.264L348.827 223.298L336.712 216.653L336.458 216.521L343.349 212.335L355.717 219.112Z" fill="#4CAF4F"/>
<path d="M355.463 219.264L348.827 223.298L336.712 216.653L343.359 212.63L355.463 219.264Z" fill="#4CAF4F"/>
<g opacity="0.6">
<path opacity="0.6" d="M355.463 219.264L348.827 223.298L336.712 216.653L343.359 212.63L355.463 219.264Z" fill="white"/>
</g>
<path d="M349.264 243.435V245.061C348.835 245.075 348.41 244.973 348.034 244.766L304.618 220.951C304.242 220.74 303.928 220.436 303.705 220.067C303.482 219.698 303.359 219.278 303.347 218.848V218.258L349.264 243.435Z" fill="#4CAF4F"/>
<g opacity="0.03">
<path opacity="0.03" d="M349.264 243.435V245.061C348.835 245.075 348.41 244.973 348.034 244.766L304.618 220.951C304.242 220.74 303.928 220.436 303.705 220.067C303.482 219.698 303.359 219.278 303.347 218.848V218.258L349.264 243.435Z" fill="white"/>
</g>
<g opacity="0.2">
<path opacity="0.2" d="M349.264 243.435V245.061C348.835 245.075 348.41 244.973 348.034 244.766L304.618 220.951C304.242 220.74 303.928 220.436 303.705 220.067C303.482 219.698 303.359 219.278 303.347 218.848V218.258L349.264 243.435Z" fill="#103E13"/>
</g>
<path d="M348.583 243.811C348.181 243.979 347.746 244.053 347.311 244.029C346.876 244.004 346.453 243.881 346.072 243.669L302.819 219.955C302.44 219.745 302.113 219.454 301.86 219.103C301.607 218.752 301.434 218.349 301.355 217.923L296.071 190.146C296.056 189.987 296.056 189.827 296.071 189.668C296.061 189.284 296.128 188.902 296.267 188.545C296.407 188.187 296.616 187.861 296.884 187.585L341.784 212.233C342.062 212.383 342.303 212.593 342.49 212.848C342.676 213.103 342.803 213.396 342.861 213.707L348.583 243.811Z" fill="#4CAF4F"/>
<g opacity="0.4">
<path opacity="0.4" d="M348.583 243.811C348.181 243.979 347.746 244.053 347.311 244.029C346.876 244.004 346.453 243.881 346.072 243.669L302.819 219.955C302.44 219.745 302.113 219.454 301.86 219.103C301.607 218.752 301.434 218.349 301.355 217.923L296.071 190.146C296.056 189.987 296.056 189.827 296.071 189.668C296.061 189.284 296.128 188.902 296.267 188.545C296.407 188.187 296.616 187.861 296.884 187.585L341.784 212.233C342.062 212.383 342.303 212.593 342.49 212.848C342.676 213.103 342.803 213.396 342.861 213.707L348.583 243.811Z" fill="white"/>
</g>
<path d="M349.264 243.435L348.979 243.608C348.852 243.685 348.72 243.753 348.583 243.811L342.861 213.747C342.803 213.437 342.676 213.143 342.49 212.888C342.303 212.633 342.062 212.424 341.784 212.274L296.833 187.626C297.003 187.443 297.198 187.286 297.412 187.158L342.465 211.847C342.741 212.002 342.98 212.214 343.166 212.471C343.352 212.727 343.481 213.02 343.542 213.331L349.264 243.435Z" fill="#4CAF4F"/>
<g opacity="0.6">
<path opacity="0.6" d="M349.264 243.435L348.979 243.608C348.852 243.685 348.72 243.753 348.583 243.811L342.861 213.747C342.803 213.437 342.676 213.143 342.49 212.888C342.303 212.633 342.062 212.424 341.784 212.274L296.833 187.626C297.003 187.443 297.198 187.286 297.412 187.158L342.465 211.847C342.741 212.002 342.98 212.214 343.166 212.471C343.352 212.727 343.481 213.02 343.542 213.331L349.264 243.435Z" fill="white"/>
</g>
<path d="M342.444 212.833L343.115 212.427C343.327 212.69 343.474 213 343.542 213.331L349.264 243.435L348.979 243.608C348.852 243.685 348.72 243.753 348.583 243.811L342.861 213.747C342.797 213.414 342.654 213.1 342.444 212.833Z" fill="#4CAF4F"/>
<path opacity="0.5" d="M342.444 212.833L343.115 212.427C343.327 212.69 343.474 213 343.542 213.331L349.264 243.435L348.979 243.608C348.852 243.685 348.72 243.753 348.583 243.811L342.861 213.747C342.797 213.414 342.654 213.1 342.444 212.833Z" fill="white"/>
<path opacity="0.1" d="M342.444 212.833L343.115 212.427C343.327 212.69 343.474 213 343.542 213.331L349.264 243.435L348.979 243.608C348.852 243.685 348.72 243.753 348.583 243.811L342.861 213.747C342.797 213.414 342.654 213.1 342.444 212.833Z" fill="#103E13"/>
<path d="M323.958 218.604C323.235 216.287 321.649 214.337 319.527 213.158C317.443 212.02 316.031 212.589 316.386 214.459C316.742 216.328 318.724 218.746 320.818 219.894C322.911 221.042 324.314 220.463 323.958 218.604Z" fill="#455A64"/>
<path d="M375.616 225.259C373.197 226.955 369.935 225.584 366.724 225.97C363.512 226.356 360.768 227.148 358.187 227.077C355.605 227.006 354.345 227.524 356.154 229.587C357.963 231.649 363.136 230.461 364.539 231.091C364.938 231.324 365.279 231.645 365.536 232.029C365.793 232.414 365.959 232.852 366.022 233.31C366.085 233.768 366.042 234.234 365.898 234.674C365.753 235.113 365.511 235.514 365.189 235.845C363.675 237.603 373.807 234.21 375.159 232.127C376.511 230.044 377.445 225.523 375.616 225.259Z" fill="#E8F5E9"/>
<path d="M142.739 167.255L139.219 168.932L137.153 164.335C133.353 155.857 123.68 152.142 115.55 155.972C107.419 159.802 103.932 169.886 107.732 178.363L109.799 182.96L106.266 184.645C104.923 185.33 103.897 186.504 103.401 187.923C102.906 189.342 102.979 190.897 103.605 192.265L117.015 222.179C117.3 222.859 117.719 223.475 118.247 223.991C118.775 224.507 119.402 224.912 120.09 225.182C120.778 225.451 121.514 225.581 122.253 225.562C122.992 225.544 123.72 225.377 124.393 225.073L160.866 207.683C162.227 206.997 163.268 205.813 163.77 204.378C164.272 202.943 164.195 201.37 163.555 199.989L150.137 170.075C149.847 169.398 149.424 168.786 148.891 168.275C148.359 167.764 147.728 167.365 147.038 167.102C146.347 166.838 145.611 166.716 144.872 166.743C144.134 166.769 143.408 166.944 142.739 167.255ZM114.38 175.172C113.364 172.971 113.243 170.464 114.041 168.177C114.84 165.89 116.497 164.001 118.664 162.905C119.739 162.411 120.904 162.137 122.088 162.1C123.272 162.064 124.452 162.265 125.556 162.693C126.661 163.12 127.668 163.765 128.518 164.588C129.367 165.411 130.042 166.396 130.501 167.484L132.56 172.082L116.439 179.77L114.38 175.172ZM138.55 200.458L141.975 208.095C142.039 208.249 142.041 208.421 141.981 208.576C141.921 208.731 141.804 208.857 141.653 208.928L138.146 210.596C138.006 210.651 137.849 210.65 137.709 210.592C137.57 210.535 137.458 210.426 137.397 210.288L133.954 202.688C132.502 202.758 131.062 202.384 129.828 201.617C128.593 200.85 127.623 199.726 127.048 198.395C126.24 196.641 126.145 194.644 126.782 192.823C127.42 191.002 128.74 189.498 130.467 188.626C131.323 188.232 132.251 188.014 133.194 187.986C134.137 187.957 135.077 188.117 135.957 188.458C136.836 188.798 137.639 189.311 138.316 189.967C138.992 190.622 139.53 191.406 139.896 192.273C140.499 193.623 140.693 195.118 140.456 196.575C140.218 198.033 139.559 199.389 138.559 200.478L138.55 200.458Z" fill="#4CAF4F"/>
<path d="M139.055 168.867C139.066 168.966 132.55 172.203 124.429 176.091C116.309 179.979 109.681 183.113 109.638 183.046C109.595 182.979 116.145 179.717 124.272 175.822C132.398 171.926 139.01 168.779 139.055 168.867Z" fill="#263238"/>
<path d="M147.234 169.332C147.271 169.39 147.304 169.452 147.332 169.515C147.403 169.651 147.486 169.828 147.595 170.045C147.834 170.543 148.164 171.23 148.577 172.088L152.129 179.712C153.615 182.947 155.387 186.781 157.353 191.037C158.294 193.177 159.373 195.396 160.408 197.741C160.956 198.947 161.274 200.245 161.346 201.567C161.357 202.258 161.232 202.943 160.976 203.585C160.698 204.227 160.299 204.809 159.799 205.299C158.786 206.209 157.633 206.953 156.385 207.501L152.866 209.185L146.203 212.363L134.919 217.725L127.294 221.309L125.239 222.235L124.69 222.477C124.632 222.51 124.569 222.534 124.504 222.546C124.504 222.546 124.561 222.541 124.672 222.443L125.203 222.167L127.249 221.15L134.819 217.456L146.073 212.012L152.72 208.814L156.238 207.123C157.451 206.595 158.571 205.874 159.552 204.989C160.016 204.533 160.389 203.993 160.648 203.397C160.889 202.803 161.006 202.166 160.99 201.525C160.923 200.251 160.617 199.001 160.088 197.838C159.07 195.513 158.017 193.27 157.055 191.132C155.116 186.866 153.336 183.018 151.906 179.778C150.477 176.538 149.287 173.938 148.464 172.107C148.069 171.212 147.766 170.514 147.527 170.01L147.297 169.462C147.271 169.421 147.25 169.378 147.234 169.332Z" fill="#263238"/>
<path d="M126.226 161.655C126.226 161.655 125.831 161.509 125.106 161.298C124.074 161.02 123.004 160.918 121.939 160.995C120.359 161.103 118.824 161.558 117.443 162.328C115.766 163.283 114.394 164.69 113.484 166.387C112.566 168.08 112.181 170.009 112.377 171.924C112.556 173.492 112.958 175.027 113.572 176.482C114.075 177.731 114.566 178.717 114.896 179.405C115.085 179.752 115.247 180.112 115.382 180.484C115.145 180.165 114.939 179.825 114.766 179.468C114.401 178.791 113.878 177.83 113.33 176.578C112.666 175.112 112.225 173.556 112.022 171.961C111.796 169.976 112.187 167.97 113.143 166.215C114.085 164.456 115.514 163.004 117.262 162.033C118.687 161.254 120.273 160.813 121.898 160.742C122.988 160.685 124.08 160.827 125.12 161.161C125.399 161.256 125.67 161.371 125.931 161.506C126.037 161.54 126.136 161.59 126.226 161.655Z" fill="#263238"/>
<path d="M129.44 189.271C129.546 189.191 129.658 189.119 129.776 189.057C130.114 188.861 130.469 188.693 130.835 188.555C131.415 188.318 132.021 188.15 132.641 188.055C133.484 187.923 134.345 187.963 135.172 188.174C137.055 188.624 138.916 190.297 139.997 192.68C140.531 193.963 140.678 195.373 140.422 196.738C140.134 198.22 139.487 199.609 138.535 200.783L138.558 200.588C139.772 203.071 141.094 205.765 142.464 208.575L142.546 208.746L142.375 208.827L140.806 209.532L137.381 211.077L137.209 211.152L137.134 210.981C135.855 208.154 134.505 205.535 133.423 202.938L133.592 203.042C132.192 203.07 130.815 202.687 129.631 201.941C128.562 201.284 127.65 200.402 126.958 199.358C126.335 198.433 125.962 197.364 125.873 196.254C125.787 195.119 125.955 193.98 126.363 192.917C126.772 191.855 127.411 190.896 128.236 190.109C128.574 189.772 128.963 189.491 129.39 189.276C129.014 189.554 128.652 189.851 128.306 190.166C127.408 191.098 126.764 192.244 126.438 193.495C126.145 194.443 126.066 195.444 126.207 196.427C126.348 197.409 126.706 198.348 127.255 199.177C127.933 200.181 128.822 201.026 129.86 201.653C130.988 202.362 132.301 202.724 133.634 202.695L133.755 202.682L133.802 202.785C134.857 205.334 136.217 207.974 137.511 210.814L137.265 210.725L140.69 209.179L142.252 208.469L142.163 208.721C140.8 205.91 139.485 203.208 138.278 200.724L138.267 200.618L138.343 200.524C139.268 199.397 139.906 198.065 140.204 196.639C140.447 195.334 140.306 193.986 139.798 192.758C138.775 190.462 136.99 188.823 135.192 188.365C134.394 188.149 133.561 188.096 132.743 188.209C132.132 188.286 131.531 188.432 130.952 188.644C129.922 189.014 129.45 189.305 129.44 189.271Z" fill="#263238"/>
<path d="M14.0951 188.126C2.26302 180.572 -0.417379 166.549 0.049776 153.94C0.126359 151.839 -0.126355 149.613 0.968779 147.772C2.06391 145.93 4.62177 144.663 6.68185 145.545C8.38965 146.28 9.13251 148.101 10.0898 149.606C11.3671 151.611 13.2389 153.244 15.4889 154.318C16.9516 155.018 18.7666 155.438 20.2141 154.71C22.2052 153.709 22.4349 151.209 22.4196 149.109C22.4196 145.202 22.3941 141.3 22.3431 137.403C22.2054 135.31 22.4382 133.211 23.0323 131.186C23.7445 129.198 25.3298 127.356 27.4971 126.796C29.6644 126.236 32.3677 127.391 32.8579 129.436C32.9422 130.301 32.9652 131.171 32.9268 132.04C32.988 132.915 33.4322 133.874 34.3283 134.14C35.2243 134.406 36.1586 133.797 36.8478 133.181C39.2066 131.081 40.8148 128.343 42.3082 125.641C43.8015 122.938 45.2643 120.159 47.4086 117.856C49.5529 115.552 52.5167 113.725 55.8327 113.55C59.1487 113.375 62.6026 115.237 63.4297 118.178C64.2568 121.118 62.3806 124.122 60.3664 126.509C57.3271 130.053 53.7444 133.177 49.7291 135.786C48.9453 136.177 48.3197 136.788 47.9447 137.529C47.4469 138.929 48.8943 140.329 50.403 140.77C52.1108 141.288 53.9641 141.127 55.7638 141.323C57.5635 141.52 59.4781 142.234 60.1596 143.774C61.0939 145.916 59.1334 148.157 57.2112 149.627C53.3514 152.567 48.9686 154.881 44.2534 156.467C42.5686 157.027 40.7995 157.524 39.4363 158.602C38.0731 159.681 37.2614 161.564 38.0808 163.041C38.9002 164.518 41.0063 164.987 42.7753 164.686C44.5444 164.385 46.1144 163.517 47.7992 162.936C50.9467 161.851 55.0056 162.047 56.9891 164.532C57.6036 165.388 57.9926 166.363 58.1255 167.38C58.2583 168.397 58.1315 169.428 57.7549 170.392C56.9885 172.312 55.8088 174.071 54.2857 175.566C49.2699 181.045 42.7527 185.208 35.4004 187.629C28.1021 189.94 21.3398 190.57 14.0874 188.14" fill="#4CAF4F"/>
<path d="M60.06 115.279C60.06 115.279 59.991 115.349 59.8379 115.475L59.1563 116.028C58.5589 116.518 57.6782 117.233 56.5678 118.178C53.4194 120.85 50.4958 123.736 47.822 126.81C46.1142 128.75 44.3451 130.948 42.4612 133.335C40.5773 135.723 38.6321 138.299 36.7022 141.037C34.6447 143.923 32.7605 146.91 31.058 149.984C30.1697 151.587 29.3885 153.261 28.5844 154.969L26.2103 160.185C23.081 166.755 20.3555 173.479 18.0466 180.327C16.1868 185.93 14.9048 191.68 14.2175 197.501C13.7721 201.429 13.7003 205.386 14.003 209.326C14.1256 210.726 14.2404 211.797 14.3477 212.525C14.3936 212.875 14.4242 213.155 14.4549 213.358V213.645C14.4219 213.554 14.3988 213.461 14.3859 213.365C14.3476 213.162 14.3017 212.889 14.2404 212.539C14.1026 211.839 13.9571 210.733 13.8192 209.333C13.4497 205.386 13.4754 201.416 13.8958 197.473C14.5405 191.627 15.7945 185.85 17.6407 180.222C19.9302 173.355 22.6482 166.613 25.7815 160.031L28.2168 154.836C29.0209 153.135 29.8097 151.447 30.7057 149.837C32.42 146.754 34.3196 143.76 36.3958 140.868C38.3564 138.068 40.3322 135.534 42.1932 133.167C44.0541 130.801 45.8538 128.588 47.554 126.656C50.255 123.59 53.2178 120.725 56.4146 118.087C57.548 117.156 58.4517 116.455 59.0644 115.986L59.7766 115.461C59.8639 115.392 59.9589 115.331 60.06 115.279Z" fill="#263238"/>
<path d="M30.8052 149.823C30.6972 149.535 30.6227 149.237 30.5831 148.934C30.4606 148.353 30.3227 147.534 30.1619 146.469C29.8326 144.369 29.4956 141.492 29.1357 138.306C28.7757 135.121 28.3699 132.236 28.0329 130.157C27.8568 129.121 27.7036 128.288 27.5964 127.706C27.5127 127.409 27.469 127.103 27.4662 126.796C27.5981 127.077 27.6932 127.371 27.7495 127.671C27.918 128.246 28.1095 129.072 28.3239 130.115C28.7604 132.215 29.1893 135.072 29.5492 138.264C29.9092 141.457 30.2155 144.257 30.4529 146.434C30.5678 147.415 30.6673 148.248 30.7439 148.913C30.8034 149.213 30.824 149.519 30.8052 149.823Z" fill="#263238"/>
<path d="M60.2742 144.796C59.9015 144.87 59.5221 144.913 59.1408 144.922C58.3749 144.985 57.2875 145.069 55.9396 145.209C53.2439 145.475 49.5373 145.965 45.4707 146.665C41.4042 147.366 37.7512 148.157 35.1244 148.766C33.8148 149.074 32.758 149.354 32.0611 149.543C31.689 149.664 31.3039 149.748 30.9124 149.795C31.2663 149.632 31.6353 149.499 32.0151 149.396C32.735 149.165 33.7765 148.843 35.0784 148.5C37.6899 147.8 41.3429 146.967 45.4248 146.252C48.8825 145.648 52.3715 145.204 55.8783 144.922C57.2339 144.817 58.329 144.775 59.0948 144.761C59.4882 144.737 59.8834 144.748 60.2742 144.796Z" fill="#263238"/>
<path d="M18.0159 179.732C17.9343 179.63 17.8673 179.52 17.8168 179.403L17.3114 178.43C16.8748 177.582 16.2851 176.329 15.5806 174.796C14.1561 171.715 12.3411 167.403 10.4112 162.614C8.48135 157.825 6.70462 153.512 5.35676 150.397C4.69815 148.885 4.15443 147.645 3.74854 146.721L3.31966 145.72C3.26021 145.605 3.21898 145.482 3.19714 145.356C3.27879 145.457 3.34571 145.568 3.39624 145.685L3.90169 146.658C4.33056 147.505 4.92791 148.759 5.63247 150.292C7.05691 153.372 8.87193 157.685 10.8018 162.474C12.7317 167.263 14.5084 171.575 15.8563 174.691C16.5149 176.203 17.0586 177.442 17.4569 178.367C17.633 178.766 17.7785 179.067 17.8934 179.368C17.9528 179.483 17.9941 179.606 18.0159 179.732Z" fill="#263238"/>
<path d="M57.1345 168.201C57.0118 168.265 56.8805 168.315 56.7439 168.348L55.6105 168.698L51.4214 169.937C47.8833 170.988 42.9973 172.486 37.6365 174.138C32.2757 175.79 27.3667 177.261 23.8056 178.241C22.0289 178.738 20.5815 179.116 19.5782 179.368L18.4218 179.641C18.2874 179.68 18.1488 179.706 18.0083 179.718C18.1309 179.654 18.2622 179.604 18.3989 179.571L19.5323 179.221L23.7214 177.982C27.2595 176.931 32.1455 175.433 37.5063 173.781C42.8671 172.129 47.7684 170.658 51.3295 169.678C53.1139 169.181 54.5536 168.803 55.5645 168.551L56.7209 168.278C56.8554 168.239 56.994 168.213 57.1345 168.201Z" fill="#263238"/>
</svg>
