<?xml version="1.0" standalone="no"?>
<!DOCTYPE svg PUBLIC "-//W3C//DTD SVG 20010904//EN"
 "http://www.w3.org/TR/2001/REC-SVG-20010904/DTD/svg10.dtd">
<svg version="1.0" xmlns="http://www.w3.org/2000/svg"
 width="1024.000000pt" height="1024.000000pt" viewBox="0 0 1024.000000 1024.000000"
 preserveAspectRatio="xMidYMid meet">

<g transform="translate(0.000000,1024.000000) scale(0.100000,-0.100000)"
fill="#000000" stroke="none">
<path d="M4695 10226 c-59 -38 -197 -116 -205 -116 -6 0 -10 -4 -10 -10 0 -5
-9 -10 -20 -10 -11 0 -20 -3 -20 -8 0 -4 -15 -13 -32 -21 -18 -8 -41 -21 -50
-29 -10 -8 -44 -29 -76 -46 -33 -17 -104 -54 -158 -83 -55 -29 -110 -59 -124
-66 -28 -16 -205 -106 -295 -150 -33 -16 -67 -33 -75 -38 -20 -11 -116 -58
-220 -107 -47 -22 -132 -62 -190 -90 -128 -61 -197 -92 -205 -92 -3 0 -28 -11
-57 -25 -28 -14 -58 -25 -65 -25 -7 0 -13 -3 -13 -7 0 -9 -49 -33 -67 -33 -7
0 -28 -9 -48 -20 -20 -11 -42 -20 -50 -20 -9 0 -23 -4 -33 -10 -15 -8 -129
-51 -272 -103 -30 -11 -59 -23 -64 -28 -6 -5 -20 -9 -32 -9 -13 0 -26 -4 -29
-10 -3 -5 -17 -10 -30 -10 -13 0 -26 -4 -29 -9 -3 -4 -23 -11 -43 -15 -21 -3
-51 -13 -67 -21 -15 -8 -37 -15 -47 -15 -10 0 -21 -4 -24 -10 -3 -5 -17 -10
-30 -10 -13 0 -27 -4 -30 -10 -3 -5 -16 -10 -28 -10 -24 0 -93 -22 -103 -33
-4 -4 -16 -7 -27 -7 -22 0 -81 -17 -109 -31 -10 -5 -31 -9 -47 -9 -17 0 -33
-4 -36 -10 -3 -5 -16 -10 -29 -10 -12 0 -26 -4 -32 -9 -5 -5 -27 -11 -49 -14
-22 -2 -89 -17 -150 -31 -198 -47 -435 -98 -540 -115 -27 -5 -93 -16 -145 -25
-52 -9 -128 -22 -169 -28 -57 -10 -80 -19 -101 -39 -29 -30 -31 -39 -51 -319
-49 -678 -54 -809 -54 -1375 0 -635 11 -818 76 -1317 6 -46 13 -105 15 -133 3
-27 9 -59 14 -70 5 -11 11 -40 14 -65 3 -25 10 -70 16 -100 24 -120 29 -147
39 -185 5 -22 16 -71 25 -110 12 -62 50 -203 76 -290 5 -16 23 -77 41 -135 17
-58 35 -113 40 -122 5 -10 9 -27 9 -37 0 -11 5 -23 10 -26 6 -3 10 -15 10 -26
0 -10 4 -27 9 -37 5 -9 21 -48 36 -87 15 -38 33 -83 40 -100 7 -16 18 -46 25
-65 7 -19 34 -81 61 -137 27 -57 49 -105 49 -108 0 -12 96 -211 130 -270 13
-22 40 -71 60 -110 20 -38 46 -86 57 -105 11 -19 31 -53 43 -75 28 -50 55 -93
106 -170 21 -33 45 -72 53 -88 8 -15 18 -27 23 -27 4 0 8 -6 8 -13 0 -8 9 -22
20 -32 11 -10 20 -23 20 -30 0 -7 9 -20 20 -30 11 -10 20 -22 20 -27 0 -5 22
-38 50 -73 27 -35 50 -67 50 -71 0 -3 12 -21 27 -39 16 -17 55 -67 88 -110 33
-43 85 -108 115 -144 31 -36 77 -93 104 -126 71 -87 284 -321 411 -450 179
-182 489 -457 585 -520 19 -12 44 -32 54 -44 11 -11 23 -21 28 -21 5 0 38 -23
73 -50 35 -28 67 -50 70 -50 3 0 35 -23 70 -50 35 -28 69 -50 75 -50 5 0 10
-4 10 -8 0 -4 28 -25 63 -45 86 -52 96 -59 142 -88 22 -14 57 -33 77 -42 20
-10 40 -22 43 -27 3 -5 23 -17 43 -27 20 -9 49 -25 64 -35 28 -19 210 -115
323 -170 248 -121 413 -201 430 -208 11 -4 40 -17 65 -28 103 -46 140 -62 145
-62 3 0 39 -16 81 -35 41 -19 86 -38 100 -41 13 -3 27 -10 30 -15 7 -12 114
-11 114 1 0 6 7 10 15 10 9 0 35 9 57 20 23 11 45 20 50 20 4 0 32 11 62 25
30 14 57 25 60 25 3 0 57 25 118 55 62 30 117 55 122 55 5 0 75 32 155 71 282
136 408 201 460 239 16 11 33 20 38 20 6 0 38 18 72 40 34 22 64 40 67 40 4 0
26 14 51 30 24 17 46 30 49 30 7 0 268 171 349 227 33 24 87 62 120 85 65 46
151 113 203 159 18 16 36 29 41 29 5 0 15 8 22 17 8 9 32 29 54 45 22 16 69
57 105 92 36 34 76 69 88 78 41 28 512 500 512 513 0 3 25 32 56 65 31 32 64
69 72 82 9 13 25 32 35 43 11 11 50 61 87 110 37 50 75 97 84 104 9 7 16 18
16 24 0 5 8 17 18 26 10 9 29 32 42 51 13 19 40 55 60 80 19 25 40 52 45 61
22 36 96 146 122 183 15 22 37 55 48 75 11 20 42 69 68 109 26 40 47 76 47 79
0 4 6 14 14 22 8 9 37 59 64 112 28 53 67 125 89 160 35 59 57 102 127 249 14
30 33 66 41 80 24 41 75 153 75 165 0 6 11 35 25 63 14 29 25 54 25 58 0 3 11
30 25 60 14 30 45 116 71 192 25 75 49 146 53 157 20 50 51 155 51 173 0 12 5
24 10 27 6 3 10 21 10 40 0 19 4 36 9 39 5 3 11 18 14 33 3 16 11 47 16 71 20
78 29 116 50 217 23 110 66 352 76 430 3 28 10 79 16 115 12 82 19 162 25 270
3 47 9 94 14 105 5 11 11 84 13 163 3 88 9 148 16 155 16 16 16 1217 0 1267
-6 19 -16 134 -21 255 -5 121 -13 285 -17 365 -4 80 -10 191 -13 248 -5 100
-5 103 -38 137 -19 19 -43 35 -55 35 -12 0 -25 4 -30 9 -6 5 -39 12 -75 14
-83 7 -220 29 -370 60 -41 9 -111 23 -155 31 -44 9 -109 22 -145 30 -36 8
-101 22 -145 31 -107 22 -196 45 -331 86 -17 5 -38 9 -47 9 -10 0 -25 4 -35 9
-9 5 -51 19 -92 30 -41 12 -89 26 -106 31 -17 6 -40 10 -51 10 -12 0 -23 3
-25 8 -1 4 -48 22 -103 40 -126 42 -264 91 -290 102 -11 5 -38 16 -60 24 -156
56 -174 62 -290 112 -16 7 -55 22 -85 34 -72 28 -104 42 -235 105 -60 29 -121
56 -135 60 -28 9 -762 376 -770 385 -3 3 -47 27 -98 54 -51 26 -129 69 -173
97 -44 27 -85 49 -90 49 -6 0 -29 13 -52 28 -23 15 -55 34 -72 42 -16 8 -49
27 -71 43 -23 15 -44 27 -48 27 -3 0 -22 11 -42 25 l-37 25 -246 -1 c-184 0
-251 -3 -266 -13z m305 -546 c0 -5 9 -10 20 -10 11 0 20 -4 20 -8 0 -5 21 -20
48 -33 26 -13 56 -32 66 -41 11 -10 24 -18 29 -18 5 0 21 -8 35 -18 15 -11 52
-32 82 -49 30 -17 73 -40 95 -53 22 -13 90 -48 150 -79 61 -31 121 -64 135
-74 13 -9 31 -17 39 -17 8 0 22 -7 30 -14 14 -13 426 -220 516 -261 17 -7 59
-27 94 -44 35 -17 70 -31 78 -31 8 0 26 -9 40 -20 14 -11 31 -20 37 -20 6 0
47 -18 91 -40 44 -22 85 -40 92 -40 6 0 31 -10 55 -21 103 -51 120 -59 129
-59 5 0 28 -9 52 -19 23 -11 76 -32 117 -47 152 -54 186 -68 218 -86 18 -10
41 -18 52 -18 10 0 22 -4 25 -10 3 -5 17 -10 30 -10 13 0 27 -4 30 -10 3 -5
17 -10 30 -10 13 0 26 -4 29 -8 3 -4 28 -14 56 -22 28 -8 53 -18 56 -22 3 -4
16 -8 29 -8 13 0 27 -4 30 -10 3 -5 15 -10 26 -10 10 0 27 -4 37 -9 9 -5 51
-19 92 -31 41 -12 89 -25 105 -30 17 -5 66 -19 110 -30 44 -12 114 -31 155
-42 41 -11 95 -24 120 -29 25 -4 64 -13 88 -18 23 -6 61 -16 85 -22 68 -17
139 -30 192 -36 28 -2 54 -9 60 -14 5 -5 27 -9 50 -9 23 0 45 -4 50 -9 6 -5
33 -11 60 -14 28 -3 68 -9 90 -14 l40 -8 6 -96 c3 -52 8 -99 11 -104 31 -54
29 -1919 -2 -1960 -5 -5 -11 -48 -14 -95 -8 -123 -27 -260 -56 -410 -5 -30
-13 -75 -16 -100 -3 -25 -9 -54 -14 -65 -5 -11 -11 -36 -15 -55 -14 -85 -24
-129 -39 -183 -9 -32 -16 -67 -16 -78 0 -10 -4 -27 -9 -37 -5 -9 -14 -37 -21
-62 -45 -171 -172 -554 -191 -574 -5 -6 -9 -16 -9 -23 0 -14 -17 -54 -81 -191
-22 -45 -39 -88 -39 -95 0 -6 -9 -23 -20 -37 -11 -14 -20 -32 -21 -40 0 -8
-14 -37 -29 -65 -16 -27 -52 -93 -79 -145 -64 -119 -93 -169 -142 -241 -21
-32 -39 -61 -39 -64 0 -3 -28 -47 -62 -97 -35 -50 -68 -99 -74 -109 -6 -10
-18 -27 -27 -37 -10 -10 -17 -23 -17 -29 0 -5 -9 -18 -20 -28 -11 -10 -20 -23
-20 -30 0 -6 -16 -26 -35 -45 -19 -19 -35 -39 -35 -45 0 -7 -9 -20 -20 -30
-11 -10 -20 -23 -20 -30 0 -6 -13 -24 -30 -40 -16 -16 -30 -32 -30 -37 0 -4
-18 -27 -40 -50 -22 -24 -40 -47 -40 -51 0 -5 -19 -29 -42 -53 -24 -25 -47
-54 -53 -64 -5 -10 -38 -48 -72 -83 -35 -36 -63 -68 -63 -72 0 -11 -476 -485
-487 -485 -5 0 -35 -27 -68 -60 -33 -33 -64 -60 -70 -60 -7 0 -22 -12 -36 -26
-22 -24 -88 -77 -159 -129 -15 -11 -74 -55 -129 -97 -56 -43 -105 -78 -108
-78 -4 0 -15 -7 -25 -17 -10 -9 -27 -21 -37 -27 -10 -6 -43 -27 -72 -47 -30
-20 -99 -63 -154 -97 -55 -34 -105 -66 -112 -72 -7 -5 -15 -10 -19 -10 -3 0
-25 -12 -48 -27 -22 -16 -53 -34 -68 -42 -16 -8 -28 -18 -28 -23 0 -4 -9 -8
-19 -8 -11 0 -21 -4 -23 -8 -4 -11 -549 -282 -565 -282 -7 0 -13 -4 -13 -10 0
-5 -7 -10 -15 -10 -8 0 -52 -18 -97 -40 -46 -22 -90 -40 -98 -40 -9 0 -21 -5
-28 -12 -9 -9 -17 -9 -37 0 -25 12 -54 24 -97 41 -13 4 -43 18 -66 30 -24 11
-48 21 -53 21 -21 0 -505 236 -514 250 -3 5 -61 36 -130 70 -69 34 -127 66
-131 71 -3 5 -25 18 -49 29 -24 11 -46 24 -50 29 -3 5 -31 22 -63 37 -31 16
-59 31 -62 34 -8 9 -149 100 -155 100 -3 0 -15 9 -27 20 -12 11 -28 20 -35 20
-7 0 -13 3 -13 8 0 4 -18 18 -40 32 -22 14 -40 28 -40 32 0 5 -5 8 -11 8 -6 0
-28 15 -49 33 -20 17 -58 48 -84 67 -27 19 -67 51 -89 71 -23 20 -47 38 -54
40 -7 2 -48 39 -91 82 -44 42 -83 77 -88 77 -13 0 -504 493 -504 505 0 6 -31
42 -70 80 -38 38 -70 74 -70 80 0 6 -23 33 -50 60 -27 27 -50 53 -50 58 0 5
-15 27 -32 48 -18 22 -48 56 -66 78 -17 21 -32 42 -32 45 0 9 -82 110 -92 114
-5 2 -8 9 -8 16 0 7 -8 21 -17 32 -10 10 -24 31 -32 46 -8 16 -18 28 -23 28
-4 0 -8 6 -8 13 0 8 -9 22 -20 32 -11 10 -20 23 -20 30 0 7 -9 20 -20 30 -11
10 -20 23 -20 30 0 7 -9 20 -20 30 -11 10 -20 22 -20 27 0 5 -20 39 -44 76
-24 37 -63 103 -86 147 -24 44 -57 105 -73 135 -52 95 -187 369 -187 380 0 6
-16 48 -36 93 -20 45 -40 92 -45 105 -5 12 -13 32 -18 45 -5 12 -14 38 -21 57
-15 42 -29 79 -41 102 -5 10 -9 27 -9 37 0 11 -4 23 -10 26 -5 3 -10 14 -10
23 0 20 -38 150 -51 174 -5 10 -9 25 -9 34 0 9 -9 44 -19 78 -11 33 -25 81
-31 106 -6 25 -16 59 -21 76 -5 17 -9 43 -9 57 0 15 -4 35 -9 45 -5 9 -17 62
-26 117 -9 55 -23 136 -31 180 -41 229 -66 427 -85 680 -16 217 -23 1134 -10
1380 16 301 38 603 46 615 3 5 16 10 29 10 12 0 26 4 31 9 6 5 33 12 60 14 28
3 75 11 105 17 30 6 71 13 90 16 19 3 44 9 55 14 11 5 38 11 60 15 22 3 57 8
78 11 20 4 40 10 43 15 3 5 20 9 38 9 17 0 36 4 41 9 6 5 28 11 50 14 51 5
233 50 315 77 14 5 72 23 130 41 58 18 109 36 114 41 6 4 20 8 32 8 13 0 26 5
29 10 3 6 16 10 27 10 23 0 81 17 110 31 10 5 23 9 28 9 6 0 30 9 52 20 23 11
50 20 59 20 10 0 21 5 24 10 3 6 16 10 29 10 12 0 26 4 32 8 5 5 29 15 54 22
25 8 63 21 85 31 22 9 65 26 95 37 64 24 192 77 234 98 16 8 33 14 38 14 14 0
195 82 441 199 71 34 132 61 136 61 24 0 559 274 876 449 182 100 228 126 263
149 57 38 109 60 140 61 17 1 32 -3 32 -9z"/>
<path d="M4874 9029 c-43 -23 -86 -47 -94 -54 -15 -12 -537 -271 -615 -305
-22 -9 -60 -26 -85 -38 -25 -11 -60 -25 -77 -32 -18 -7 -33 -16 -33 -21 0 -5
-9 -9 -20 -9 -11 0 -35 -9 -55 -20 -20 -11 -42 -20 -49 -20 -8 0 -31 -9 -53
-19 -21 -11 -93 -43 -160 -72 -68 -28 -123 -54 -123 -56 0 -13 93 -182 110
-201 11 -12 20 -24 20 -27 0 -3 32 -53 70 -110 39 -57 70 -111 70 -119 0 -8
-17 -28 -38 -43 -83 -61 -219 -171 -295 -240 -81 -74 -107 -87 -107 -54 0 15
-104 144 -177 219 -13 13 -23 26 -23 31 0 4 -20 29 -45 54 -25 26 -45 51 -45
55 0 4 -27 36 -60 71 -33 35 -60 68 -60 73 0 20 -73 4 -209 -45 -80 -29 -220
-77 -311 -106 -91 -30 -172 -56 -180 -59 -23 -8 -140 -42 -180 -52 -19 -5 -53
-14 -75 -20 -22 -6 -56 -15 -75 -20 -19 -5 -53 -14 -75 -20 -22 -6 -53 -14
-70 -16 -16 -3 -66 -14 -110 -24 -44 -10 -106 -22 -138 -25 -44 -5 -61 -12
-71 -28 -30 -48 -43 -1166 -18 -1497 20 -259 28 -324 61 -550 14 -98 54 -292
82 -402 22 -91 30 -120 38 -155 9 -42 105 -335 121 -370 12 -28 30 -71 40 -98
5 -11 15 -36 24 -57 9 -20 16 -39 16 -43 0 -4 54 -117 121 -251 76 -154 130
-251 146 -264 22 -17 35 -20 72 -15 45 7 164 38 209 56 13 5 34 9 47 9 13 0
26 4 29 9 5 8 43 17 101 24 22 2 26 -11 65 -269 28 -178 27 -183 -28 -200 -62
-18 -104 -40 -128 -66 -101 -109 -68 -326 61 -410 48 -31 55 -33 163 -37 l113
-3 17 -39 c9 -21 20 -39 24 -39 5 0 8 -9 8 -19 0 -11 3 -21 8 -23 4 -1 18 -24
31 -51 13 -26 28 -47 33 -47 4 0 8 -6 8 -14 0 -7 12 -26 28 -42 15 -16 33 -42
41 -57 8 -15 18 -27 23 -27 4 0 8 -6 8 -13 0 -7 23 -35 50 -62 28 -27 50 -54
50 -61 0 -14 310 -324 325 -324 6 0 33 -23 60 -50 27 -28 53 -50 57 -50 4 0
27 -18 50 -40 24 -22 49 -40 55 -40 7 0 13 -4 13 -8 0 -5 12 -15 27 -23 16 -8
39 -24 53 -36 14 -13 28 -23 32 -23 3 0 13 -6 20 -12 22 -22 157 -108 168
-108 5 0 10 -4 10 -10 0 -5 5 -10 10 -10 6 0 44 -22 85 -50 41 -27 77 -50 81
-50 3 0 19 -9 35 -20 38 -27 112 -68 236 -130 56 -28 105 -55 108 -59 2 -5 85
-48 182 -96 98 -48 186 -91 195 -96 45 -23 93 -10 249 69 85 43 174 90 199
105 25 15 90 50 145 78 55 29 102 55 105 58 3 4 31 19 63 35 31 15 63 33 70
40 6 6 29 20 49 29 20 10 40 22 43 27 3 6 25 19 49 30 23 10 49 26 56 35 7 8
17 15 22 15 6 0 30 14 55 30 24 17 48 30 52 30 4 0 16 9 26 20 10 11 22 20 27
20 6 0 37 20 69 45 33 25 61 45 64 45 15 0 295 228 375 305 166 160 380 404
380 434 0 4 9 16 20 26 11 10 20 24 20 30 0 7 7 18 15 25 8 7 33 49 55 95 22
46 46 87 53 93 6 5 55 12 107 14 76 4 103 10 135 29 54 32 125 107 125 134 0
11 5 26 11 31 5 6 10 49 10 96 0 91 -17 140 -56 162 -11 6 -27 19 -36 29 -9 9
-24 17 -33 17 -9 0 -16 5 -16 10 0 6 -18 10 -40 10 -44 0 -65 23 -49 52 5 9
12 38 15 65 3 26 10 77 15 113 6 36 13 104 17 152 8 96 20 120 52 100 11 -6
32 -12 48 -12 15 0 32 -4 38 -9 5 -5 27 -11 49 -14 51 -7 95 -16 120 -26 40
-16 116 -31 159 -31 43 0 44 1 70 53 14 28 33 66 43 82 9 17 20 39 26 49 62
125 81 163 116 239 23 48 41 94 41 102 0 7 5 17 10 20 6 3 10 15 10 25 0 11 8
34 18 52 10 18 29 65 42 103 13 39 27 74 32 80 4 5 8 19 8 31 0 13 5 26 10 29
6 3 10 17 10 30 0 13 4 26 9 29 5 3 11 18 14 33 5 26 14 58 37 138 19 66 51
193 60 235 4 25 15 74 23 110 8 36 18 88 22 115 4 28 10 61 12 75 4 24 11 73
33 235 51 366 69 1003 41 1500 -7 138 -14 265 -15 284 -1 40 -12 45 -117 60
-41 5 -94 15 -119 20 -25 6 -65 15 -90 21 -25 5 -63 14 -85 19 -108 27 -132
33 -163 38 -18 3 -35 9 -38 14 -3 5 -18 9 -35 9 -16 0 -37 4 -47 9 -26 13 -86
31 -105 31 -10 0 -25 4 -35 9 -9 5 -37 15 -62 21 -25 7 -54 16 -65 21 -11 5
-65 24 -120 43 -118 41 -306 109 -353 128 -41 16 -51 10 -121 -73 -29 -35 -79
-95 -112 -134 -32 -38 -80 -96 -106 -128 -26 -32 -67 -81 -90 -108 -24 -27
-43 -56 -43 -64 0 -30 -34 -13 -104 51 -39 37 -93 84 -121 104 -27 21 -61 49
-74 64 -14 14 -28 26 -32 26 -13 0 -117 81 -123 95 -3 8 6 29 19 47 23 31 108
160 158 237 12 19 27 42 32 50 6 9 23 35 38 59 15 23 26 46 23 50 -7 11 -159
82 -176 82 -5 0 -49 18 -97 41 -49 23 -106 49 -128 59 -22 10 -79 36 -128 59
-48 23 -90 41 -94 41 -7 0 -377 180 -418 202 -11 6 -56 30 -100 53 -121 63
-217 116 -245 135 -49 34 -72 32 -156 -11z m299 -1358 c23 -5 74 -14 112 -21
209 -34 492 -167 686 -320 77 -61 243 -232 307 -317 81 -108 130 -189 179
-298 49 -109 50 -111 74 -203 40 -151 49 -224 49 -405 l0 -178 -292 3 -293 3
-7 155 c-7 179 -17 268 -29 276 -5 3 -9 16 -9 29 0 13 -4 27 -10 30 -5 3 -10
14 -10 24 0 25 -59 144 -108 216 -63 96 -180 208 -288 278 -102 65 -183 107
-208 107 -8 0 -18 5 -21 10 -3 6 -16 10 -29 10 -12 0 -26 4 -31 9 -18 16 -97
23 -265 24 -180 1 -220 -4 -325 -38 -199 -66 -376 -188 -504 -349 -55 -68
-129 -206 -150 -276 -7 -25 -17 -56 -21 -70 -14 -42 -22 -118 -28 -280 l-7
-155 -290 0 -290 0 1 195 c1 181 6 230 34 350 6 25 14 57 17 73 3 15 9 30 14
33 5 3 9 14 9 25 0 10 4 27 9 37 5 9 17 35 26 57 17 40 47 102 78 160 42 78
179 256 256 332 126 125 292 244 442 319 159 79 274 117 464 152 66 13 405 15
458 3z m-1853 -113 c0 -7 -20 -33 -45 -58 -24 -25 -44 -50 -45 -56 0 -5 -13
-23 -30 -39 -16 -16 -30 -34 -30 -40 0 -6 -13 -24 -30 -40 -16 -16 -30 -33
-30 -39 0 -5 -7 -18 -17 -28 -21 -23 -28 -36 -108 -198 -36 -74 -70 -143 -76
-152 -5 -10 -9 -24 -9 -31 0 -7 -9 -32 -20 -55 -11 -22 -20 -51 -21 -64 0 -13
-8 -36 -18 -53 -24 -41 -47 -43 -500 -44 l-374 -1 6 213 c3 116 2 233 -2 259
-7 44 -2 71 13 69 3 0 11 1 18 3 7 2 51 12 98 21 47 9 98 21 114 26 15 5 32 6
38 3 5 -3 14 -1 21 4 7 6 26 12 42 15 17 3 42 10 57 16 15 6 34 8 42 5 8 -3
17 -1 21 5 3 6 19 11 35 11 16 0 32 5 35 10 3 6 21 10 40 10 19 0 37 5 40 10
3 6 17 10 30 10 13 0 27 5 30 10 3 6 21 10 40 10 19 0 37 5 40 10 3 6 19 10
35 10 16 0 45 9 65 20 20 11 49 20 65 20 16 0 31 4 34 9 5 8 55 23 83 25 6 1
15 5 19 9 4 4 18 7 30 7 13 0 26 5 29 10 3 6 17 10 30 10 13 0 27 5 30 10 3 6
21 10 39 10 19 0 39 7 46 15 7 9 15 14 17 11 2 -2 16 2 31 10 33 17 42 18 42
2z m3415 -38 c17 -7 37 -12 46 -11 9 1 21 -5 28 -13 6 -7 20 -12 30 -9 9 2 23
-2 30 -11 7 -8 19 -12 26 -10 7 3 29 -1 47 -9 44 -19 150 -50 261 -78 26 -6
50 -16 53 -20 3 -5 18 -9 34 -9 16 0 44 -8 62 -18 19 -11 56 -20 86 -21 30 -1
72 -10 95 -21 22 -11 55 -20 73 -20 18 0 36 -4 39 -10 3 -5 21 -10 40 -10 19
0 37 -4 40 -10 3 -5 21 -10 40 -10 19 0 36 -4 39 -9 3 -5 25 -12 48 -15 56 -7
91 -12 101 -14 4 -1 6 -120 5 -264 l-3 -263 -135 -3 c-74 -2 -266 0 -426 3
l-290 7 -11 27 c-22 57 -35 109 -29 120 4 6 1 14 -7 16 -7 3 -20 28 -27 55 -8
28 -18 50 -23 50 -5 0 -7 7 -3 15 3 8 -1 18 -7 22 -17 10 -59 102 -54 116 2 6
-5 20 -15 31 -10 11 -18 26 -18 33 0 7 -7 13 -16 13 -11 0 -14 5 -10 16 4 10
-3 23 -19 36 -14 11 -25 25 -25 33 0 7 -7 18 -15 25 -8 7 -15 19 -15 27 0 8
-13 26 -30 40 -16 13 -30 30 -30 37 0 7 -9 21 -20 31 -11 10 -20 24 -20 30 0
7 -9 15 -21 18 -12 3 -18 10 -15 16 4 5 2 12 -3 16 -6 3 -19 18 -30 34 l-20
28 42 -12 c23 -6 56 -18 72 -25z m-1700 -1000 c3 -5 19 -10 35 -10 16 0 32 -5
35 -10 4 -6 11 -8 16 -4 6 3 18 -1 27 -9 19 -16 53 -31 65 -29 14 4 145 -139
152 -166 3 -14 12 -31 19 -36 24 -20 45 -101 52 -198 l7 -98 -471 0 c-311 0
-471 3 -474 10 -5 16 16 198 25 206 4 4 7 16 7 26 0 22 46 112 66 129 8 6 14
17 14 24 0 6 9 20 20 30 11 10 20 14 20 10 0 -5 17 8 39 29 23 22 46 36 57 34
11 -2 19 3 19 11 0 15 119 53 141 44 6 -2 15 0 19 6 8 14 102 14 110 1z
m-2237 -625 c1 -93 7 -174 12 -179 18 -18 12 -91 -10 -111 -11 -10 -20 -23
-20 -30 0 -7 -9 -20 -20 -30 -11 -10 -20 -24 -20 -30 0 -7 -7 -18 -15 -25 -9
-7 -25 -34 -36 -59 -11 -25 -24 -54 -29 -63 -6 -10 -10 -27 -10 -37 0 -11 -4
-22 -9 -25 -5 -3 -12 -18 -15 -33 -4 -16 -12 -46 -17 -68 -17 -65 -30 -146
-36 -215 -2 -36 -9 -69 -14 -75 -5 -5 -9 -54 -10 -110 0 -92 -10 -190 -20
-199 -2 -2 -34 -6 -70 -9 -64 -6 -67 -5 -78 19 -6 14 -11 34 -11 44 0 11 -3
20 -7 20 -9 0 -33 48 -33 66 0 7 -3 14 -7 16 -13 5 -53 88 -53 108 0 11 -4 22
-10 25 -5 3 -10 17 -10 31 0 13 -4 24 -10 24 -5 0 -10 14 -10 30 0 17 -4 30
-10 30 -5 0 -10 13 -10 29 0 17 -4 33 -10 36 -5 3 -10 17 -10 30 0 13 -4 27
-10 30 -5 3 -10 15 -10 26 0 10 -4 27 -10 37 -12 21 -41 128 -45 162 -1 14 -7
36 -12 50 -15 36 -33 116 -33 145 0 13 -4 26 -9 29 -5 4 -12 49 -16 101 -4 52
-11 98 -16 101 -5 3 -9 29 -9 59 0 30 -4 57 -10 60 -5 3 -10 35 -10 69 l0 63
268 7 c147 4 308 11 357 15 50 5 108 8 130 7 l40 -1 3 -170z m4572 159 c8 -3
112 -8 230 -11 118 -2 219 -9 224 -13 4 -5 24 -6 42 -3 43 7 64 -10 64 -52 0
-43 -37 -286 -56 -372 -9 -38 -20 -86 -24 -108 -5 -22 -13 -58 -19 -80 -21
-83 -32 -131 -38 -158 -3 -15 -9 -30 -14 -33 -5 -3 -9 -16 -9 -29 0 -13 -4
-27 -10 -30 -5 -3 -10 -16 -10 -27 0 -28 -22 -88 -32 -88 -4 0 -8 -13 -8 -30
0 -16 -4 -30 -10 -30 -5 0 -10 -11 -10 -24 0 -14 -5 -28 -11 -31 -6 -4 -8 -13
-5 -20 2 -7 -2 -16 -10 -19 -8 -3 -14 -11 -13 -18 4 -21 -12 -66 -26 -78 -8
-6 -12 -17 -9 -24 3 -8 -2 -16 -11 -20 -9 -3 -14 -10 -11 -15 6 -9 -13 -56
-43 -106 -14 -23 -26 -31 -55 -33 -21 -2 -46 0 -55 4 -9 4 -21 6 -27 5 -7 -1
-13 39 -18 111 -7 127 -31 340 -45 408 -16 77 -42 165 -52 174 -5 6 -9 20 -9
33 0 13 -5 23 -11 23 -6 0 -8 8 -4 19 3 12 0 21 -10 25 -8 3 -15 10 -15 16 0
19 -40 100 -50 100 -5 0 -12 10 -15 23 -4 12 -21 37 -38 55 -28 29 -31 38 -29
90 6 137 22 364 27 372 6 9 197 4 225 -6z m-596 -760 c3 -9 6 -43 6 -77 0 -34
4 -105 10 -157 12 -114 40 -690 40 -810 0 -107 -28 -399 -41 -422 -5 -10 -9
-28 -9 -40 -1 -29 -23 -115 -33 -124 -4 -4 -7 -22 -7 -41 0 -18 -4 -33 -10
-33 -5 0 -10 -9 -10 -19 0 -11 -4 -23 -10 -26 -5 -3 -10 -15 -10 -26 0 -10 -4
-27 -9 -37 -41 -81 -71 -147 -71 -158 0 -7 -12 -30 -26 -51 -14 -21 -34 -56
-44 -79 -11 -22 -26 -47 -35 -54 -8 -7 -15 -18 -15 -24 0 -7 -16 -27 -35 -46
-19 -19 -35 -39 -35 -45 0 -6 -27 -37 -60 -70 -33 -33 -60 -63 -60 -67 0 -11
-87 -98 -98 -98 -4 0 -30 -22 -57 -50 -27 -27 -54 -50 -60 -50 -7 0 -22 -12
-36 -26 -13 -14 -42 -34 -64 -44 -22 -10 -51 -30 -64 -44 -14 -14 -28 -26 -33
-26 -5 0 -25 -10 -46 -23 -33 -21 -112 -65 -167 -94 -69 -36 -109 -53 -125
-53 -11 0 -22 -5 -25 -10 -3 -5 -17 -10 -30 -10 -14 0 -29 -8 -34 -19 -6 -10
-26 -21 -46 -25 -19 -3 -51 -9 -70 -12 -19 -3 -38 -10 -41 -16 -4 -6 8 -7 30
-3 29 6 36 4 36 -9 0 -9 -7 -19 -15 -22 -8 -4 -15 -15 -15 -25 0 -14 -7 -19
-28 -19 -29 0 -108 -35 -140 -62 -9 -8 -56 -33 -104 -57 -100 -50 -146 -56
-181 -23 -13 12 -29 22 -35 22 -7 0 -12 5 -12 10 0 6 -9 10 -20 10 -11 0 -20
5 -20 10 0 6 -9 10 -20 10 -11 0 -20 5 -20 10 0 6 -9 10 -20 10 -11 0 -20 5
-20 10 0 6 -9 10 -20 10 -11 0 -20 3 -20 8 0 4 -17 15 -37 24 -21 10 -49 27
-62 38 -21 18 -23 25 -14 40 11 16 7 19 -35 30 -88 23 -112 32 -112 41 0 5 -9
9 -20 9 -11 0 -20 5 -20 10 0 6 -6 10 -12 10 -22 0 -119 43 -203 89 -44 24
-92 50 -106 58 -15 7 -32 20 -39 28 -7 8 -18 15 -24 15 -6 0 -35 18 -64 40
-29 22 -56 40 -61 40 -5 0 -11 3 -13 8 -1 4 -23 23 -48 41 -60 46 -320 303
-320 317 0 6 -9 19 -20 29 -11 10 -20 23 -20 30 0 7 -9 20 -20 30 -11 10 -20
23 -20 30 0 6 -8 20 -18 31 -18 19 -103 189 -140 279 -42 102 -96 311 -124
480 -24 150 -11 859 23 1258 l11 127 1798 0 c1630 0 1798 -1 1804 -16z"/>
<path d="M4890 4751 c-183 -31 -324 -151 -391 -333 -26 -72 -27 -232 0 -311
34 -106 119 -217 210 -277 23 -15 23 -18 13 -70 -6 -30 -20 -86 -31 -125 -11
-38 -38 -137 -60 -219 -22 -82 -47 -172 -55 -200 -8 -28 -17 -63 -21 -78 l-5
-28 426 0 c337 0 425 3 421 13 -2 6 -17 57 -32 112 -15 55 -35 127 -45 160
-22 70 -76 275 -96 358 -11 46 -11 61 -2 77 7 11 16 20 20 20 10 0 123 114
152 154 13 17 34 58 47 91 20 51 24 77 24 170 0 111 -5 134 -49 224 -25 52
-114 154 -127 145 -5 -3 -8 0 -7 6 3 13 -119 81 -177 97 -56 16 -161 23 -215
14z"/>
</g>
</svg>
