<svg width="48" height="32" viewBox="0 0 48 32" fill="none" xmlns="http://www.w3.org/2000/svg">
<path d="M22.7958 21.5471L23.4031 21.0361C25.2081 19.5177 26.5026 17.4809 27.1109 15.2019C27.7193 12.9229 27.6121 10.5119 26.804 8.29591C25.9958 6.07988 24.5258 4.16595 22.5932 2.81361C20.6605 1.46127 18.3588 0.735931 16 0.735931C13.6412 0.735931 11.3394 1.46127 9.40681 2.81361C7.47418 4.16595 6.00414 6.07988 5.19599 8.29591C4.38785 10.5119 4.28068 12.9229 4.88904 15.2019C5.49739 17.4809 6.79183 19.5177 8.59686 21.0361L9.20421 21.5471L8.48113 21.8743C5.50796 23.2197 2.94947 25.3371 1.07166 28.0061L22.7958 21.5471ZM22.7958 21.5471L23.5188 21.8743M22.7958 21.5471L23.5188 21.8743M23.5188 21.8743C26.4921 23.2198 29.0507 25.3373 30.9285 28.0065L30.9357 28.0166L30.9433 28.0264C31.0892 28.2133 31.1956 28.4279 31.256 28.6571C31.3165 28.8864 31.3297 29.1255 31.2949 29.36C31.2601 29.5945 31.178 29.8195 31.0536 30.0214C30.9293 30.2232 30.7652 30.3976 30.5713 30.5341C30.3775 30.6706 30.1579 30.7663 29.926 30.8153C29.694 30.8644 29.4545 30.8658 29.222 30.8195C28.9895 30.7732 28.7688 30.6801 28.5734 30.5459C28.3779 30.4118 28.2118 30.2393 28.085 30.0389L28.0786 30.0288L28.0717 30.019C26.711 28.0809 24.9036 26.4989 22.8024 25.4068C20.7013 24.3147 18.368 23.7446 16 23.7446C13.6319 23.7446 11.2987 24.3147 9.19752 25.4068C7.09634 26.4989 5.289 28.0809 3.92827 30.0189L3.92716 30.0205C3.7672 30.2503 3.55392 30.4378 3.30561 30.567C3.05729 30.6962 2.78135 30.7633 2.50142 30.7625L2.49836 30.7625C2.13935 30.7637 1.78905 30.652 1.49698 30.4432L1.49458 30.4415M23.5188 21.8743L1.49458 30.4415M1.49458 30.4415C1.11601 30.1743 0.85888 29.7678 0.779597 29.3113C0.700338 28.8548 0.805286 28.3856 1.07142 28.0065L1.49458 30.4415ZM45.7901 30.4391L45.7901 30.4391C45.9786 30.3084 46.1393 30.1415 46.2628 29.9481C46.3863 29.7547 46.4701 29.5387 46.5093 29.3126C46.5486 29.0865 46.5425 28.8549 46.4915 28.6312C46.4404 28.4075 46.3454 28.1962 46.212 28.0096L46.2098 28.0065C44.332 25.3373 41.7734 23.2198 38.8001 21.8743L38.075 21.5462L38.6853 21.0353C40.4952 19.5204 41.7942 17.4845 42.4055 15.2049C43.0168 12.9252 42.9107 10.5125 42.1016 8.2953C41.2924 6.07811 39.8197 4.16414 37.8838 2.814C35.9479 1.46386 33.6429 0.743156 31.2827 0.75001L31.2804 0.750016C30.2301 0.748266 29.1846 0.893299 28.1744 1.1809L28.1654 1.18346L28.1654 1.18337C27.941 1.24275 27.7307 1.34618 27.5466 1.48762C27.3626 1.62907 27.2086 1.80571 27.0935 2.00727C26.9783 2.20882 26.9045 2.43126 26.8762 2.66164C26.8478 2.89201 26.8656 3.12572 26.9285 3.34915C26.9914 3.57259 27.0981 3.78128 27.2424 3.96308L26.8639 4.26346L27.2424 3.96308C27.3867 4.14489 27.5657 4.29617 27.769 4.40812C27.9723 4.52008 28.1959 4.59046 28.4267 4.61518C28.6575 4.63991 28.8909 4.61847 29.1133 4.55212L29.1191 4.55041L29.1191 4.55044C29.8225 4.34976 30.5506 4.24864 31.2822 4.25001M45.7901 30.4391L42.9437 30.3063L43.3524 30.0182C43.3523 30.018 43.3521 30.0178 43.352 30.0176C41.9885 28.0834 40.1807 26.5046 38.0805 25.414C35.9801 24.3232 33.6485 23.7526 31.2818 23.75H31.2812C30.8171 23.75 30.372 23.5656 30.0438 23.2374C29.7156 22.9093 29.5312 22.4641 29.5312 22C29.5312 21.5359 29.7156 21.0908 30.0438 20.7626C30.372 20.4344 30.8171 20.25 31.2812 20.25C33.403 20.25 35.4378 19.4072 36.9381 17.9069C38.4384 16.4066 39.2812 14.3717 39.2812 12.25C39.2812 10.1283 38.4384 8.09345 36.9381 6.59316C35.438 5.09309 33.4036 4.25026 31.2822 4.25001M45.7901 30.4391L45.7842 30.4432M45.7901 30.4391L45.7842 30.4432M31.2822 4.25001L31.2812 4.75001V4.25001C31.2815 4.25001 31.2819 4.25001 31.2822 4.25001ZM39.0062 21.4188L39.2124 20.9632C39.2811 20.9944 39.3497 21.0259 39.418 21.0578C39.2838 21.181 39.1465 21.3014 39.0062 21.4188ZM39.0062 21.4188L39.3272 21.8022C39.3862 21.7527 39.4448 21.7028 39.5029 21.6523C39.3386 21.5721 39.1731 21.4943 39.0062 21.4188ZM45.7842 30.4432C45.4923 30.6519 45.1423 30.7636 44.7835 30.7625L45.7842 30.4432ZM9.34823 7.80545C8.46918 9.12104 7.99998 10.6678 7.99998 12.25C7.99998 14.3717 8.84284 16.4066 10.3431 17.9069C11.8434 19.4072 13.8783 20.25 16 20.25C17.5822 20.25 19.129 19.7808 20.4445 18.9018C21.7601 18.0227 22.7855 16.7733 23.391 15.3115C23.9965 13.8497 24.1549 12.2411 23.8463 10.6893C23.5376 9.13744 22.7757 7.71198 21.6568 6.59316C20.538 5.47434 19.1126 4.71241 17.5607 4.40373C16.0089 4.09505 14.4003 4.25347 12.9385 4.85897C11.4767 5.46448 10.2273 6.48986 9.34823 7.80545Z" fill="#4CAF4F" stroke="#4CAF4F"/>
</svg>
