<svg width="394" height="316" viewBox="0 0 394 316" fill="none" xmlns="http://www.w3.org/2000/svg">
<path fill-rule="evenodd" clip-rule="evenodd" d="M226.624 315.705C273.558 315.705 314.745 280.793 291.615 233.373C268.484 185.954 354.429 187.485 379.676 154.712C410.465 114.744 401.548 -54.916 203.895 48.5167C172.233 65.0854 90.919 31.4714 63.9467 48.1501C32.1977 67.7825 -12.4715 107.983 32.1977 149.164C54.2008 169.448 -24.6856 222.097 9.86509 269.257C43.5779 315.274 67.21 271.407 118.537 280.793C169.865 290.178 191.767 315.705 226.624 315.705Z" fill="#4CAF4F"/>
<path d="M172.149 233.209C172.149 233.209 182.956 228.125 186.99 224.589C191.025 221.052 196.04 212.266 196.04 212.266C196.04 212.266 251.135 252.055 287.059 246.379C295.336 245.071 311.464 239.57 312.493 229.876C315.301 203.406 276.444 196.641 284.932 183.218C290.113 175.025 306.208 187.219 306.208 187.219L372.963 220.055C372.963 220.055 349.901 276.903 293.934 279.182C225.088 281.984 172.149 233.209 172.149 233.209Z" fill="white"/>
<path fill-rule="evenodd" clip-rule="evenodd" d="M119.222 10.5754C118.596 10.3294 115.231 6.20936 110.959 5.45949C109.018 5.11874 110.78 7.59049 108.644 7.61273C102.281 7.67897 91.9408 6.48359 90.0253 7.61273C88.6017 8.44925 91.737 11.3716 90.0253 11.5058C73.8761 12.7716 49.2394 28.896 43.8942 36.7187C42.1931 39.2083 55.9511 34.9845 53.759 36.2152C51.2987 37.5966 48.5701 46.6417 46.9386 53.6276C45.8092 58.4383 45.098 64.6294 44.847 71.3643C44.6379 77.1789 44.7215 78.141 45.5582 81.3202C46.5203 84.8759 47.2733 85.9217 48.5701 85.4197C49.0302 85.2524 49.2394 84.6249 49.2394 83.4536C49.2394 82.5333 49.7414 79.7725 50.3688 77.3044L51.4565 72.8702L51.9166 74.7108C52.5022 76.8442 55.9324 83.4536 59.028 88.2643C59.1949 88.5196 59.9132 88.1948 60.561 86.6292C61.1512 85.2025 60.9117 82.9233 61.9144 80.4806C64.1984 74.9163 68.6832 67.6818 73.8761 61.8909C81.5509 53.3323 84.0972 43.4275 91.2914 35.4766C104.717 20.6386 121.568 11.4962 119.222 10.5754Z" fill="white"/>
<path fill-rule="evenodd" clip-rule="evenodd" d="M53.9495 38.2339C51.7958 39.9658 48.5989 54.0133 48.544 54.2481C47.4146 59.0587 46.3259 75.7644 47.4387 78.9272C48.5516 82.09 51.6678 70.6887 51.6678 70.6887C51.6678 70.6887 56.3779 82.9193 60.5398 86.2727C60.7176 86.416 55.5929 71.1408 53.9495 62.2235C51.7802 50.4522 55.1753 37.2483 53.9495 38.2339Z" fill="#E7EAEE"/>
<path fill-rule="evenodd" clip-rule="evenodd" d="M134.225 284.256C138.241 283.377 145.017 280.318 147.611 279.272C150.205 278.226 158.111 267.063 160.955 254.472C163.005 245.185 164.051 231.966 162.88 229.749C162.707 229.435 162.074 223.423 163.758 225.386C167.502 229.749 171.947 236.598 185.97 224.325C189.79 220.982 194.852 216.668 193.519 212.854C189.79 202.183 173.623 180.695 171.158 179.067C168.211 177.121 153.317 178.775 131.151 172.233C106.012 164.813 95.5449 142.965 85.7076 145.809C77.7521 148.109 58.6913 162.243 53.9076 171.194C31.324 213.451 58.6913 243.061 64.9239 251.565L70.9753 254.179L71.1845 259.575L71.4773 262.964C72.0211 269.447 72.2302 270.033 75.1585 272.208C82.479 277.772 96.911 282.959 109.962 284.8C116.028 285.636 129.205 285.344 134.225 284.256Z" fill="white"/>
<path fill-rule="evenodd" clip-rule="evenodd" d="M73.3548 257.599L73.6476 260.988C74.1915 267.472 74.4006 268.057 77.3288 270.232C81.6475 273.515 88.441 276.666 95.966 279.076C101.197 280.752 106.781 282.069 112.133 282.824C118.198 283.66 131.375 283.368 136.395 282.28C138.876 281.742 118.467 265.708 106.444 270.232C97.2102 273.707 75.4474 247.204 84.2959 240.28C94.2219 232.513 76.0331 201.878 75.4474 195.227C74.8618 188.576 72.5554 186.987 72.4881 187.22C72.4208 187.454 72.4208 188.249 72.6018 190.167C73.3823 198.431 73.3548 257.599 73.3548 257.599Z" fill="#E7EAEE"/>
<path fill-rule="evenodd" clip-rule="evenodd" d="M71.1755 193.328C72.0538 193.157 72.9043 193.731 73.0752 194.609C76.2323 210.829 89.5868 221.81 113.467 227.552C137.488 233.328 153.851 233.017 162.472 226.851C163.2 226.331 162.657 230.788 162.124 231.129C156.501 234.735 137.383 240.116 114.568 235.253C85.3976 229.035 71.701 204.507 69.8949 195.228C69.724 194.35 70.2973 193.499 71.1755 193.328Z" fill="#FFB61D"/>
<path fill-rule="evenodd" clip-rule="evenodd" d="M59.0111 164.064C59.7876 163.62 88.7608 196.825 128.522 204.342C168.283 211.858 177.91 207.078 179.457 196.825C179.591 195.941 180.416 195.332 181.301 195.465C182.186 195.599 182.795 196.424 182.661 197.309C180.7 210.302 162.302 213.393 127.977 207.535C94.0833 201.752 70.8459 188.01 58.4095 166.275C57.9652 165.498 58.2345 164.508 59.0111 164.064Z" fill="#FFB61D"/>
<path fill-rule="evenodd" clip-rule="evenodd" d="M225.895 162.223C224.807 161.846 223.636 161.01 222.883 160.047L221.628 158.5L226.062 154.107C232.881 147.414 238.11 140.554 242.628 132.397C244.134 129.678 247.94 120.6 247.94 119.722C247.94 119.429 248.401 118.258 248.944 117.044C249.781 115.288 250.408 114.618 252.207 113.614C254.341 112.359 256.767 111.941 257.813 112.652C259.821 113.991 259.821 118.216 257.813 125.494C255.596 133.484 252.626 139.215 246.476 147.456C245.514 148.711 243.715 151.179 242.419 152.894C238.947 157.496 236.688 159.713 233.634 161.428C230.622 163.101 228.865 163.31 225.895 162.223ZM255.93 158.458L258.942 159.796C259.567 160.084 266.456 163.395 274.732 167.372C288.075 173.783 305.021 181.925 305.124 181.925C305.292 181.925 306.077 180.11 306.254 177.993C306.672 173.433 308.22 167.242 310.019 162.934C310.855 161.009 311.525 158.604 311.525 158.395C311.525 158.3 310.844 158.025 309.731 157.576C308.406 157.042 306.466 156.26 304.329 155.237C293.788 150.175 273.165 139.842 270.613 138.295C268.103 136.831 267.601 136.705 267.601 137.667C267.601 138.922 265.049 144.737 263.083 147.874C262.038 149.589 259.988 152.685 258.524 154.735L255.93 158.458ZM304.414 174.395C305.613 175.091 303.535 176.11 303.033 176.278C300.077 176.529 296.598 175.973 293.746 174.312C292.256 173.255 280.517 166.733 272.731 162.407C269.171 160.43 266.438 158.911 265.886 158.583C264.13 157.537 262.456 156.408 262.163 156.073C261.285 154.944 262.122 154.442 264.59 154.651C266.073 154.777 301.823 172.894 304.414 174.395ZM145.792 279.745L145.792 279.745C146.572 279.416 147.243 279.133 147.753 278.927C150.347 277.881 158.253 266.718 161.097 254.127C163.147 244.84 164.193 231.621 163.021 229.404C162.315 228.12 166.511 232.428 169.635 235.636L169.635 235.636L169.636 235.636L169.636 235.637L169.645 235.645C170.588 236.614 171.433 237.481 172.015 238.063C190.254 256.177 217.403 270.734 245.597 277.553C259.653 280.983 269.651 282.196 283.079 282.196C305.626 282.196 323.404 277.762 339.551 268.015C340.318 267.552 341.037 267.126 341.722 266.721C347.351 263.388 350.704 261.403 359.882 251.073C370.176 239.486 379.333 212.588 382.387 203.301C383.726 199.118 386.989 182.48 386.989 178.328C386.989 173.412 385.273 171.091 382.931 168.706C378.79 164.649 373.184 163.185 368.541 164.942L366.365 165.778L365.696 163.561C364.734 160.215 362.726 157.537 359.631 155.529C355.029 152.476 354.36 152.267 350.218 152.267C346.997 152.267 346.119 152.434 344.069 153.396L341.685 154.484L341.183 152.978C340.221 149.882 336.993 145.567 334.49 144.319C332.269 143.211 328.425 143.11 325.747 143.607C319.89 144.695 315.707 147.414 313.992 151.221C313.49 152.392 312.863 153.312 312.612 153.312C312.403 153.312 304.162 151.011 294.331 146.66C292.673 145.924 291.116 145.234 289.653 144.585C272 136.761 268.173 135.065 268.521 132.94C268.814 131.142 268.73 130.138 268.228 128.59C267.35 125.996 266.346 125.285 263.501 125.285C261.242 125.285 261.242 125.285 261.493 124.156C262.832 117.755 262.79 114.074 261.368 111.732C260.406 110.184 259.276 109.556 256.683 109.18C255.177 108.971 254.466 109.096 252.792 110.017C251.663 110.602 250.701 111.021 250.617 110.937C250.533 110.853 250.826 108.552 251.286 105.833C254.717 85.7123 252.067 68.376 243.324 49.9701C243.24 49.7939 243.143 49.5857 243.032 49.3473C240.374 43.641 229.687 20.6961 199.122 9.11842C197.739 8.59437 196.43 8.08765 195.172 7.60066C184.76 3.57069 177.839 0.891602 161.139 0.919404C142.421 0.950565 136.082 3.59663 123.741 9.24392C122.026 10.0387 120.52 10.4989 120.395 10.3315C120.269 10.1224 119.475 9.6204 118.68 9.20209C117.885 8.78377 116.17 7.73798 114.915 6.90134C111.317 4.4751 109.1 3.47114 107.971 3.72213C106.674 4.05678 106.674 5.14441 107.971 5.64639C108.515 5.85555 109.142 6.56669 109.393 7.27783C109.937 8.78377 110.564 8.95109 110.941 7.69614C111.108 7.23599 111.359 6.90134 111.485 6.985C111.532 7.0088 111.692 7.08334 111.935 7.19708L111.935 7.19715C112.546 7.48338 113.688 8.01778 114.915 8.61644C116.63 9.45308 118.513 10.3315 119.014 10.5407C119.935 10.8754 119.642 11.1263 115.668 13.4689C100.148 22.5882 87.5152 36.7692 80.4457 52.9162C79.358 55.3425 78.3959 56.8484 77.3919 57.6851C74.8402 59.8185 69.8204 65.8841 68.6491 68.2685C68.0216 69.5653 66.683 71.5732 65.6372 72.7445C64.6333 73.9158 63.5456 75.4217 63.1692 76.0492C62.8345 76.7185 62.4998 77.1786 62.3743 77.095C62.2907 76.9695 62.4162 74.9197 62.709 72.5353C63.3365 66.9717 63.3365 65.5076 62.8345 65.3821C62.0815 65.1729 60.9939 68.1012 60.5338 71.7405C60.1991 73.9576 60.1154 77.3041 60.3246 80.7343L60.5756 86.1725L57.6055 81.3618C56.5825 79.7506 55.5752 78.1394 54.8607 76.9965C54.4065 76.2701 54.0707 75.733 53.9243 75.5054C52.8367 73.9158 52.2092 71.5314 52.6694 70.7365C52.9204 70.2764 52.8785 70.0672 52.4602 70.0672C51.5818 70.0672 49.8667 72.87 48.7372 76.091C48.1934 77.597 47.6496 78.8519 47.4823 78.8519C46.8548 78.8519 47.1476 63.8762 47.8169 59.0655C49.1974 49.5697 52.8367 37.8568 54.4682 37.8568C54.8028 37.8568 55.0956 37.6895 55.0956 37.4385C55.0956 36.6855 54.008 36.9784 53.1295 37.9405C51.1634 40.0739 48.5699 46.6415 46.9384 53.6274C45.809 58.438 45.0978 64.6291 44.8469 71.364C44.6377 77.1786 44.7214 78.1408 45.558 81.32C46.5201 84.8757 47.2731 85.9215 48.5699 85.4195C49.03 85.2522 49.2392 84.6247 49.2392 83.4534C49.2392 82.5331 49.7412 79.7722 50.3686 77.3041L51.4563 72.87L51.9164 74.7106C52.5021 76.844 55.9323 83.4534 59.0278 88.264C61.1612 91.5269 61.2031 91.7361 61.9142 96.8395C62.2907 99.7259 63.462 106.747 66.181 117.546C68.5835 127.088 82.0896 136.554 85.4618 138.918L85.4622 138.918L85.4635 138.919C85.9069 139.23 86.1747 139.417 86.2184 139.466C86.6367 139.926 87.2224 140.177 87.557 140.052C87.9335 139.926 88.1427 140.094 88.1427 140.554C88.1427 140.972 88.4355 141.516 88.7702 141.767C89.1885 142.06 89.4813 143.189 89.565 145.155C89.7741 149.087 92.7023 156.617 94.9613 159.085C96.4254 160.675 99.4791 161.344 102.867 160.758C105.085 160.424 105.712 160.173 105.503 159.671C105.377 159.336 106.172 159.754 107.26 160.591C119.977 170.296 132.861 176.111 147.335 178.621C152.94 179.583 162.227 180.127 167.288 179.75C170.534 179.538 171.426 179.479 171.592 179.798C171.654 179.919 171.613 180.094 171.555 180.336C171.262 181.507 171.639 182.218 177.788 192.634C182.682 200.875 183.101 201.419 188.539 206.982C200.084 218.905 212.676 228.149 226.94 235.303C240.368 241.996 261.807 247.559 281.405 249.316C301.003 251.073 315.08 233.085 315.038 228.484C314.954 222.167 314.076 218.026 311.942 214.01C309.851 210.12 308.47 208.781 302.196 204.598C295.21 199.955 290.901 196.148 288.056 192.09C286.258 189.539 285.588 186.652 285.588 185.104C285.588 184.101 286.885 181.842 288.809 181.381C290.566 180.921 290.901 180.963 292.867 181.925C294.038 182.469 297.092 183.891 299.602 185.104C302.154 186.276 304.622 187.447 305.124 187.698C306.604 188.109 307.229 191.006 307.569 192.576C307.644 192.927 307.706 193.211 307.759 193.387C308.345 195.562 311.116 198.371 312.905 199.327C316.045 201.006 323.782 201.231 325.915 198.93C326.459 198.345 328.262 197.625 328.633 197.843C329.005 198.061 330.348 199.871 330.348 201.335C330.39 203.845 331.687 206.146 334.448 208.447C339.677 212.797 343.735 213.843 347.834 211.919C349.967 210.915 351.716 210.523 351.716 210.523C351.716 210.523 353.46 212.748 353.565 213.508C354.387 219.452 363.186 221.943 365.529 222.194C366.066 222.248 367.11 222.018 368.172 221.785C369.591 221.473 371.039 221.155 371.343 221.498C371.941 222.172 361.346 239.695 359.882 241.912C345.952 262.828 318.845 275.628 285.672 276.967C264.129 277.845 237.649 271.822 214.684 260.862C200.001 253.792 186.991 245.133 173.061 233.002C170.635 230.91 167.832 228.526 166.828 227.689C165.824 226.894 163.44 224.175 161.599 221.665C158.504 217.482 156.747 215.976 156.747 217.399C156.747 218.026 158.755 221.875 161.055 225.681C161.976 227.187 162.561 228.233 162.352 228.066C162.143 227.898 161.474 230.91 160.846 234.759C158.796 247.099 155.408 259.272 151.978 266.844C150.095 270.943 146.486 274.005 145.398 274.841C141.383 277.895 135.371 279.268 127.046 280.104C116.505 281.15 100.985 278.808 89.1467 274.373C86.0093 273.202 77.9357 269.814 77.3919 269.437C77.3593 269.405 77.1741 268.202 76.9157 266.524L76.9154 266.522L76.9153 266.522L76.869 266.221L76.7747 265.61L76.6808 265.003C75.1749 254.671 73.0833 214.889 73.0833 196.483C73.0833 188.869 72.9996 187.196 72.4976 187.196C71.4518 187.196 71.0335 188.2 70.5734 191.798C69.5276 199.997 69.7367 242.79 70.8662 251.784L71.1172 253.834L69.6949 253.039C67.5197 251.784 59.237 243.376 56.3506 239.486C53.907 236.16 52.4547 231.9 51.3681 228.713C51.1154 227.972 50.8825 227.289 50.6615 226.689C44.5959 209.873 46.7293 191.003 55.0956 174.019C62.207 159.545 70.9499 151.514 83.7504 147.623C85.8419 146.996 87.6825 146.326 87.8917 146.159C88.6865 145.406 83.583 145.783 80.7803 146.661C71.661 149.464 62.1234 157.119 55.6394 166.908C46.5201 180.628 42.4206 200.875 45.307 218.152C45.9763 222.251 48.6954 231.119 49.4483 231.747C49.515 231.814 49.8591 232.535 50.3794 233.627L50.3795 233.627C51.8183 236.645 54.6047 242.491 56.6016 245.133C59.0278 248.438 66.3484 255.633 69.4021 257.85L71.3263 259.23L71.6192 262.619C72.163 269.103 72.3721 269.688 75.3004 271.863C82.6209 277.427 97.0528 282.614 110.104 284.455C116.17 285.291 129.347 284.999 134.367 283.911C137.594 283.205 142.602 281.091 145.792 279.745ZM275.759 244.631C251.454 242.498 222.089 230.909 200.838 213.005C191.886 205.434 180.257 190.71 175.655 182.553C174.693 180.879 173.982 180.085 173.145 179.875C172.267 179.624 173.02 179.373 176.618 178.788C191.802 176.194 206.569 169.878 218.491 160.884L220.248 159.587L220.75 160.8C221.879 163.519 226.23 166.28 229.451 166.28C230.748 166.28 235.098 164.314 237.734 162.515L239.532 161.302L240.997 162.766C242.335 164.105 242.586 164.189 245.096 164.189C247.982 164.189 251.454 162.892 253.379 161.051L254.425 160.089L257.395 162.055C258.984 163.185 263.418 165.653 267.225 167.619C272.914 170.547 278.938 173.935 284.669 177.449L285.589 178.035L284.711 179.206C283.79 180.461 282.076 182.845 282.076 186.485C282.076 190.584 286.339 197.95 294.499 203.008C300.91 206.982 311.943 214.799 311.525 226.225C311.474 227.605 309.935 231.036 307.885 234.131C306.547 236.097 302.824 239.025 299.435 240.741C293.663 243.627 283.498 245.3 275.759 244.631ZM52.7111 56.8485C53.8405 57.0994 54.5935 57.4759 54.4262 57.6433C53.8824 58.1871 50.996 57.9361 50.3267 57.2668C49.2809 56.2628 49.5319 55.5517 50.996 55.2589C51.7489 55.1334 52.8784 54.5059 53.5059 53.8784C54.1333 53.2509 54.6772 52.9581 54.6772 53.1673C54.6772 53.7111 52.5856 55.6353 51.5398 56.0537C50.8705 56.3465 51.0796 56.472 52.7111 56.8485ZM69.3606 57.5179C70.5737 56.8486 70.3227 56.3885 68.9005 56.5976C67.4782 56.8068 67.3945 56.6395 68.3148 55.2172C68.6913 54.6734 68.9005 53.8786 68.8168 53.4603C68.6913 52.9164 68.3985 53.1674 67.7292 54.506C67.2272 55.4682 66.5161 56.263 66.1814 56.263C65.1356 56.263 65.0519 57.0996 66.0559 57.4761C67.3527 58.0199 68.3567 58.0199 69.3606 57.5179ZM54.8862 34.6775C53.8822 34.8448 50.7448 36.0997 47.9839 37.4802C45.1812 38.8188 42.7968 39.9483 42.6295 39.9064C38.3626 39.4463 44.3027 32.3349 55.0953 25.0562C65.4277 18.0703 72.4136 14.3891 78.8976 12.5066C82.9552 11.3354 87.5149 11.168 88.8117 12.1302C89.5228 12.674 89.2718 12.7158 86.1763 12.7576C79.4832 12.7576 71.7443 16.1878 59.153 24.596C52.6272 28.9465 45.0557 35.1794 45.0557 36.1834C45.0557 36.3926 46.2688 35.9742 47.7748 35.3049C50.9958 33.8408 54.3005 33.0878 55.7646 33.4225C57.3124 33.8408 56.9777 34.3846 54.8862 34.6775ZM71.0753 38.2753C75.0075 37.4805 75.1748 37.4386 75.1748 37.0203C75.1748 36.8112 73.6689 36.602 71.7865 36.5183L68.3981 36.3928L71.5355 32.8371C73.2506 30.8711 75.2585 28.905 75.9696 28.4448C77.5174 27.4409 77.6011 26.7297 76.3461 26.3114L75.384 26.0186L76.4298 25.6421C77.0154 25.4329 78.1031 25.3493 78.856 25.4748C79.9855 25.6421 80.2365 25.5584 80.111 24.9728C79.9855 24.3871 79.5253 24.2616 77.4756 24.3035C71.4936 24.3871 68.9419 25.9767 73.6271 26.7297C74.9238 26.9389 76.0115 27.2735 76.0115 27.4827C76.0115 27.65 75.8023 27.8173 75.5513 27.8173C74.7565 27.8173 68.0216 34.6359 67.185 36.3092C65.8882 38.7773 66.5993 39.1537 71.0753 38.2753ZM98.6842 22.0446C97.4711 22.1283 97.1783 22.3374 97.262 22.9231L97.2749 23.0083C97.3218 23.3177 97.3488 23.4955 97.2795 23.5495C97.1858 23.6223 96.9167 23.4696 96.2841 23.1108L96.1743 23.0486C95.3795 22.6303 95.2959 22.4211 95.756 22.0864C96.0489 21.8355 96.8437 21.459 97.4711 21.3335L98.6424 21.0407L97.764 20.1204C97.3038 19.5765 97.0528 19.0746 97.1783 18.9072C97.513 18.5726 101.612 19.0327 102.198 19.4929C102.449 19.702 102.826 19.6602 103.077 19.4092C103.662 18.8236 104.457 19.2837 104.457 20.204C104.457 20.706 104.332 20.7478 103.955 20.3713C103.62 20.0367 103.328 20.0367 102.951 20.3295C102.616 20.6223 102.365 20.6223 102.156 20.2877C102.031 20.0785 101.236 19.8694 100.399 19.8694C98.9352 19.8694 98.9352 19.8694 99.6045 20.8733C100.272 21.9159 100.232 21.9191 98.6985 22.0435L98.6842 22.0446ZM92.3259 10.9174C92.3259 10.3735 91.8239 9.41141 91.1964 8.78394L90.0252 7.61265L96.2999 7.86364C99.7719 8.03096 103.704 8.40745 105.085 8.78394C106.465 9.11859 108.055 9.36958 108.64 9.36958C109.519 9.36958 109.351 9.20225 107.72 8.32379C104.875 6.85968 101.236 6.14854 94.2502 5.64656C85.8838 5.06091 81.6588 5.85571 82.4536 7.9473C82.5791 8.36562 83.2484 8.57478 84.2524 8.57478C86.3021 8.57478 89.6487 9.7879 90.7781 10.9174C91.9912 12.1305 92.3259 12.1305 92.3259 10.9174ZM71.9121 121.687C75.3004 126.038 79.7764 130.974 81.868 132.647C83.123 133.651 84.2106 134.488 84.2942 134.488C84.3361 134.488 83.4158 132.564 82.2445 130.221C77.5175 120.809 74.7566 111.439 73.4598 100.646C73.167 98.2616 72.7069 96.2536 72.2049 95.417C71.2009 93.7437 71.2009 91.5685 72.2467 89.5187C72.7905 88.4311 73.0833 87.0507 73.0833 85.5447V83.244L71.0754 85.3356C69.1093 87.3853 67.2269 88.2219 67.2269 86.967C67.2269 86.0467 70.3225 81.6125 71.9539 80.2321C73.2507 79.1445 73.418 78.768 73.8363 75.5051C74.1291 73.539 74.7984 70.067 75.3423 67.7662C75.9279 65.4655 76.2626 63.4994 76.1789 63.4157C75.8861 63.1229 66.0556 74.4131 64.717 78.015C64.4231 78.8058 63.6294 80.1903 63.0019 81.0269L61.9143 82.4233C61.9143 82.4233 62.2521 84.3788 62.6254 86.8363C63.0026 89.3192 63.1795 91.0261 63.3371 92.5463C63.548 94.5799 63.7242 96.2796 64.2987 99.0564C64.968 102.487 65.6373 105.457 65.8046 105.666C65.9301 105.917 66.4739 107.841 67.0177 109.974C68.189 114.701 70.1551 119.387 71.9121 121.687ZM241.665 161.26L240.787 160.382C240.787 160.382 255.367 141.858 257.979 135.032C259.973 129.823 261.147 128.346 262.73 128.346C263.615 128.346 264.338 128.548 264.673 129.05C265.258 129.928 265.823 131.016 265.07 134.739C263.815 140.763 261.89 144.737 256.118 153.312C254.779 155.278 253.064 157.454 252.311 158.207C250.554 159.838 246.601 161.511 244.301 161.888C242.836 162.097 242.418 162.013 241.665 161.26Z" fill="#00160A"/>
<path d="M357.497 202.183C362.702 188.003 361.914 184.982 361.011 184.686C361.011 184.686 359.024 185.816 358.145 188.2C356.514 192.676 350.93 204.389 348.838 206.481C346.37 208.949 346.37 208.949 343.86 208.949C341.35 208.949 334.112 205.169 333.126 201.443C331.549 195.482 338.338 174.772 338.506 173.601L337.376 172.806C336.623 173.517 326.829 203.218 313.951 195.479C312.476 194.593 309.349 190.417 309.098 188.2C307.704 181.758 314.1 159.232 315.187 154.605C316.161 150.463 321.229 146.619 327.462 146.619C337.042 146.619 335.755 154.993 340.046 157.944C341.947 159.251 345.072 156.881 346.035 156.701C351.432 155.697 353.5 156.866 357.456 160.006C360.509 162.429 362.769 167.226 365.255 168.916C366.637 169.855 368.103 168.571 368.583 168.33C370.551 167.342 374.774 168.079 375.945 168.916C377.662 169.664 381.87 173.709 382.535 176.062C385.548 186.724 376.034 210.361 372.443 214.796C366.498 222.135 352.293 216.362 357.497 202.183Z" fill="white"/>
<path fill-rule="evenodd" clip-rule="evenodd" d="M117.007 163.329C128.469 170.566 140.287 175.293 153.757 176.59C164.383 177.594 178.709 176.214 188.999 172.867C197.659 170.064 209.371 162.3 217.194 155.733C232.379 143.016 241.958 123.152 246.141 102.069C246.727 99.0988 247.62 91.633 247.578 84.2288C247.578 75.6114 243.786 52.0627 232.295 38.4846C208.595 10.4798 169.638 -2.13555 136.897 8.64346C125.086 12.5318 112.511 19.5767 103.015 28.7797C91.0516 40.4507 82.2251 56.3468 78.7112 72.5775C75.03 89.7285 79.8186 110.226 88.1431 127.042C94.7943 140.429 105.754 156.176 117.007 163.329ZM228.698 112.777C220.833 136.412 200.336 154.065 174.567 159.42C170.635 160.215 167.916 160.507 162.394 160.591C158.504 160.717 154.614 160.675 153.819 160.591C135.789 158.416 122.069 151.765 109.435 139.131C103.914 133.568 101.571 130.556 98.1409 124.616C92.7446 115.204 89.8582 105.582 88.9797 93.995C85.9678 54.2967 114.372 21.2078 154.363 17.7776C170.05 16.439 187.452 21.2496 200.67 30.6199C205.565 34.092 214.433 42.8766 217.194 46.9761C218.323 48.6076 229.283 64.6291 231.208 73.8321C233.676 85.796 232.714 100.772 228.698 112.777Z" fill="white"/>
<path fill-rule="evenodd" clip-rule="evenodd" d="M247.594 84.2286C247.594 112.307 234.312 143.003 217.171 156.113C208.993 162.367 198.306 169.941 188.999 172.867C175.36 177.155 153.757 176.59 153.757 176.59C153.757 176.59 175.797 173.644 183.964 170.357C207.385 160.931 220.17 146.463 228.065 132.58C243.649 105.177 247.594 83.5465 247.594 84.2286Z" fill="#E7EAEE"/>
<path fill-rule="evenodd" clip-rule="evenodd" d="M154.237 155.571C143.068 154.149 131.983 150.175 123.031 144.277C117.718 140.805 109.687 132.647 105.796 126.833C100.233 118.467 96.5515 109.515 94.7527 99.8933C93.4559 92.9074 93.4978 82.1566 94.7945 75.9237C96.1332 69.5653 97.8483 64.7128 100.902 58.5635C104.458 51.4521 108.223 46.2232 113.87 40.5759C123.491 30.9546 134.66 24.8471 147.963 21.9189C152.271 20.9986 167.875 20.2457 168.418 20.9568C168.544 21.166 169.38 21.7098 170.259 22.1699C171.137 22.6719 173.48 24.4288 175.404 26.1439C178.291 28.6538 179.587 30.2434 182.097 34.1756C183.812 36.8528 185.193 39.2791 185.193 39.4882C185.193 39.9484 186.532 40.785 187.284 40.785C188.33 40.785 189.041 37.6477 189.251 32.1259C189.376 29.0721 189.627 26.5622 189.794 26.5622C190.38 26.5622 196.822 30.1179 199.834 32.1259C205.732 36.058 211.631 41.5798 215.981 47.3526C217.947 49.9462 218.24 50.6155 218.24 52.2051C218.24 53.6692 218.658 54.7987 219.955 57.0576C223.218 62.7467 225.77 69.8999 227.317 77.8061C228.321 83.1187 228.321 93.1583 227.276 98.722C224.431 114.032 215.981 129.259 204.979 138.922C195.651 147.079 185.737 152.099 174.024 154.567C170.008 155.446 157.96 156.031 154.237 155.571ZM124.327 126.958C124.704 126.54 124.955 125.912 124.829 125.62C124.792 125.532 124.268 125.286 123.501 124.925C121.714 124.085 118.607 122.624 117.26 121.102C111.906 114.994 109.94 110.435 108.727 101.023C107.555 91.8615 108.539 85.6682 110.651 75.7144C111.681 70.8588 114.419 66.848 116.122 64.3527C117.28 62.656 117.96 61.66 117.3 61.5753C115.668 61.3243 115.417 61.4498 113.702 63.0812C110.021 66.5951 108.348 69.3978 106.591 74.7941C103.872 83.2441 103.346 106.08 108.727 116.375C114.107 126.67 123.365 128.046 124.327 126.958ZM183.812 91.8196C183.102 98.3181 180.089 107.716 176.575 111.815C174.944 113.739 168.955 117.044 163.9 116.375C159.018 115.728 155.199 113.447 151.937 108.552C149.134 104.327 147.686 99.1989 146.708 92.7399C145.018 81.5866 152.397 68.603 155.576 65.382C158.797 62.0773 161.098 60.906 164.026 60.8642C166.87 60.8642 168.711 61.4916 171.597 63.5414C176.868 67.2226 185.193 79.192 183.812 91.8196ZM127.423 57.2251C128.26 56.263 128.385 55.8028 128.134 54.0041C127.967 52.3308 127.632 51.6615 126.754 50.9504C125.206 49.6954 123.282 49.6954 121.86 51.034C120.856 51.9961 120.73 52.3308 120.856 54.6315C120.981 57.0996 121.065 57.2669 122.445 58.0199C124.286 59.0239 126.085 58.7311 127.423 57.2251ZM153.527 31.4146C145.997 36.8109 142.734 39.0279 139.346 41.1195C136.668 42.7928 135.832 42.8346 135.832 41.3287C135.832 40.5339 136.417 39.6554 137.923 38.275L140.015 36.3507L135.957 35.8069C131.398 35.2213 126.964 33.9663 126.001 33.0042C124.412 31.3727 125.792 30.9963 130.31 31.8329C132.318 32.1675 136.208 32.5859 138.969 32.6695L143.989 32.8787L147.628 30.2433C155.618 24.4705 163.901 21.2076 167.875 22.2116C170.343 22.7972 170.05 23.4665 167.247 23.8012C164.026 24.1777 162.06 25.2653 153.527 31.4146Z" fill="white"/>
<path d="M164.276 110.644C164.276 110.435 164.527 110.226 164.862 110.226C165.197 110.226 165.615 110.435 165.74 110.644C165.866 110.895 165.615 111.062 165.155 111.062C164.653 111.062 164.276 110.895 164.276 110.644Z" fill="white"/>
<path d="M166.787 110.267C166.787 109.807 167.832 109.389 169.004 109.389C169.924 109.431 169.924 109.431 169.129 110.016C168.209 110.728 166.787 110.853 166.787 110.267Z" fill="white"/>
<path d="M160.303 109.18C160.178 108.845 160.01 108.259 159.885 107.925C159.759 107.507 159.969 107.297 160.512 107.297C160.973 107.297 161.349 107.548 161.349 107.883C161.349 108.218 161.475 108.761 161.6 109.138C161.767 109.598 161.642 109.807 161.182 109.807C160.805 109.807 160.387 109.514 160.303 109.18Z" fill="white"/>
<path d="M162.52 108.134C162.311 106.879 162.771 106.461 164.277 106.461C164.737 106.461 165.113 106.879 165.281 107.59C165.615 108.804 165.072 109.389 163.607 109.389C162.938 109.389 162.645 109.096 162.52 108.134Z" fill="white"/>
<path d="M158.253 108.344C157.458 107.716 157.458 107.716 158.336 107.716C158.88 107.716 159.257 107.967 159.257 108.344C159.257 109.097 159.257 109.097 158.253 108.344Z" fill="white"/>
<path d="M166.661 108.301C166.117 107.758 166.368 106.126 167.038 105.875C168.251 105.415 168.794 105.624 169.045 106.712C169.213 107.339 169.296 107.883 169.213 107.925C168.878 108.301 166.912 108.552 166.661 108.301Z" fill="white"/>
<path d="M170.384 107.423C170.259 107.297 170.133 106.754 170.133 106.252C170.133 105.54 170.468 105.248 171.472 105.038C172.35 104.871 172.894 104.955 173.145 105.289C173.564 105.959 173.564 106.795 173.187 107.005C172.434 107.423 170.677 107.674 170.384 107.423Z" fill="white"/>
<path d="M156.329 106.126C156.329 105.624 156.705 105.206 157.249 105.081C158.337 104.788 158.295 104.746 158.504 105.833C158.588 106.461 158.378 106.712 157.5 106.796C156.58 106.921 156.329 106.754 156.329 106.126Z" fill="white"/>
<path d="M159.507 106.168C158.922 105.541 159.298 104.369 160.093 104.369C160.637 104.369 160.93 104.662 160.93 105.164C160.93 105.959 159.967 106.628 159.507 106.168Z" fill="white"/>
<path d="M162.017 104.913C161.683 104.118 162.394 103.532 163.774 103.532C164.402 103.532 164.695 103.783 164.695 104.327C164.695 104.787 164.318 105.206 163.774 105.373C162.394 105.708 162.31 105.708 162.017 104.913Z" fill="white"/>
<path d="M174.108 104.788C174.233 104.579 174.442 104.369 174.568 104.369C174.693 104.369 174.652 104.579 174.526 104.788C174.401 105.039 174.192 105.206 174.066 105.206C173.941 105.206 173.982 105.039 174.108 104.788Z" fill="white"/>
<path d="M165.783 104.077C165.448 103.24 165.867 102.822 167.205 102.612C167.958 102.529 168.293 102.696 168.377 103.282C168.67 104.662 166.285 105.415 165.783 104.077Z" fill="white"/>
<path d="M155.743 103.365C155.367 101.985 155.45 101.859 156.538 101.859C157.124 101.859 157.584 102.027 157.584 102.236C157.584 102.445 157.709 102.905 157.835 103.24C157.96 103.658 157.709 103.909 156.998 104.035C156.203 104.202 155.91 104.035 155.743 103.365Z" fill="white"/>
<path d="M169.715 102.905C169.715 102.153 170.008 101.818 170.802 101.609C171.974 101.316 172.643 101.902 172.643 103.24C172.643 103.784 172.308 103.951 171.179 103.951C169.882 103.951 169.715 103.826 169.715 102.905Z" fill="white"/>
<path d="M154.488 102.905C154.362 102.571 154.446 102.278 154.655 102.278C154.906 102.278 155.073 102.571 155.073 102.905C155.073 103.24 154.99 103.533 154.906 103.533C154.822 103.533 154.655 103.24 154.488 102.905Z" fill="white"/>
<path d="M158.713 103.24C158.128 102.696 158.462 101.525 159.215 101.316C159.675 101.19 160.136 101.232 160.261 101.357C160.763 101.818 160.47 103.031 159.843 103.282C159.048 103.574 159.048 103.574 158.713 103.24Z" fill="white"/>
<path d="M173.647 102.947C173.187 101.734 173.689 100.814 174.86 100.688C175.739 100.563 175.99 100.73 175.99 101.4C175.99 102.78 175.53 103.533 174.693 103.533C174.233 103.533 173.773 103.282 173.647 102.947Z" fill="white"/>
<path d="M161.642 102.403C161.14 101.943 161.307 101.106 162.018 100.855C162.813 100.563 164.486 101.399 164.026 101.859C163.441 102.361 161.935 102.738 161.642 102.403Z" fill="white"/>
<path d="M165.281 101.357C164.904 100.772 166.243 99.7678 167.33 99.7678C167.832 99.7678 168.042 100.019 167.958 100.479C167.791 101.316 165.657 101.985 165.281 101.357Z" fill="white"/>
<path d="M153.819 101.064C153.819 100.855 153.694 100.395 153.568 100.019C153.443 99.6422 153.484 99.3494 153.735 99.3494C154.279 99.3494 154.697 100.939 154.196 101.274C153.986 101.399 153.819 101.315 153.819 101.064Z" fill="white"/>
<path d="M154.948 100.102C154.697 99.182 155.199 98.5127 156.161 98.5127C156.705 98.5127 157.249 100.144 156.914 100.688C156.454 101.399 155.157 100.981 154.948 100.102Z" fill="white"/>
<path d="M157.877 100.311C157.249 99.684 157.626 98.178 158.462 97.9689C159.09 97.8015 159.425 98.0107 159.759 98.7637C160.01 99.3075 160.136 99.8513 160.052 99.9349C159.634 100.311 158.128 100.604 157.877 100.311Z" fill="white"/>
<path d="M169.171 100.311C168.627 99.7676 168.878 99.433 170.133 98.9728C171.179 98.6382 171.472 98.68 171.681 99.182C172.057 100.186 169.966 101.148 169.171 100.311Z" fill="white"/>
<path d="M172.852 99.3497C172.434 98.6804 173.02 98.0947 174.107 98.0947C175.404 98.0947 175.781 99.1824 174.609 99.517C173.354 99.8517 173.145 99.8098 172.852 99.3497Z" fill="white"/>
<path d="M176.408 98.3453C176.408 97.7179 177.161 97.0486 177.496 97.3832C177.789 97.676 177.203 98.931 176.785 98.931C176.576 98.931 176.408 98.68 176.408 98.3453Z" fill="white"/>
<path d="M153.275 97.8018C153.107 97.6763 152.982 97.1325 153.024 96.6723C153.024 95.8775 153.066 95.8775 153.442 96.7978C153.86 97.8018 153.777 98.3038 153.275 97.8018Z" fill="white"/>
<path d="M154.07 97.1743C153.694 95.7102 153.736 95.5847 154.823 95.5847C156.036 95.5847 156.789 97.1325 155.869 97.7181C154.907 98.3038 154.363 98.1365 154.07 97.1743Z" fill="white"/>
<path d="M168.459 98.0109C168.459 97.8854 168.669 97.2161 168.92 96.4632C169.505 94.7899 170.802 94.7062 171.095 96.3377C171.22 96.9651 171.262 97.509 171.22 97.5508C171.011 97.8018 168.459 98.1783 168.459 98.0109Z" fill="white"/>
<path d="M157.04 96.9651C156.873 96.8396 156.748 96.3376 156.748 95.8775C156.748 95.2082 156.873 95.1663 157.375 95.5847C157.71 95.8775 158.003 96.3795 158.003 96.6723C158.003 97.2998 157.501 97.4671 157.04 96.9651Z" fill="white"/>
<path d="M172.099 96.1285C171.848 94.8318 172.392 94.2461 173.689 94.4134C174.316 94.4971 174.525 94.8736 174.525 95.7939C174.525 96.8397 174.358 97.0907 173.438 97.1743C172.517 97.2998 172.308 97.0907 172.099 96.1285Z" fill="white"/>
<path d="M176.199 96.2956C175.655 94.6223 175.822 94.1203 176.952 93.9948C177.955 93.8693 178.081 93.9948 178.081 95.0825C178.081 96.0028 177.83 96.3792 177.202 96.5466C176.742 96.6721 176.282 96.5466 176.199 96.2956Z" fill="white"/>
<path d="M152.647 93.9113C152.647 93.1165 152.731 92.7819 152.857 93.2002C152.94 93.5767 152.94 94.246 152.857 94.6643C152.731 95.0408 152.647 94.7061 152.647 93.9113Z" fill="white"/>
<path d="M153.693 94.4554C153.149 93.9534 153.4 92.3219 154.069 92.071C155.031 91.6945 155.492 92.1546 155.492 93.5351C155.492 94.4135 155.282 94.7482 154.739 94.7482C154.32 94.7482 153.818 94.6227 153.693 94.4554Z" fill="white"/>
<path d="M156.203 93.3257C156.035 92.6982 155.952 92.0289 156.119 91.9034C156.537 91.4851 156.788 92.1544 156.663 93.3675L156.537 94.5388L156.203 93.3257Z" fill="white"/>
<path d="M169.715 93.0329C169.715 92.5727 169.924 92.3217 170.133 92.4472C170.384 92.5727 170.551 92.991 170.551 93.3257C170.551 93.6604 170.384 93.9113 170.133 93.9113C169.924 93.9113 169.715 93.5349 169.715 93.0329Z" fill="white"/>
<path d="M171.597 93.5766C171.012 92.9491 171.472 91.8196 172.434 91.5686C173.647 91.2758 173.689 91.2758 174.065 92.4889C174.316 93.2419 174.149 93.4092 173.061 93.5766C172.392 93.702 171.723 93.6602 171.597 93.5766Z" fill="white"/>
<path d="M175.446 92.7818C174.986 92.3635 175.111 90.9831 175.572 90.9831C175.823 90.9831 175.99 90.8157 175.99 90.5647C175.99 90.3556 175.739 90.1464 175.404 90.1464C174.693 90.1464 174.107 88.0967 174.693 87.511C175.446 86.7581 176.283 87.5529 176.785 89.6026C177.078 90.6902 177.37 91.9452 177.496 92.3635C177.663 92.9073 177.496 93.0747 176.701 93.0747C176.157 93.0747 175.572 92.9492 175.446 92.7818Z" fill="white"/>
<path d="M177.705 90.5649C177.412 89.3099 176.659 86.8 176.115 84.9594C175.278 82.2822 175.195 81.6129 175.655 81.3201C175.948 81.1109 176.324 80.9436 176.45 80.9436C176.91 80.9436 178.583 89.5191 178.416 91.1924L178.29 92.8656L177.705 90.5649Z" fill="white"/>
<path d="M152.229 90.3557C152.229 89.6864 152.313 89.4354 152.439 89.8537C152.522 90.2302 152.522 90.8158 152.439 91.1086C152.313 91.3596 152.229 91.0668 152.229 90.3557Z" fill="white"/>
<path d="M153.066 90.2718C153.233 88.8077 154.446 88.473 154.781 89.8116C155.074 90.8992 155.157 90.7737 153.902 91.1921C153.024 91.4431 152.94 91.3594 153.066 90.2718Z" fill="white"/>
<path d="M170.719 89.8954C170.384 88.6823 171.095 87.9712 172.434 88.1385C173.438 88.264 173.814 90.0628 172.978 90.6066C171.932 91.2759 170.97 90.9831 170.719 89.8954Z" fill="white"/>
<path d="M155.492 89.5608C155.492 88.8496 155.701 88.4731 156.161 88.4731C156.58 88.4731 156.747 88.766 156.663 89.3934C156.454 90.7321 155.492 90.8576 155.492 89.5608Z" fill="white"/>
<path d="M151.769 87.8038C151.769 87.3437 151.895 87.2182 152.02 87.5528C152.146 87.8457 152.104 88.2221 151.979 88.3476C151.853 88.515 151.728 88.264 151.769 87.8038Z" fill="white"/>
<path d="M152.564 87.6783C152.564 87.0508 152.815 86.7998 153.443 86.7998C154.029 86.7998 154.238 87.009 154.154 87.5109C153.945 88.5986 152.564 88.7241 152.564 87.6783Z" fill="white"/>
<path d="M154.865 87.3021C154.572 86.5491 154.572 86.5491 155.827 86.2145C156.58 85.9635 156.747 86.089 156.747 86.7164C156.747 87.7204 155.241 88.2224 154.865 87.3021Z" fill="white"/>
<path d="M170.008 86.7163C169.715 85.6705 170.259 85.1267 171.723 85.1267C172.434 85.1267 172.643 85.3777 172.643 86.1725C172.643 86.8 172.392 87.2183 172.057 87.2183C171.723 87.2183 171.179 87.3438 170.844 87.4693C170.468 87.5948 170.175 87.3438 170.008 86.7163Z" fill="white"/>
<path d="M173.648 85.7541C173.313 84.9175 173.815 84.29 174.777 84.29C175.363 84.29 175.572 84.5829 175.572 85.3358C175.572 86.0888 175.363 86.3816 174.735 86.3816C174.275 86.3816 173.773 86.0888 173.648 85.7541Z" fill="white"/>
<path d="M152.146 85.1682C152.146 84.2898 153.108 83.2858 153.526 83.746C153.693 83.8715 153.819 84.4571 153.819 85.0009C153.819 85.6702 153.568 85.963 152.982 85.963C152.438 85.963 152.146 85.6702 152.146 85.1682Z" fill="white"/>
<path d="M154.446 84.6665C154.111 83.6207 154.488 83.1606 155.91 82.9514C157.207 82.7841 157.625 84.1645 156.496 85.0012C155.408 85.796 154.739 85.6705 154.446 84.6665Z" fill="white"/>
<path d="M169.589 84.4155C169.297 84.1645 169.171 82.6167 169.422 82.6167C169.464 82.6167 170.091 82.4494 170.844 82.2402C172.099 81.8637 172.183 81.9056 172.141 83.035C172.099 83.8717 171.848 84.29 171.221 84.4573C170.091 84.7501 169.924 84.7501 169.589 84.4155Z" fill="white"/>
<path d="M168.042 83.4533C168.042 83.1605 168.167 83.035 168.335 83.1605C168.46 83.3278 168.46 83.5788 168.335 83.7462C168.167 83.8717 168.042 83.7462 168.042 83.4533Z" fill="white"/>
<path d="M172.727 82.7842C172.853 82.0731 174.149 81.0273 174.442 81.3619C174.568 81.4874 174.777 81.9894 174.902 82.5332C175.195 83.3698 175.07 83.4535 173.898 83.4535C172.894 83.4535 172.602 83.2862 172.727 82.7842Z" fill="white"/>
<path d="M152.564 82.7424C152.564 82.5332 152.774 82.1149 152.983 81.7802C153.317 81.2782 153.401 81.3201 153.401 82.1149C153.401 82.6169 153.234 83.0352 152.983 83.0352C152.774 83.0352 152.564 82.9097 152.564 82.7424Z" fill="white"/>
<path d="M153.819 81.8219C153.819 80.6506 154.698 80.2741 155.367 81.1525C155.785 81.78 155.785 81.9892 155.367 82.282C154.489 82.8258 153.819 82.6585 153.819 81.8219Z" fill="white"/>
<path d="M166.536 81.2781C165.783 80.4415 165.783 80.3997 166.494 80.6507C166.912 80.818 167.456 80.9435 167.665 80.9435C167.875 80.9435 168.042 81.2363 168.042 81.571C168.042 82.4494 167.456 82.3658 166.536 81.2781Z" fill="white"/>
<path d="M157.541 81.2362C155.743 79.8558 155.492 76.7603 157.165 76.7603C158.294 76.7603 159.34 78.5172 159.173 80.1486C159.047 81.6546 158.545 81.9892 157.541 81.2362Z" fill="white"/>
<path d="M169.004 81.4874C169.171 81.3619 169.422 81.3619 169.59 81.4874C169.715 81.6548 169.59 81.7803 169.297 81.7803C169.004 81.7803 168.879 81.6548 169.004 81.4874Z" fill="white"/>
<path d="M175.32 79.8558C175.446 79.4793 175.571 79.1028 175.571 79.0191C175.571 78.9355 175.78 78.8518 175.99 78.8518C176.241 78.8518 176.408 79.2283 176.408 79.6884C176.408 80.1904 176.115 80.5251 175.739 80.5251C175.278 80.5251 175.153 80.3159 175.32 79.8558Z" fill="white"/>
<path d="M153.4 79.7307C153.4 78.7686 154.279 77.179 154.781 77.179C155.659 77.179 155.032 79.8562 154.112 80.0235C153.735 80.1072 153.4 79.9817 153.4 79.7307Z" fill="white"/>
<path d="M162.813 79.2702L161.558 78.9774L162.688 78.6846C163.859 78.3499 164.695 78.6009 164.695 79.3121C164.695 79.7304 164.654 79.7304 162.813 79.2702Z" fill="white"/>
<path d="M161.349 77.2625C161.349 75.5473 162.311 75.2964 163.189 76.8023C163.775 77.8063 163.817 78.0154 163.273 78.0154C162.938 78.0154 162.394 78.1409 162.018 78.2664C161.516 78.4756 161.349 78.2246 161.349 77.2625Z" fill="white"/>
<path d="M168.628 77.848C166.745 77.0113 165.532 74.7943 165.532 72.1589C165.532 70.2764 165.7 69.8163 166.829 68.7705C167.54 68.1012 168.251 67.5574 168.46 67.5574C169.381 67.5574 172.769 70.7784 173.899 72.7863L175.195 75.0871L173.815 76.5512C172.225 78.2245 170.468 78.6846 168.628 77.848Z" fill="white"/>
<path d="M159.885 76.7604C159.759 76.5512 159.843 76.342 160.052 76.342C160.303 76.342 160.512 76.5512 160.512 76.7604C160.512 77.0113 160.428 77.1787 160.345 77.1787C160.219 77.1787 160.01 77.0113 159.885 76.7604Z" fill="white"/>
<path d="M154.405 76.0914C154.53 75.7149 154.656 75.3384 154.656 75.2547C154.656 75.1711 155.032 75.0874 155.492 75.0874C156.538 75.0874 156.58 75.7567 155.534 76.3424C154.405 76.928 154.112 76.8862 154.405 76.0914Z" fill="white"/>
<path d="M157.709 75.589C156.747 75.4635 156.454 74.9197 157.082 74.5432C157.249 74.4177 158.002 74.2086 158.755 74.0412C159.884 73.7902 160.093 73.8739 160.093 74.585C160.093 75.4635 159.215 75.84 157.709 75.589Z" fill="white"/>
<path d="M160.931 74.1667C160.931 73.6647 160.972 73.3719 161.056 73.4556C161.098 73.5393 161.433 73.9576 161.725 74.3759C162.227 74.9615 162.186 75.087 161.6 75.087C161.182 75.087 160.931 74.7524 160.931 74.1667Z" fill="white"/>
<path d="M155.074 73.8741C155.074 73.6231 155.283 73.3302 155.492 73.2048C155.743 73.0793 155.91 73.2466 155.91 73.5812C155.91 73.9577 155.743 74.2505 155.492 74.2505C155.283 74.2505 155.074 74.0832 155.074 73.8741Z" fill="white"/>
<path d="M156.622 73.2465C156.287 72.4098 159.257 71.4895 159.759 72.2843C160.136 72.9536 159.759 73.2465 158.17 73.5811C157.208 73.7903 156.789 73.7066 156.622 73.2465Z" fill="white"/>
<path d="M160.554 71.9078C160.554 71.4477 160.679 71.3222 160.805 71.6568C160.93 71.9497 160.888 72.3262 160.763 72.4516C160.637 72.619 160.512 72.368 160.554 71.9078Z" fill="white"/>
<path d="M156.998 71.2383C157.5 70.318 158.965 68.812 159.341 68.812C159.759 68.812 159.801 70.7781 159.383 71.0291C159.174 71.1128 158.504 71.3219 157.877 71.4892C156.957 71.6984 156.747 71.6566 156.998 71.2383Z" fill="white"/>
<path d="M160.345 70.2765C159.885 69.0216 160.094 68.4778 161.098 68.3105C162.143 68.1013 162.143 68.1013 161.474 69.3981C160.638 71.0713 160.679 71.0713 160.345 70.2765Z" fill="white"/>
<path d="M160.094 67.7666C160.094 67.683 160.93 67.0973 161.976 66.5117C163.231 65.7587 164.11 65.5077 164.737 65.675C165.49 65.926 165.281 66.0934 163.44 66.9718C161.391 67.8921 160.094 68.2268 160.094 67.7666Z" fill="white"/>
<path d="M183.31 30.7038C182.181 29.0723 179.796 26.4369 178.081 24.8473C176.366 23.2577 175.237 21.9609 175.571 21.9609C176.492 21.9609 183.519 23.8852 185.276 24.6382C186.741 25.2656 186.782 25.3493 186.406 26.6461C186.197 27.3991 186.029 29.2815 186.029 30.8293C186.029 32.4189 185.904 33.6738 185.737 33.6738C185.527 33.6738 184.482 32.3352 183.31 30.7038Z" fill="white"/>
<path d="M98.1824 157.412C96.4673 156.533 96.0908 156.031 93.9155 151.723C90.7782 145.615 90.6945 144.193 93.6646 147.665C94.8358 149.046 97.5549 151.89 99.6883 153.982C103.328 157.496 103.495 157.747 102.282 157.579C101.403 157.454 101.069 157.537 101.278 157.872C101.78 158.625 100.19 158.416 98.1824 157.412Z" fill="white"/>
<path fill-rule="evenodd" clip-rule="evenodd" d="M168.287 233.626C167.94 232.801 168.327 231.851 169.152 231.504L170.053 231.122C178.816 227.372 183.845 225.12 187.262 221.544C190.68 217.968 191.089 212.715 191.731 209.518C191.907 208.641 193.893 210.182 194.771 210.358C195.648 210.534 196.216 211.388 196.04 212.265C195.268 216.108 193.189 219.772 189.842 223.25C186.507 226.716 180.049 230.431 170.409 234.49C169.584 234.837 168.634 234.45 168.287 233.626Z" fill="#00160A"/>
<path fill-rule="evenodd" clip-rule="evenodd" d="M207.913 66.7172C208.681 66.2596 209.676 66.5118 210.133 67.2806C214.716 74.9783 217.17 83.7778 217.17 92.9329C217.17 120.669 194.686 143.153 166.95 143.153C159.58 143.153 152.432 141.563 145.886 138.535C145.074 138.159 142.007 135.168 145.096 136.384C148.186 137.601 160.139 140.332 167.036 140.332C192.983 140.332 211.338 118.879 211.338 92.9329C211.338 84.3653 207.913 76.7605 207.349 68.9379C207.284 68.0311 207.144 67.1749 207.913 66.7172Z" fill="#00160A"/>
<path fill-rule="evenodd" clip-rule="evenodd" d="M47.472 189.326C48.0446 188.639 49.0661 187.25 49.7535 187.822C52.5737 190.171 55.5832 192.893 58.8024 193.418C62.1524 193.965 66.1265 193.965 70.7197 193.409C71.6079 193.301 72.4151 193.934 72.5226 194.822C72.6302 195.711 71.9973 196.518 71.1091 196.625C66.2313 197.216 61.9569 197.216 58.2806 196.616C54.4737 195.995 50.9333 194.318 47.6799 191.608C46.9924 191.035 46.8993 190.014 47.472 189.326Z" fill="#00160A"/>
<path d="M81.8678 132.647C79.7762 130.974 75.3002 126.038 71.9118 121.687C70.1549 119.387 68.1888 114.701 67.0175 109.974C66.4737 107.841 65.9299 105.917 65.8044 105.666C65.6371 105.457 64.9678 102.487 64.2985 99.0564C63.2945 94.2039 63.5069 92.6406 62.6252 86.8363C62.2519 84.3788 61.9141 82.4234 61.9141 82.4234L63.0017 81.0269C63.6292 80.1903 64.4229 78.8058 64.7168 78.015C66.0554 74.4132 75.8859 63.1229 76.1787 63.4157C76.2623 63.4994 75.9277 65.4655 75.342 67.7662C74.7982 70.067 74.1289 73.539 73.8361 75.5051C73.4178 78.768 73.2505 79.1445 71.9537 80.2321C70.3222 81.6125 67.2267 86.0467 67.2267 86.967C67.2267 88.222 69.1091 87.3853 71.0752 85.3356L73.0831 83.244V85.5447C73.0831 87.0507 72.7903 88.4311 72.2465 89.5187C71.2007 91.5685 71.2007 93.7437 72.2047 95.417C72.7066 96.2536 73.1668 98.2616 73.4596 100.646C74.7564 111.439 77.5173 120.809 82.2443 130.221C83.4156 132.564 84.3359 134.488 84.294 134.488C84.2104 134.488 83.1227 133.651 81.8678 132.647Z" fill="white"/>
</svg>
