<svg width="50" height="49" viewBox="0 0 50 49" fill="none" xmlns="http://www.w3.org/2000/svg">
<path d="M50 31C50 40.9411 41.9411 49 32 49L5 49C2.23857 49 -3.61899e-06 46.7614 -3.37758e-06 44L-4.05209e-07 10C7.76132e-08 4.47715 4.47715 -1.65037e-07 10 3.17786e-07L45 3.37758e-06C47.7614 3.61899e-06 50 2.23858 50 5L50 31Z" fill="#E8F5E9"/>
<path d="M23.9895 13.7006C21.1325 13.7006 18.8066 16.0477 18.8066 18.9168C18.8066 20.7319 19.7387 22.3345 21.1461 23.2687C19.4462 23.8371 17.9753 24.8994 16.8965 26.2891C16.3 25.8303 15.6336 25.4614 14.9151 25.197C16.0046 24.3881 16.7166 23.0888 16.7166 21.6285C16.7166 19.1951 14.7485 17.2031 12.3299 17.2031C9.91121 17.2031 7.94315 19.1951 7.94315 21.6285C7.94315 23.0897 8.6557 24.3896 9.74611 25.1984C6.85925 26.2637 4.79749 29.0528 4.79749 32.3352V34.6409C4.79778 34.8167 4.86809 34.9851 4.99276 35.1089C5.11742 35.2329 5.28611 35.3021 5.46188 35.3015H15.5779C15.6024 35.3041 15.6269 35.3056 15.6514 35.3053H32.3281C32.3526 35.3056 32.3774 35.3041 32.4017 35.3015H42.5184C42.882 35.3 43.1766 35.0049 43.1775 34.6409V32.3352C43.1775 29.0528 41.1193 26.2637 38.2339 25.1981C39.3243 24.3896 40.0369 23.0894 40.0369 21.6282C40.0369 19.1948 38.0688 17.2028 35.6502 17.2028C33.2316 17.2028 31.2634 19.1948 31.2634 21.6282C31.2634 23.0885 31.9757 24.3881 33.0652 25.1967C32.3453 25.4617 31.6785 25.8318 31.0812 26.2918C30.0029 24.9012 28.534 23.8374 26.8342 23.2687C28.2413 22.3345 29.1737 20.7319 29.1737 18.9168C29.1737 16.0477 26.8466 13.7006 23.9896 13.7006H23.9895ZM23.9895 15.024C26.1263 15.024 27.8488 16.7582 27.8488 18.9168C27.8488 21.0586 26.1531 22.7759 24.04 22.8034C24.0231 22.8034 24.0066 22.8011 23.9895 22.8011C23.9723 22.8011 23.9561 22.8034 23.939 22.8034C21.8258 22.7762 20.1312 21.0587 20.1312 18.9168C20.1312 16.7579 21.8524 15.024 23.9892 15.024H23.9895ZM12.3299 18.5265C14.0254 18.5265 15.3932 19.9026 15.3932 21.6285C15.3932 23.3428 14.0431 24.7129 12.3636 24.7316C12.3524 24.7316 12.3414 24.7304 12.3299 24.7304C12.3187 24.7304 12.3078 24.7316 12.2962 24.7316C10.6168 24.7129 9.26666 23.3425 9.26666 21.6285C9.26666 19.9026 10.6345 18.5265 12.3299 18.5265H12.3299ZM35.6498 18.5265C37.3452 18.5265 38.713 19.9026 38.713 21.6285C38.713 23.3428 37.3629 24.7129 35.6834 24.7316C35.6722 24.7316 35.6613 24.7304 35.6497 24.7304C35.6385 24.7304 35.6276 24.7316 35.6161 24.7316C33.9366 24.7129 32.5865 23.3425 32.5865 21.6285C32.5865 19.9026 33.9543 18.5265 35.6497 18.5265H35.6498ZM23.9388 24.1268C23.9556 24.1271 23.9722 24.1292 23.9893 24.1292C24.0062 24.1292 24.0227 24.1268 24.0398 24.1268C28.2776 24.154 31.6692 27.5747 31.6692 31.8567L31.6689 33.9814H16.3104V31.8567C16.3104 27.5743 19.7009 24.1541 23.9382 24.1268H23.9388ZM12.2793 26.0566C12.2961 26.0568 12.3126 26.0589 12.3298 26.0589C12.3469 26.0589 12.3632 26.0566 12.3803 26.0566C13.8137 26.0681 15.1218 26.5623 16.1634 27.3892C15.4181 28.708 14.987 30.2302 14.987 31.8571V33.9767H6.12044V32.3351C6.12044 28.855 8.85665 26.0837 12.2791 26.0562L12.2793 26.0566ZM35.5991 26.0566C35.6162 26.0568 35.6325 26.0589 35.6496 26.0589C35.6667 26.0589 35.683 26.0566 35.7001 26.0566C39.1226 26.0837 41.8588 28.8554 41.8588 32.3354V33.9767H32.9877L32.9874 31.8571C32.9874 30.2311 32.5575 28.71 31.8136 27.3915C32.8555 26.5635 34.1646 26.068 35.5992 26.0566H35.5991Z" fill="#103E13"/>
</svg>
