<svg width="504" height="504" viewBox="0 0 504 504" fill="none" xmlns="http://www.w3.org/2000/svg">
<path d="M428.887 361.529C426.087 416.139 382.333 465.626 328.697 476.271C275.062 486.915 216.362 458.602 190.228 410.571C187.344 405.27 184.775 399.711 182.207 394.152C175.577 379.801 168.95 365.454 156.898 355.583C143.137 344.312 125.439 341.297 107.563 338.252C96.2114 336.319 84.7881 334.373 74.2554 330.293C48.8645 320.457 29.1498 297.157 23.6541 270.488C14.7483 227.271 42.9577 183.147 80.576 160.085C118.194 137.022 163.398 130.598 207.245 125.649C224.018 123.756 237.642 111.116 247.373 97.3235C251.141 91.9841 254.53 86.3735 257.917 80.767C263.279 71.8915 268.634 63.0264 275.472 55.2639C304.428 22.3945 358.348 16.8479 395.229 40.4829C432.11 64.118 449.763 112.718 439.955 155.411C438.266 162.764 435.868 169.924 433.47 177.084L433.47 177.085C431.174 183.939 428.879 190.794 427.204 197.819C423.625 212.835 422.942 228.374 422.535 243.805C422.049 262.204 421.935 280.65 423.658 298.974C424.257 305.348 425.079 311.714 425.9 318.079C427.767 332.543 429.632 347 428.887 361.529Z" fill="#4CAF4F"/>
<path d="M207.184 112.606C227.238 102.629 243.2 85.3027 253.251 65.2855C254.569 62.6609 255.818 59.8722 255.772 56.9357C255.726 53.9992 254.017 50.8887 251.176 50.143C247.105 49.0742 243.605 52.9773 241.066 56.3343C223.627 79.3957 198.245 97.4998 169.604 101.448C158.603 102.965 147.435 102.395 136.345 101.823L119.024 100.928C105.073 100.208 90.9286 99.502 77.2727 102.446C63.6169 105.39 50.2735 112.47 42.7734 124.255C40.386 128.006 38.5979 132.427 39.2584 136.824C39.9353 141.33 43.1383 145.155 46.9965 147.579C50.8547 150.003 55.337 151.216 59.7792 152.231C63.0316 152.974 66.3535 153.632 69.6814 153.397C75.1222 153.014 80.0597 150.309 84.8639 147.676C85.1839 147.501 85.5034 147.326 85.8223 147.152C94.219 142.571 102.92 138.503 111.994 135.48C125.228 131.072 139.143 128.915 153.023 126.764C171.723 123.865 190.36 120.976 207.184 112.606Z" fill="#4CAF4F"/>
<path d="M102.893 378.393L102.905 378.394C103.723 378.426 104.539 378.459 105.354 378.502C118.241 379.172 130.994 382.331 142.703 387.754C147.167 389.822 151.689 392.41 154.196 396.643C157.299 401.881 161.023 406.75 165.266 411.116C166.912 412.809 168.694 414.466 170.892 415.331C173.089 416.196 175.803 416.117 177.586 414.568C179.752 412.687 179.893 409.346 179.225 406.555C178.131 401.983 175.403 397.998 172.703 394.148C163.842 381.517 154.514 368.888 142.184 359.614C129.853 350.339 113.94 344.724 98.8477 347.928C93.6365 349.034 88.4716 351.289 85.0165 355.344C81.5615 359.399 80.1962 365.502 82.6845 370.212C84.6586 373.949 88.6606 376.249 92.7579 377.285C96.0603 378.12 99.4802 378.257 102.893 378.393H102.893Z" fill="#4CAF4F"/>
<path d="M451.465 188.413C448.02 187.114 444.119 188.683 441.203 190.93C435.444 195.37 432.037 202.315 430.487 209.42C428.936 216.524 429.062 223.873 429.194 231.144L430.333 293.614C430.416 298.178 430.619 303.096 433.426 306.696C434.304 307.823 435.506 308.812 436.927 308.957C438.649 309.133 440.243 308.045 441.487 306.841C448.289 300.255 449.182 289.88 449.996 280.424L450.026 280.081C451.222 266.201 453.294 252.396 456.224 238.776C457.048 234.945 457.954 231.091 459.678 227.572C465.082 216.543 463.789 202.542 456.457 192.688C455.131 190.906 453.544 189.197 451.465 188.413Z" fill="#4CAF4F"/>
<path d="M328.242 273.178C331.877 274.18 335.133 277.207 335.491 280.96C336.18 279.467 337.694 278.388 339.331 278.224L336.955 280.748L339.961 280.808L335.825 283.118C338.389 287.86 337.974 293.71 336.33 298.844C335.324 301.987 333.869 305.135 334.153 308.423C334.432 311.656 337.303 314.96 340.442 314.298L340.599 314.261C344.372 313.308 348.503 313.86 351.893 315.77C356.764 318.514 359.719 323.61 363.066 328.087C366.022 332.04 369.519 335.716 373.891 338.006C378.263 340.295 383.624 341.051 388.179 339.15C390.439 338.207 392.462 336.645 394.86 336.148C397.258 335.651 399.715 336.985 400.596 339.257C400.985 340.262 400.148 343.987 398.013 348.337C398.361 348.238 398.724 348.174 399.104 348.149C410.321 347.421 421.641 344.982 431.294 339.223C434.363 337.392 437.229 335.247 440.075 333.084L441.733 331.82L442.737 331.048C448.981 326.21 455.145 320.818 457.712 313.46L457.847 313.064L458.131 312.195C458.68 310.549 459.376 308.847 460.966 308.336C463.166 307.628 465.169 309.757 466.505 311.642L476.14 325.225C476.387 325.574 476.64 325.935 476.735 326.352C477.152 328.198 474.397 329.13 472.622 328.475C469.393 327.283 466.802 323.732 463.415 324.341C461.033 324.77 459.611 327.075 458.434 329.247L458.136 329.801C451.007 343.149 439.009 353.828 424.925 359.363C421.294 360.79 417.543 361.883 413.798 362.974L406.231 365.178L407.564 365.415C418.854 367.395 430.899 368.603 441.152 363.6C447.978 360.27 453.236 354.535 458.197 348.74L459.997 346.625L460.739 345.741C463.784 342.089 466.677 338.179 467.565 333.551C467.906 331.773 470.149 330.925 471.894 331.407C473.639 331.888 474.967 333.269 476.203 334.591L485.569 344.616C486.307 345.406 487.084 346.277 487.192 347.353C487.3 348.428 486.336 349.645 485.298 349.344L475.141 346.394C474.189 346.117 473.134 345.847 472.237 346.271C471.549 346.595 471.106 347.262 470.712 347.919L459.794 366.358C456.719 371.55 451.021 374.56 445.422 376.812C431.996 382.211 417.428 384.748 402.967 384.204C401.396 384.145 399.824 384.05 398.272 383.805C392.438 382.886 387.17 379.92 382.069 376.92C382.964 380.191 382.167 382.95 376.855 383.16C372.15 383.345 360.625 363.973 357.041 362.968C337.478 357.483 334.266 346.654 327.982 339.257C327.982 339.257 315.281 340.898 306.895 339.15C287.239 335.052 274.03 322.446 269.268 321.644C264.505 320.841 261.365 323.893 259.895 322.042L259.895 320.7C260.122 320.332 262.398 318.205 268.89 319.586C277.955 321.515 292.446 328.796 303.512 330.155C315.13 331.583 324.971 329.693 324.916 329.376C324.806 328.729 327.726 325.981 325.393 324.593C323.06 323.205 289.189 309.611 281.827 298.282L281.739 298.14C280.473 296.039 279.512 290.818 282.058 293.208L282.772 291.944C285.514 294.53 294.518 300.442 303.872 306.27C313.761 312.432 327.726 316.378 327.982 316.205C333.673 312.356 328.625 309.569 327.683 308.751C325.478 306.836 322.551 305.792 320.651 303.574C316.094 298.253 319.349 288.736 314.14 284.052C313.351 283.344 312.395 282.786 311.824 281.893C310.846 280.363 311.327 278.234 312.512 276.857C313.697 275.481 315.43 274.712 317.145 274.114C320.704 272.871 324.607 272.177 328.242 273.178Z" fill="white"/>
<circle cx="331.296" cy="300.384" r="1.344" fill="#FFB61D"/>
<ellipse cx="323.102" cy="300.384" rx="0.996725" ry="1.344" fill="#FFB61D"/>
<path d="M274.397 306.897C261.901 303.666 248.768 302.92 235.987 304.716C236.954 299.94 238.164 295.212 239.612 290.559C235.454 291.901 230.544 288.089 230.813 283.728C231.082 279.366 236.422 276.187 240.385 278.03C241.746 274.889 241.832 271.217 240.62 268.016C240.039 266.48 242.356 265.594 243.999 265.594L253.072 265.592C254.34 265.592 256.109 265.002 255.794 263.774C255.047 260.861 257.05 257.532 259.974 256.828C262.845 256.137 266.077 258.103 266.818 260.952L266.857 261.111C267.546 264.17 271.422 265.142 274.557 265.082L276.118 265.044C278.83 264.987 281.657 265.075 283.472 266.972C285.643 269.241 285.158 272.854 284.442 275.934L284.394 276.139C283.38 280.414 282.299 284.674 281.151 288.915C283.38 306.853 277.861 307.793 274.397 306.897Z" fill="white"/>
<path d="M170.175 291.921C168.85 283.299 168.852 274.475 170.18 265.855L170.247 265.438C170.577 263.481 171.156 261.416 172.791 260.338C174.014 259.531 175.56 259.471 177.034 259.47L188.32 259.501C188.834 259.503 189.397 259.522 189.783 259.86C190.17 260.199 190.159 260.977 189.664 261.114C188.482 261.441 187.802 262.805 187.946 264.023C188.089 265.241 188.881 266.296 189.812 267.096C192.03 269.003 195.479 269.68 197.934 268.09C200.39 266.5 200.967 262.404 198.64 260.631C203.912 260.524 209.187 260.54 214.458 260.681L216.434 260.739C217.073 260.76 217.78 260.811 218.226 261.268C218.561 261.612 218.671 262.111 218.747 262.585C219.331 266.234 218.692 270.068 216.958 273.331C216.682 273.851 216.042 274.423 215.606 274.028C213.754 272.346 210.639 272.575 208.744 274.208C206.849 275.841 206.116 278.553 206.451 281.031C206.773 283.417 208.512 285.966 210.917 285.845C212.811 285.751 214.917 284.094 216.348 285.338L213.937 296.111C213.509 298.025 212.74 300.295 210.822 300.705C199.751 303.073 188.144 302.894 177.151 300.186L176.618 300.051C175.284 299.702 173.955 299.25 172.914 298.359C171.103 296.808 170.537 294.278 170.175 291.921Z" fill="white"/>
<path d="M257.03 207.384L283.783 207.922L284.22 207.933C285.023 207.958 285.833 208.028 286.556 208.366C288.191 209.129 288.941 211.011 289.438 212.746C292.093 222.006 291.765 232.096 288.515 241.165L288.379 241.537C287.956 242.652 287.403 243.765 286.404 244.392C285.582 244.909 284.58 245.017 283.605 245.069L283.396 245.08C279.418 245.268 275.426 245.167 271.463 244.775C273.527 243.505 274.048 240.411 272.738 238.372C271.427 236.333 268.658 235.482 266.326 236.144C264.905 236.548 263.581 237.519 263.067 238.904C262.553 240.289 263.05 242.068 264.363 242.744C265.272 243.212 265.115 244.685 264.32 245.327C263.524 245.968 262.419 246.014 261.397 246.03L247.975 246.248C246.966 246.264 245.905 246.268 245.019 245.785C243.763 245.1 243.186 243.624 242.832 242.237C241.978 238.892 241.862 235.36 242.496 231.966C243.259 234.647 246.562 236.274 249.152 235.247C251.743 234.219 253.031 230.769 251.749 228.295C250.467 225.821 246.906 224.884 244.572 226.408L244.475 225.543C244.141 222.512 243.88 219.441 244.463 216.456C245.1 213.186 246.919 209.975 249.9 208.489C252.075 207.405 254.586 207.345 257.03 207.384Z" fill="white"/>
<path d="M175.89 237.478C172.123 237.493 168.355 237.338 164.602 237.014L164.237 236.98C162.893 236.846 161.484 236.577 160.603 235.578C159.414 234.229 159.705 232.195 160.062 230.415L160.097 230.238C161.693 222.429 162.319 214.424 161.959 206.462L161.892 205.089C161.792 202.621 161.95 199.822 164.001 198.552C164.624 198.166 165.349 197.987 166.071 197.841L166.311 197.794C179.439 195.237 193.109 195.496 206.131 198.549C207.846 198.951 208.323 201.274 207.754 202.941C207.185 204.608 205.964 206.009 205.508 207.71C205.051 209.41 205.888 211.713 207.648 211.768C211.312 211.883 214.417 215.605 213.925 219.237C213.432 222.869 209.507 225.624 205.913 224.903C205.07 224.733 204.771 225.98 204.864 226.835L205.889 236.316C206.057 237.864 203.861 238.353 202.309 238.232L193.255 237.527C191.832 237.416 189.925 237.662 189.706 239.072C189.16 242.582 185.561 245.323 182.032 244.916C178.503 244.509 175.623 241.02 175.89 237.478Z" fill="white"/>
<path fill-rule="evenodd" clip-rule="evenodd" d="M151.52 295.83C152.524 296.074 153.963 296.508 153.883 297.458C152.275 316.604 145.355 313.08 139.184 318.57C137.554 320.02 136.579 323.451 135.879 323.53C138.476 324.73 142.245 329.541 148.731 329.761C166.802 330.374 173.38 317.187 173.38 317.187C173.805 312.959 171.661 305.345 174.337 307.477C176.185 308.949 175.819 301.779 178.343 302.492C179.102 302.707 177.777 307.475 178.343 307.76C178.656 307.917 179.119 306.617 179.926 305.583C180.599 304.721 181.637 304.083 181.852 304.271C181.998 304.399 181.858 305.631 181.252 306.674C180.4 308.139 178.976 309.549 179.175 309.784C179.395 310.043 183.151 306.547 183.38 306.853C184.9 308.88 175.272 332.218 159.026 336.624L157.74 336.97C148.27 339.486 144.293 339.829 135.518 336.624C131.358 335.105 128.77 349.298 126.458 354.022C124.998 357.005 117.905 364.316 114.667 362.105C110.394 359.188 106.91 353.759 103.273 351.013L103.04 350.841C100.562 349.064 94.9569 346.368 86.2251 342.753L86.6185 342.571C88.4403 341.743 93.1327 339.718 96.7357 336.624C101.855 332.229 104.628 322.788 108.197 317.696C111.72 312.669 116.449 313.409 113.595 312.519C113.595 312.519 106.364 308.688 103.04 308.338C91.9379 307.166 77.4652 312.413 72.8354 315.794C66.4828 320.433 72.7944 327.261 64.0167 323.914C61.0913 322.799 68.9322 308.351 79.748 302.492C94.7815 294.35 108.996 292.11 123.248 305.072C129.048 310.347 129.622 315.044 131.177 318.624L130.859 317.746C148.051 316.613 122.292 299.401 143.797 295.093C146.056 294.641 148.426 295.112 150.69 295.635L151.52 295.83Z" fill="white"/>
<circle cx="140.448" cy="307.776" r="1.344" fill="#FFB61D"/>
<circle cx="147.84" cy="310.464" r="1.344" fill="#FFB61D"/>
<path fill-rule="evenodd" clip-rule="evenodd" d="M69.8164 359.898C84.3844 369.986 65.7451 356.052 81.6623 372.657C84.8766 376.01 101.151 356.859 102.83 368.209C103.442 372.349 102.107 376.658 102.921 380.763C103.681 384.593 120.34 382.294 121.627 380.618C126.292 374.545 111.775 358.946 108.731 356.452C91.7445 342.538 86.1393 343.503 70.268 357.899L69.8164 359.898Z" fill="white"/>
<path fill-rule="evenodd" clip-rule="evenodd" d="M448.786 107.758C451.643 108.1 454.3 108.417 454.3 105.087C454.3 104.295 444.683 97.334 441.834 100.015C438.169 103.462 435.259 107.415 432.44 111.243C426.523 119.281 421.007 126.773 409.762 127.889L409.626 127.904C405.267 128.43 413.388 132.299 422.509 127.889C428.78 124.856 437.123 115.263 441.086 110.706C442.122 109.514 442.859 108.667 443.181 108.372L443.264 108.301C444.614 107.26 446.751 107.515 448.786 107.758ZM462.352 116.772L471.867 124.324C473.721 125.796 471.55 128.966 469.188 129.118C467.818 129.207 466.503 128.785 465.182 128.361C464.227 128.054 463.267 127.747 462.281 127.63C456.693 126.969 452.433 132.232 448.967 136.664C445.799 140.714 442.331 144.529 438.599 148.067L438.095 148.541L437.569 149.025C434.567 151.754 431.201 154.226 427.241 154.938C421.411 155.986 415.619 153.001 410.857 149.478C409.695 148.618 408.554 147.717 407.412 146.814L407.412 146.814L407.412 146.814L407.412 146.814L407.412 146.814L407.412 146.814C403.875 144.019 400.332 141.219 396.137 139.649C392.502 141.633 389.101 144.03 385.994 146.764L386.132 146.655C391.348 151.882 394.995 158.655 396.488 165.887L395.491 165.712L394.832 165.599C388.669 164.566 382.069 163.954 376.861 167.252C375.025 168.415 373.389 170.038 371.77 171.643L371.77 171.643C370.643 172.76 369.525 173.868 368.355 174.806C368.652 174.983 368.956 175.166 369.268 175.357C375.031 177.714 381.14 179.224 387.338 179.823C388.285 179.914 389.242 179.987 390.202 180.06C394.648 180.398 399.151 180.74 402.95 182.972L404.283 183.768C406.421 185.034 408.801 186.239 410.593 184.773C411.108 184.351 411.445 183.774 411.784 183.193C411.99 182.84 412.196 182.486 412.444 182.165C413.099 181.318 414.397 180.721 415.211 181.417L415.541 184.007C415.78 182.341 417.388 180.987 419.07 181.034C420.752 181.08 422.282 182.522 422.428 184.198C422.694 187.242 419.244 189.063 416.315 190.032L401.136 194.924C395.712 196.672 389.699 195.766 384.47 193.5C379.602 191.391 375.307 188.18 371.203 184.806L370.293 184.054C367.194 181.474 363.004 178.672 359.487 180.645C365.598 181.017 370.055 186.283 373.699 191.263L374.049 191.744C374.639 192.557 375.247 193.413 375.392 194.407C375.8 197.19 372.639 199.038 369.969 199.922C372.219 201.128 371.104 204.627 369.36 206.492C366.824 209.204 363.502 211.156 359.919 212.122L359.592 213.254C359.571 213.33 359.561 213.37 359.564 213.371C361.254 213.254 362.296 215.524 361.607 217.072C360.919 218.62 359.219 219.444 357.589 219.905C352.217 221.424 346.15 220.226 341.759 216.779L340.905 217.224C337.195 219.144 333.357 220.929 329.234 221.535C324.793 222.187 319.905 221.272 316.695 218.135L316.906 218.597C317.36 219.603 317.768 220.645 317.782 221.742C317.799 223.008 317.145 224.375 315.946 224.781C313.967 225.451 312.239 223.336 311.212 221.517C310.649 222.918 311.229 224.494 311.793 226.026C312.437 227.774 313.059 229.465 311.941 230.775C310.776 232.138 308.567 231.789 306.964 230.985C300.96 227.973 298.139 220.393 299.44 213.803C300.741 207.213 305.479 201.695 311.121 198.051C307.291 195.243 304.488 191.062 303.347 186.452C303.651 186.845 305.009 185.582 306.938 183.789L306.938 183.789C310.467 180.509 315.908 175.452 320.303 175.499C321.146 175.508 322.505 176.16 323.837 176.798C324.802 177.26 325.751 177.715 326.48 177.914C326.54 177.837 326.613 177.766 326.698 177.705L325.866 177.107C324.193 175.919 322.446 174.801 320.465 174.309C318.154 173.734 315.418 174.207 313.946 176.079C310.345 180.655 305.784 184.472 300.644 187.209L303.691 192.834C302.431 193.436 300.863 193.326 299.694 192.567L299.55 192.469L299.64 192.582C301.395 194.871 299.853 198.861 296.98 199.314C294.065 200.537 291.125 196.883 291.412 193.735C291.613 191.528 292.706 189.573 293.801 187.613C294.269 186.777 294.737 185.94 295.136 185.083C296.484 182.186 297.076 178.969 297.665 175.772C298.473 171.39 299.273 167.046 302.001 163.621C303.912 161.222 306.588 159.554 309.333 158.186C320.226 152.757 333.117 151.458 344.874 154.606C346.877 147.432 350.847 140.817 356.236 135.675L356.557 135.374C358.619 133.474 361.183 131.777 363.918 132.089L364.135 132.118C366.85 132.532 369.21 130.436 371.184 128.497L371.793 127.9L372.269 127.44C376.186 123.699 380.733 120.247 386.084 119.875C390.844 119.543 395.401 121.729 399.51 124.156C404.159 126.901 408.581 130.03 412.717 133.501L413.443 134.117L413.677 134.318L414.011 134.604L414.026 134.617L414.029 134.619C417.928 137.969 422.196 141.635 427.273 141.331C432.478 141.019 436.28 136.699 439.784 132.717C440.068 132.395 440.349 132.075 440.629 131.76C444.952 126.894 449.874 122.611 454.855 118.415L456.992 116.621C457.639 116.078 458.335 115.514 459.171 115.405C460.349 115.253 461.422 116.033 462.352 116.772ZM368.276 199.247C367.218 199.036 365.775 199.128 363.946 199.523C365.15 199.528 366.164 199.506 366.987 199.458C367.386 199.409 367.782 199.347 368.172 199.269L368.276 199.247ZM329.096 175.95C329.482 175.554 329.889 175.136 330.34 174.779C331.18 174.336 332.126 174.112 333.079 174.202C336.302 174.508 338.743 177.937 338.322 181.147C336.62 185.363 332.409 187.769 328.244 190.149C325.679 191.615 323.131 193.071 321.198 194.934C321.683 194.133 322.214 193.495 322.752 193.103C324.433 191.879 326.191 190.819 327.848 189.819L327.848 189.819L327.848 189.819L327.849 189.819C329.241 188.979 330.562 188.182 331.705 187.368C333.505 186.086 334.715 184.868 335.651 183.924C336.368 183.202 336.925 182.641 337.466 182.333C337.51 182.308 339.541 178.191 334.631 175.499C330.923 173.467 329.271 176.038 328.383 177.419C328.095 177.868 327.888 178.191 327.716 178.191C327.672 178.191 327.61 178.184 327.532 178.17C327.655 177.732 327.841 177.309 328.08 176.912C328.413 176.65 328.745 176.309 329.096 175.95ZM330.144 174.888C329.301 175.377 328.577 176.086 328.08 176.912L327.958 177.005C327.714 177.183 327.468 177.313 327.215 177.373C326.705 177.493 325.49 176.561 324.46 175.771C323.845 175.299 323.296 174.878 323.004 174.763C321.079 174.009 320.853 173.998 319.518 173.935L319.517 173.934L319.513 173.934C319.289 173.924 319.034 173.912 318.734 173.894L318.18 173.859C318.059 173.853 317.925 173.847 317.784 173.841L317.782 173.841C316.676 173.794 315.084 173.728 315.402 172.867C321.088 157.477 345.384 154.128 341.367 171.525C341.035 172.964 340.163 174.223 339.291 175.482C338.855 176.112 338.419 176.741 338.05 177.393C336.48 175.162 334.77 173.986 332.918 173.865C331.886 173.797 331.058 174.212 330.34 174.779L330.144 174.888ZM374.215 161.081L374.22 161.072C372.883 163.614 371.447 166.673 369.912 170.25C371.066 167.072 372.511 164.002 374.215 161.081ZM385.047 163.425L384.861 163.432C383.379 163.494 382.049 163.716 380.872 164.098C379.565 164.521 378.176 165.228 376.702 166.221C379.28 164.792 382.13 163.837 385.047 163.425Z" fill="white"/>
<circle cx="331.296" cy="200.256" r="1.344" fill="#FFB61D"/>
<circle cx="326.592" cy="194.88" r="1.344" fill="#FFB61D"/>
<path d="M125.604 208.079C126.381 209.529 125.159 211.603 123.514 211.627C122.105 203.707 120.586 195.512 116.002 188.902C107.224 176.246 89.1354 172.089 81.6201 158.644C76.5029 162.286 68.6784 161.358 64.5557 156.62C61.9917 153.673 57.5225 153.311 53.672 153.968C49.8216 154.626 46.0598 156.079 42.1556 155.956C40.4614 155.902 38.6157 155.447 37.6297 154.068C36.6438 152.689 37.2134 150.263 38.8912 150.023C46.2009 148.976 53.5105 147.93 60.8202 146.884C61.3942 146.802 62.0033 146.704 62.4391 146.321C62.9322 145.889 63.087 145.197 63.2149 144.553C64.2731 139.227 65.0356 132.878 61.114 129.123C57.8638 126.01 52.7341 126.118 48.3185 126.986C43.9029 127.854 39.3522 129.283 35.0006 128.136C30.649 126.99 27.0098 121.821 29.3557 117.98C30.9269 115.408 29.1552 111.978 26.7316 110.186C24.3079 108.394 21.2917 107.512 18.9425 105.623C16.5934 103.735 15.1025 100.091 16.9736 97.7282C17.7966 96.689 19.0851 96.1415 20.3493 95.7427C24.5333 94.4228 29.1986 94.3222 33.2317 96.0491C37.2647 97.7759 40.5399 101.477 41.1962 105.815C41.7309 109.349 40.7149 113.46 43.0511 116.165C46.1056 119.702 51.7509 117.718 56.4237 117.676C61.2029 117.632 65.9289 120.166 68.5375 124.171C71.1461 128.176 71.5536 133.522 69.5821 137.876C75.1334 132.228 82.6104 127.895 90.5245 128.19C97.8344 128.463 104.551 132.667 109.44 138.108C114.329 143.55 117.664 150.177 120.934 156.72C122.153 159.158 125.243 160.479 127.847 159.675C130.451 158.872 132.26 156.039 131.893 153.338C134.162 153.833 134.398 156.901 134.468 159.222C134.615 164.1 136.382 168.916 139.424 172.732C140.441 170.855 141.218 168.847 141.728 166.774C143.948 169.326 144.777 173.021 143.859 176.278C142.941 179.534 140.305 182.253 137.078 183.27C135.361 183.812 133.262 184.072 132.41 185.658C135.63 191.296 138.399 197.191 140.683 203.269C141.908 206.528 142.791 210.722 140.213 213.062C137.233 210.861 135.539 207.371 133.958 204.021C131.491 198.794 129.025 193.568 126.558 188.342" fill="white"/>
<path fill-rule="evenodd" clip-rule="evenodd" d="M133.74 155.765C133.093 162.094 135.461 168.665 139.998 173.124C141.616 172.148 142.65 170.275 142.614 168.386C144.314 171.181 143.362 174.971 141.248 177.468C139.134 179.965 136.101 181.462 133.158 182.891C131.471 183.71 129.721 184.545 127.847 184.601C124.988 184.686 122.427 182.967 120.09 181.319L113.232 176.484C116.775 183.095 124.84 186.945 132.208 185.543C137.333 192.732 140.47 201.321 141.186 210.12L139.808 207.575C139.796 207.544 139.779 207.513 139.758 207.483L139.808 207.575C140.006 208.063 139.232 208.603 138.711 208.351C138.157 208.082 137.947 207.415 137.784 206.821C135.766 199.506 132.151 192.635 127.264 186.83L134.664 202.509C136.245 205.859 137.939 209.35 140.919 211.55C143.497 209.21 142.614 205.017 141.389 201.757C139.105 195.68 136.335 189.784 133.116 184.146C133.808 182.858 135.322 182.445 136.786 182.045L136.786 182.045C137.125 181.952 137.462 181.86 137.784 181.758C141.011 180.741 143.647 178.023 144.565 174.766C145.483 171.51 144.654 167.815 142.434 165.262C141.924 167.335 141.147 169.343 140.13 171.22C137.087 167.404 135.321 162.589 135.174 157.711C135.104 155.389 134.868 152.321 132.598 151.827C132.966 154.527 131.157 157.36 128.553 158.164C125.949 158.967 122.858 157.646 121.64 155.208C118.37 148.665 115.035 142.038 110.146 136.597C105.257 131.156 98.5402 126.951 91.2303 126.679C83.3162 126.384 75.8393 130.716 70.2879 136.365C72.2595 132.011 71.8519 126.664 69.2433 122.659C66.6347 118.655 61.9087 116.121 57.1295 116.164C55.9172 116.175 54.6394 116.317 53.3585 116.459C49.7019 116.864 46.0189 117.273 43.7569 114.654C42.1593 112.804 42.1294 110.297 42.0991 107.766C42.0851 106.596 42.0711 105.421 41.902 104.303C41.2457 99.9656 37.9705 96.2643 33.9375 94.5375C29.9044 92.8106 25.2391 92.9113 21.0551 94.2311C19.791 94.6299 18.5024 95.1774 17.6795 96.2167C15.8083 98.5796 17.2992 102.223 19.6484 104.112C20.8847 105.106 22.3059 105.821 23.7281 106.537C25.0082 107.181 26.2893 107.826 27.4374 108.674C29.861 110.466 31.6327 113.897 30.0615 116.469C27.7156 120.309 31.3548 125.478 35.7064 126.625C39.3037 127.573 43.037 126.761 46.7175 125.96L46.7177 125.96C47.4895 125.792 48.2589 125.625 49.0243 125.474C53.4399 124.606 58.5696 124.499 61.8198 127.611C65.7414 131.367 64.9789 137.716 63.9207 143.041C63.7928 143.685 63.638 144.377 63.1449 144.81C62.7092 145.192 62.1 145.29 61.526 145.372L39.597 148.511C37.9192 148.751 37.3496 151.178 38.3355 152.556C39.3215 153.935 41.1673 154.391 42.8614 154.444C45.4517 154.526 47.9793 153.914 50.5117 153.301C51.7962 152.989 53.082 152.678 54.3778 152.457C58.2283 151.799 62.6975 152.161 65.2615 155.108C69.3842 159.846 77.2088 160.775 82.3259 157.133C86.2805 164.207 93.1628 168.71 100.076 173.233C106.3 177.306 112.549 181.394 116.708 187.391C121.292 194 122.811 202.195 124.22 210.115C125.865 210.091 127.087 208.018 126.31 206.568L124.764 208.607C124.193 196.124 117.818 184.027 107.844 176.501C105.374 174.637 102.665 173.003 99.9627 171.372C94.0238 167.789 88.113 164.224 84.8245 158.272C84.5283 157.736 84.2526 157.169 84.2046 156.558C84.1439 155.786 84.4518 155.042 84.7489 154.323L84.7913 154.22C85.9767 151.345 86.8048 148.189 86.2225 145.134C85.6402 142.078 83.34 139.189 80.2637 138.729C85.4708 142.06 86.5382 150.325 82.3481 154.87C78.158 159.414 69.8329 159.019 66.0918 154.098C63.0935 150.155 57.0981 150.638 52.2722 151.756C47.4463 152.875 41.7633 154.045 38.0353 150.783C46.0111 148.59 54.2183 147.24 62.4762 146.762C64.4435 146.648 65.2151 144.194 65.4801 142.241C65.8874 139.24 66.2947 136.19 65.8485 133.193C65.4022 130.197 63.9782 127.209 61.4357 125.562C58.3826 123.584 54.4412 123.891 50.8234 124.269L41.209 125.275C39.1373 125.492 37.0084 125.704 34.9998 125.153C32.9912 124.601 31.1014 123.104 30.7163 121.057C30.473 119.764 30.8432 118.491 31.2163 117.207C31.4849 116.283 31.7551 115.354 31.7992 114.408C31.9246 111.714 30.1844 109.246 28.0699 107.572C26.7744 106.547 25.3307 105.74 23.8858 104.932L23.8858 104.932L23.8857 104.932C22.9723 104.422 22.0584 103.911 21.1809 103.345C19.5293 102.278 17.8346 100.555 18.2939 98.6436C18.5876 97.4212 19.6938 96.5738 20.806 95.9875C24.5611 94.0081 29.2547 93.9191 33.0821 95.7548C36.9095 97.5904 39.7782 101.306 40.5851 105.474C40.7842 106.502 40.8747 107.576 40.965 108.647C41.1738 111.126 41.3817 113.593 42.9304 115.455C44.7803 117.68 47.9776 118.24 50.8676 118.103C51.8585 118.055 52.8493 117.944 53.8393 117.833C55.7367 117.621 57.6311 117.409 59.5175 117.646C65.8606 118.445 70.8583 125.045 69.9075 131.367C69.8549 131.717 69.7872 132.07 69.7193 132.423C69.4773 133.685 69.2329 134.958 69.6637 136.143C70.2153 137.659 72.6281 138.467 73.3926 137.046C76.818 130.676 84.6744 127.467 91.8576 128.308C99.0407 129.149 105.469 133.475 110.185 138.958C114.901 144.441 118.109 151.039 121.035 157.653C122.065 159.983 125.134 160.826 127.585 160.133C130.036 159.44 131.981 157.608 133.74 155.765ZM121.343 167.65L121.343 167.65C121.943 168.823 123.039 170.97 124.485 171.622C124.42 172.231 123.464 171.905 123.066 171.44C121.936 170.119 120.736 168.6 120.868 166.866C120.938 166.856 121.099 167.173 121.343 167.65ZM124.281 177.292C125.027 178.385 120.558 178.93 119.072 177.976C119.334 177.925 119.679 177.952 120.06 177.982C120.513 178.017 121.018 178.056 121.497 177.976C122.2 177.857 122.878 177.642 123.39 177.479C123.887 177.321 124.227 177.213 124.281 177.292ZM123.208 173.228C121.429 173.533 119.243 171.164 119.243 168.935C119.756 170.583 121.578 171.89 122.584 172.612C123.096 172.979 123.397 173.196 123.208 173.228ZM129.582 182.546C127.212 182.546 126.138 178.551 127.212 178.294C127.469 178.178 127.481 178.536 127.499 179.064C127.518 179.62 127.543 180.364 127.866 180.944C128.225 181.588 128.985 182.018 129.428 182.269C129.764 182.459 129.918 182.546 129.582 182.546ZM132.221 177.106C132.741 177.393 133.216 177.837 133.351 178.415C133.485 178.994 133.162 179.695 132.58 179.816C132.398 179.548 132.497 179.378 132.601 179.198C132.754 178.935 132.919 178.651 132.221 178.009C131.928 177.738 131.586 177.62 131.346 177.538C131.161 177.474 131.037 177.432 131.042 177.356C131.072 176.875 131.799 176.874 132.221 177.106ZM127.786 171.9C127.669 171.981 127.588 172.037 127.658 172.102C127.872 172.301 128.124 172.396 128.375 172.251C128.567 172.141 128.665 171.917 128.71 171.701C128.963 170.49 127.684 169.24 126.48 169.52C126.587 169.801 126.791 169.892 127.04 170.001C127.326 170.127 127.671 170.279 127.992 170.781C128.424 171.457 128.027 171.732 127.786 171.9ZM127.381 183.311C125.986 182.904 124.606 179.61 125.349 179.36C125.812 179.204 125.81 179.229 125.783 179.49C125.758 179.729 125.713 180.165 125.986 180.841C126.325 181.681 126.8 182.362 127.102 182.796C127.309 183.094 127.436 183.275 127.381 183.311ZM446.932 108.507C443.936 108.874 441.576 111.29 440.087 113.915C439.367 115.184 438.791 116.527 438.216 117.87L438.215 117.871L438.215 117.871L438.215 117.872C437.6 119.306 436.985 120.74 436.195 122.083C432.426 128.493 425.265 131.996 418.403 134.86C417.22 135.353 415.147 135.121 415.516 133.893C426.751 131.761 436.423 122.866 439.486 111.848C439.847 110.55 438.159 109.454 436.856 109.797C435.677 110.108 434.838 111.091 434.081 112.066L433.844 112.373C427.586 120.513 418.602 127.395 408.344 127.839C407.617 127.871 406.579 127.428 406.898 126.775C414.496 126.52 421.658 122.77 427.3 117.675C432.941 112.58 437.243 106.193 441.268 99.7443C441.89 98.7467 443.385 98.9599 444.498 99.3395C447.913 100.504 451.189 102.075 454.235 104.008C455.871 105.046 454.575 107.816 452.716 108.359C451.648 108.671 450.532 108.595 449.411 108.519C448.582 108.463 447.749 108.406 446.932 108.507ZM444.014 102.155L443.752 102.075C442.952 101.846 442.06 101.719 441.416 102.215C441.167 102.407 440.989 102.673 440.825 102.943L438.687 106.549C439.809 106.808 440.885 107.268 441.848 107.9C442.635 108.416 443.719 108.436 444.524 107.949C445.33 107.462 445.816 106.492 445.724 105.556C445.689 105.206 446.262 105.111 446.501 105.368C446.68 105.56 446.733 105.824 446.786 106.086L446.786 106.087L446.786 106.087C446.804 106.176 446.822 106.264 446.845 106.35C446.935 106.689 447.212 107.054 447.556 106.985C447.905 106.653 448.096 106.162 448.062 105.682C448.187 105.186 448.96 105.628 449.08 106.125C449.199 106.621 449.424 107.328 449.917 107.195C450.642 107.016 450.87 106.006 450.517 105.348C450.163 104.69 449.452 104.317 448.775 104.003C447.229 103.287 445.638 102.669 444.014 102.155ZM437.515 108.016C438.632 109.139 440.256 109.737 441.834 109.605C440.867 108.387 439.221 107.751 437.685 107.986L437.515 108.016ZM357.589 219.905C352.217 221.424 346.15 220.226 341.759 216.779C337.783 218.862 333.674 220.883 329.234 221.535C324.793 222.187 319.905 221.272 316.695 218.135C317.225 219.284 317.766 220.477 317.783 221.742C317.799 223.008 317.145 224.375 315.946 224.781C313.967 225.451 312.239 223.336 311.212 221.517C310.649 222.918 311.229 224.494 311.793 226.026C312.437 227.774 313.059 229.466 311.941 230.775C310.776 232.138 308.567 231.789 306.964 230.985C300.96 227.973 298.14 220.393 299.44 213.803C300.741 207.214 305.479 201.695 311.121 198.051C307.291 195.243 304.488 191.063 303.347 186.452C304.127 187.459 304.706 188.629 305.284 189.799L305.285 189.799C305.863 190.969 306.442 192.138 307.222 193.145C307.963 194.1 308.905 194.893 309.847 195.685L309.847 195.685C310.789 196.478 311.731 197.271 312.471 198.226C312.66 198.47 312.823 198.88 312.555 199.032C307.146 202.105 302.519 207 300.984 213.028C299.449 219.057 301.585 226.173 306.882 229.434C307.816 230.009 308.929 230.47 309.989 230.19C311.049 229.91 311.844 228.579 311.236 227.668C309.518 225.095 309.309 221.589 310.709 218.83L315.148 223.807C316.169 223.545 316.421 222.172 316.149 221.154C316.063 220.831 315.945 220.512 315.827 220.194C315.574 219.509 315.321 218.827 315.389 218.111C315.489 217.061 316.858 216.123 317.581 216.889C320.468 219.949 325.105 220.816 329.257 220.143C333.409 219.47 337.213 217.477 340.932 215.513L345.322 213.194C345.005 214.461 343.979 215.524 342.724 215.885C346.962 218.929 352.628 219.885 357.63 218.401C358.492 218.145 359.376 217.792 359.935 217.088C360.494 216.384 360.584 215.239 359.909 214.645C359.827 214.573 359.735 214.509 359.643 214.446L359.643 214.446C359.463 214.321 359.283 214.197 359.18 214.007C359.024 213.721 359.266 213.241 359.564 213.371C361.254 213.254 362.296 215.524 361.607 217.072C360.919 218.62 359.219 219.444 357.589 219.905ZM327.598 197.437C326.633 197.127 325.55 197.793 325.13 198.716C324.711 199.639 324.83 200.723 325.147 201.686C325.248 200.6 325.386 199.781 325.797 199.067C325.975 198.759 326.523 198.469 327.006 198.214C327.629 197.884 328.142 197.612 327.598 197.437ZM326.78 194.708C328.188 194.358 329.778 194.9 330.678 196.037C331.579 197.175 331.742 198.847 331.077 200.137C330.918 199.944 330.88 199.595 330.833 199.157C330.693 197.862 330.47 195.794 326.78 194.708ZM325.559 204.709C325.113 205.265 326.665 206.735 329.091 205.721C329.541 205.533 329.174 205.512 328.596 205.478C328.068 205.447 327.365 205.406 326.946 205.219C326.592 205.061 326.41 204.807 326.273 204.617C326.072 204.336 325.971 204.195 325.559 204.709ZM330.475 206.569C332.03 205.794 331.055 208.066 327.802 207.787C327.508 207.762 327.125 207.649 327.128 207.353C327.129 207.25 327.404 207.226 327.832 207.188C328.496 207.13 329.529 207.04 330.475 206.569ZM320.881 202.258C321.466 202.829 322.318 202.844 322.886 202.735C323.233 202.668 323.403 202.358 323.085 202.258C323.011 202.234 322.888 202.215 322.74 202.192L322.74 202.192C322.402 202.138 321.935 202.065 321.622 201.876C321.421 201.755 321.307 201.341 321.208 200.986C321.107 200.621 321.023 200.319 320.881 200.46C320.6 200.74 320.296 201.686 320.881 202.258ZM321.4 204.191C321.683 204.622 320.604 204.474 320.372 204.191C320.14 203.909 319.912 202.844 320.3 202.844C320.413 202.844 320.452 203.012 320.498 203.213C320.54 203.398 320.59 203.612 320.709 203.748C320.942 204.012 321.098 204.051 321.213 204.08C321.291 204.099 321.349 204.114 321.4 204.191ZM369.931 202.051C370.513 203.213 369.495 204.516 368.514 205.368C364.525 208.831 359.757 211.393 354.667 212.809C360.153 212.846 365.613 210.498 369.36 206.492C371.104 204.627 372.219 201.128 369.969 199.923C372.639 199.038 375.801 197.191 375.393 194.407C375.247 193.413 374.639 192.557 374.05 191.744L373.699 191.263C370.055 186.283 365.598 181.017 359.488 180.645C363.004 178.673 367.194 181.474 370.294 184.054L371.203 184.806C375.307 188.18 379.602 191.391 384.47 193.501C389.699 195.766 395.712 196.672 401.136 194.924L416.315 190.032C419.244 189.063 422.695 187.242 422.429 184.198C422.282 182.522 420.752 181.08 419.07 181.034C417.388 180.987 415.78 182.341 415.541 184.007L415.211 181.418C414.397 180.721 413.099 181.318 412.444 182.165C412.196 182.486 411.99 182.84 411.784 183.193L411.784 183.193L411.784 183.193C411.445 183.774 411.108 184.352 410.593 184.773C408.801 186.239 406.421 185.034 404.283 183.768L402.95 182.972C399.151 180.74 394.648 180.398 390.202 180.06L390.201 180.06C389.242 179.987 388.285 179.915 387.338 179.823C381.14 179.224 375.031 177.714 369.268 175.357C374.553 179.691 381.458 180.418 388.424 181.152C391.934 181.522 395.46 181.894 398.801 182.729C401.452 183.391 404.381 184.742 405.031 187.396C405.976 191.248 401.399 194.233 397.448 194.593C390.988 195.182 384.692 192.435 379.207 188.928L378.59 188.528C376.604 187.225 374.68 185.823 372.757 184.421L372.757 184.421C369.228 181.85 365.703 179.281 361.808 177.328C365.831 177.531 368.769 174.618 371.77 171.643C373.389 170.038 375.026 168.415 376.861 167.253C382.255 163.837 389.143 164.615 395.491 165.712L396.488 165.887C394.995 158.655 391.348 151.882 386.133 146.655L395.095 164.274C385.659 161.131 374.343 165.059 368.884 173.373C373.097 159.155 383.12 146.753 396.138 139.65C400.332 141.219 403.875 144.019 407.412 146.814L407.413 146.815C408.554 147.717 409.695 148.619 410.857 149.478C415.62 153.001 421.411 155.987 427.241 154.938C431.434 154.184 434.961 151.457 438.095 148.542L438.599 148.067C442.331 144.529 445.799 140.714 448.967 136.664C452.433 132.232 456.693 126.969 462.281 127.63C463.267 127.747 464.227 128.055 465.183 128.361C466.504 128.785 467.818 129.207 469.188 129.119C471.55 128.967 473.721 125.796 471.867 124.324L462.352 116.772C461.422 116.034 460.349 115.253 459.171 115.406C458.335 115.514 457.639 116.079 456.992 116.621L454.855 118.415C449.874 122.611 444.952 126.894 440.63 131.76C440.36 132.063 440.089 132.371 439.817 132.68L439.794 132.706L439.784 132.717C436.281 136.699 432.478 141.02 427.273 141.331C422.196 141.635 417.929 137.969 414.029 134.619L414.014 134.607C413.876 134.488 413.738 134.369 413.6 134.251L413.443 134.117L412.717 133.501C408.581 130.03 404.159 126.901 399.51 124.156C395.401 121.729 390.845 119.543 386.084 119.875C380.514 120.262 375.817 123.987 371.793 127.9L371.184 128.497C369.21 130.437 366.85 132.532 364.135 132.118L363.918 132.089C361.184 131.777 358.619 133.475 356.557 135.374L356.236 135.675C350.847 140.817 346.877 147.432 344.874 154.607C333.117 151.458 320.226 152.757 309.333 158.186C306.588 159.554 303.912 161.222 302.001 163.621C299.273 167.046 298.473 171.39 297.665 175.772C297.077 178.969 296.484 182.187 295.136 185.083C294.737 185.94 294.269 186.777 293.802 187.614L293.801 187.614C292.706 189.573 291.613 191.528 291.412 193.735C291.125 196.884 294.065 200.537 296.981 199.314C299.901 198.854 301.446 194.737 299.55 192.469C300.731 193.315 302.379 193.461 303.691 192.834L300.644 187.209C305.784 184.472 310.345 180.655 313.946 176.079C315.418 174.207 318.154 173.734 320.465 174.309C322.446 174.801 324.193 175.919 325.866 177.107L326.698 177.705C325.729 178.41 326.287 180.283 327.484 180.343C326.712 177.199 329.856 173.896 333.079 174.202C336.302 174.508 338.743 177.937 338.322 181.147C336.62 185.364 332.409 187.77 328.244 190.149C323.725 192.731 319.26 195.282 318.115 200.081C316.961 204.915 320.689 210.33 325.617 210.976C330.546 211.623 335.544 207.353 335.676 202.384C335.676 202.384 336.405 202.459 336.663 201.686C337.07 200.467 337.455 199.118 337.837 197.78L337.837 197.78C338.555 195.264 339.261 192.791 340.075 191.314C342.36 187.172 346.613 183.893 351.342 183.779C352.844 183.742 354.336 183.52 355.827 183.297C357.731 183.013 359.633 182.729 361.549 182.834C364.966 183.023 368.711 185.023 369.203 188.409C365.415 187.674 361.462 187.798 357.726 188.77L370.95 190.343C373.854 190.688 374.397 195.184 372.327 197.25C370.376 199.198 367.403 199.518 364.62 199.642L364.117 199.663C364.603 200.655 365.812 200.757 367.022 200.86C368.23 200.963 369.438 201.065 369.931 202.051ZM440.272 144.267C436.172 148.818 431.38 153.71 425.259 153.938C419.906 154.138 415.224 150.688 410.893 147.498L410.573 147.262L409.539 146.507C404.701 142.997 399.689 139.725 394.529 136.708C390.534 134.372 385.938 132.115 381.456 133.274L388.551 135.507C387.355 136.148 386.928 137.894 387.694 139.015C387.859 137.337 389.8 136.27 391.465 136.532C393.13 136.795 394.485 138.017 395.517 139.351C386.573 142.781 378.963 149.57 374.541 158.067C373.719 159.647 373.003 161.281 372.288 162.914L372.288 162.915L372.288 162.916C371.318 165.131 370.349 167.344 369.115 169.42C366.971 173.026 363.795 176.307 359.709 177.263C359.137 177.397 358.55 177.485 357.965 177.572C356.79 177.748 355.619 177.924 354.574 178.468L354.48 178.517L354.401 178.559L354.299 178.613L354.211 178.66C352.984 179.315 351.472 180.123 350.716 179.058C349.477 177.313 347.503 176.109 345.384 175.808C348.886 164.041 357.897 154.041 369.237 149.337C369.879 149.071 369.633 148.11 369.283 147.51L364.125 138.684C363.648 137.869 364.206 136.76 365.045 136.328C365.885 135.895 366.885 135.96 367.822 136.077C373.789 136.82 379.533 139.268 384.202 143.058C384.948 143.664 386.172 144.259 386.718 143.467C381.392 138.096 373.775 135.606 366.278 134.603C372.758 133.969 379.459 136.01 384.487 140.148L384.731 140.348C385.932 141.323 387.386 142.359 388.771 141.762C383.157 136.376 375.48 133.198 367.702 133.039C369.302 131.849 370.797 130.526 372.291 129.203L372.292 129.202L372.292 129.202C373.81 127.858 375.329 126.514 376.958 125.309C380.191 122.918 384.056 121.052 388.07 121.286C390.985 121.456 393.718 122.714 396.296 124.083C401.747 126.977 406.879 130.47 411.57 134.48C411.902 134.763 412.236 135.051 412.573 135.341C417.032 139.184 421.896 143.376 427.66 142.834C431.174 142.504 434.288 140.381 436.761 137.863C438.129 136.47 439.349 134.944 440.569 133.418L440.57 133.417C441.555 132.185 442.541 130.952 443.606 129.789C445.141 128.11 446.919 126.532 449.101 125.892C451.283 125.251 453.943 125.781 455.239 127.65L440.272 144.267ZM299.038 175.439C299.828 171.114 300.61 166.838 303.533 163.689C304.964 162.147 306.795 161.037 308.659 160.062C318.196 155.074 329.318 153.175 339.969 154.716C342.575 155.094 345.805 156.556 345.763 159.031C345.747 159.182 345.733 159.334 345.719 159.485C345.746 159.33 345.76 159.179 345.763 159.031C346.825 148.683 352.852 138.948 361.658 133.404C362.439 138.85 364.824 144.055 368.44 148.201C358.858 152.237 350.903 159.996 346.629 169.474L346.561 169.624C345.348 172.281 343.422 175.543 340.611 174.882L342.003 166.283C342.131 165.494 342.249 164.64 341.875 163.935C341.458 163.147 340.565 162.784 339.695 162.521L339.39 162.432C334.352 161.006 328.7 159.637 324.099 162.136C321.664 163.458 319.917 165.674 318.283 167.949L317.07 169.653C314.191 173.673 310.967 177.447 307.446 180.919C306.028 182.317 304.494 183.707 302.596 184.309C300.697 184.911 298.338 184.506 297.211 182.863C298.11 180.516 298.575 177.97 299.038 175.439ZM330.088 208.946C327.096 210.056 324.662 209.509 322.328 208.15C321.328 207.568 320.387 206.819 319.825 205.809C318.981 204.294 319.107 202.414 319.594 200.749C320.322 198.262 321.81 196.002 323.809 194.352C325.191 193.211 326.782 192.373 328.373 191.536C328.922 191.247 329.471 190.958 330.012 190.656C335.288 187.713 339.84 183.481 343.158 178.432C343.821 177.424 345.217 177.097 346.386 177.395C347.555 177.693 348.529 178.493 349.371 179.356C349.974 179.973 350.422 181.201 349.617 181.513C343.983 183.694 339.446 188.534 337.633 194.297C337.584 194.453 337.537 194.61 337.489 194.768L337.488 194.772C337.212 195.684 336.934 196.606 336.342 197.344C335.648 198.21 334.254 201.261 334.965 202.707C334.965 202.707 333.079 207.837 330.088 208.946ZM337.904 163.294C338.817 163.498 339.811 163.793 340.312 164.583C340.722 165.23 340.696 166.052 340.632 166.815C340.377 169.834 339.743 172.821 338.747 175.682C338.579 176.166 338.06 176.748 337.681 176.403C337.251 174.237 335.272 172.476 333.071 172.301C330.87 172.126 328.637 173.553 327.871 175.624C327.72 176.033 327.189 176.185 326.768 176.072C326.452 175.988 326.183 175.797 325.925 175.59L325.669 175.383C323.047 173.252 319.498 172.307 316.163 172.849C317.939 169.859 320.193 167.154 322.813 164.866C323.885 163.93 325.048 163.047 326.402 162.608C327.676 162.195 329.045 162.198 330.382 162.267C332.913 162.395 335.432 162.739 337.904 163.294ZM457.485 125.243C456.21 123.884 454.463 122.975 452.617 122.716L454.711 120.056C455.375 119.222 456.151 118.367 457.199 118.235C457.954 118.14 458.697 118.45 459.385 118.778C461.685 119.874 463.853 121.247 465.828 122.858C466.487 123.395 467.15 123.995 467.436 124.796C467.722 125.597 467.492 126.645 466.724 127.011C465.957 127.377 464.851 126.575 465.166 125.785L465.196 125.696C465.325 125.247 465.122 124.717 464.716 124.48L463.974 125.902C463.906 126.026 463.827 126.146 463.704 126.214C463.209 126.487 462.807 125.718 462.775 125.154L462.769 125.076C462.716 124.52 462.425 123.811 461.914 123.984C461.845 124.936 461.164 125.816 460.259 126.121C459.354 126.426 458.28 126.139 457.648 125.423L457.485 125.243ZM297.804 195.414L296.908 192.019C296.483 191.9 296.068 192.326 296.008 192.764C295.967 193.055 296.032 193.344 296.119 193.629L296.257 194.053C296.717 195.494 296.706 197.082 296.225 198.516C295.338 196.7 294.875 194.678 294.883 192.657C294.305 192.339 293.911 193.308 293.953 193.967L294.202 197.898C292.989 196.804 292.562 195.03 292.769 193.411C292.976 191.791 293.737 190.295 294.592 188.904C295.038 188.178 295.533 187.45 296.243 186.978C296.953 186.506 297.931 186.345 298.656 186.793C299.258 187.165 299.538 187.826 299.822 188.496C300.036 189.003 300.253 189.515 300.613 189.911C300.74 190.051 300.889 190.195 301.041 190.341C301.627 190.907 302.253 191.511 301.843 192.119C300.581 191.344 299.426 190.394 298.423 189.305C298.06 191.555 298.393 193.913 299.364 195.975C299.563 196.397 298.906 196.799 298.493 196.583C298.08 196.366 297.923 195.865 297.804 195.414ZM419.022 184.305C419.668 183.733 420.259 183.21 420.545 183.353C421.378 183.768 419.115 185.594 417.917 186.11C418.003 186.689 418.843 186.429 419.333 186.11C419.824 185.791 421.197 185.447 420.928 185.795C419.253 187.961 416.02 189.683 413.03 190.02C411.818 190.156 410.32 189.832 409.934 188.676C409.582 187.62 410.366 186.579 411.195 185.795L411.394 185.612C411.743 185.3 412.303 184.996 412.624 185.335C413.478 186.239 414.972 185.5 415.956 184.739C415.956 184.739 418.513 182.272 418.942 182.43C419.368 182.587 417.666 185.369 417.666 185.369C418.088 185.132 418.568 184.707 419.022 184.305ZM406.78 186.595C407.087 186.526 407.405 186.649 407.669 186.819C408.631 187.436 409.089 188.736 408.728 189.82C408.367 190.903 407.22 191.669 406.081 191.586C405.919 191.574 405.75 191.544 405.624 191.442C405.358 191.229 405.392 190.822 405.45 190.487L405.88 188.033C405.983 187.44 406.194 186.729 406.78 186.595ZM352.613 181.023C354.26 180.745 355.966 180.813 357.586 181.222C357.492 181.89 356.712 182.194 356.051 182.33C354.012 182.752 351.905 182.842 349.838 182.598C350.356 181.625 351.525 181.207 352.613 181.023ZM455.9 126.608L451.576 124.055C453.706 123.736 455.978 124.855 457.024 126.738C456.725 127.012 456.249 126.815 455.9 126.608ZM361.154 177.817C359.321 178.303 357.509 178.867 355.725 179.508C357.578 180.533 360.21 179.713 361.154 177.817ZM343.237 175.5C343.741 175.604 343.512 176.398 343.11 176.719C341.885 177.698 340.023 177.782 338.714 176.918L343.237 175.5ZM458.298 116.272C458.594 116.201 458.9 116.322 459.178 116.447C460.984 117.262 462.638 118.413 464.031 119.822L457.817 116.649C457.913 116.462 458.093 116.32 458.298 116.272ZM363.634 133.412L363.695 133.455C364.256 133.374 364.835 133.422 365.375 133.593C364.904 134.483 364.248 135.276 363.461 135.906C363.067 135.125 363.136 134.131 363.634 133.412ZM469.959 124.694L469.972 124.733C470.658 125.012 471.125 125.757 471.078 126.496C469.664 125.763 468.519 124.522 467.902 123.054C468.747 123.346 469.486 123.935 469.959 124.694ZM341.309 178.926L341.206 179.066C340.848 179.553 340.421 180.082 339.821 180.152C339.221 180.221 338.605 179.445 339.029 179.014C339.74 178.695 340.575 178.663 341.309 178.926ZM298.784 184.955C299.32 185.08 299.925 185.471 299.841 186.014C298.614 185.854 297.403 185.571 296.233 185.169C297.033 184.834 297.94 184.758 298.784 184.955ZM412.742 184.851C412.463 184.972 412.211 184.463 412.476 184.315C412.476 184.315 414.305 181.106 414.385 183.353C414.424 183.912 413.241 184.596 412.742 184.851ZM335.43 201.326C335.566 200.352 335.822 198.516 336.342 198.516C337.079 198.438 336.796 199.694 336.596 200.578C336.541 200.822 336.492 201.038 336.473 201.19C336.406 201.721 335.91 202.139 335.341 201.883C335.363 201.805 335.392 201.6 335.43 201.326ZM163.93 234.998C167.683 235.322 171.451 235.477 175.218 235.462C174.95 239.004 177.831 242.493 181.36 242.9C184.889 243.307 188.488 240.566 189.034 237.056C189.253 235.646 191.16 235.4 192.583 235.511L201.637 236.216C203.189 236.337 205.385 235.848 205.217 234.3L204.192 224.819C204.099 223.964 204.398 222.717 205.241 222.887C208.835 223.608 212.76 220.853 213.253 217.221C213.745 213.589 210.64 209.867 206.976 209.752C205.216 209.697 204.379 207.394 204.835 205.694C205.081 204.779 205.548 203.951 206.015 203.122C206.417 202.409 206.819 201.695 207.082 200.925C207.651 199.258 207.174 196.935 205.459 196.533C192.437 193.48 178.767 193.221 165.639 195.778L165.399 195.825C164.677 195.971 163.952 196.15 163.329 196.536C161.278 197.806 161.12 200.605 161.22 203.073L161.287 204.446C161.647 212.408 161.021 220.413 159.425 228.222L159.39 228.399C159.033 230.179 158.742 232.213 159.931 233.562C160.812 234.561 162.221 234.83 163.565 234.964L163.93 234.998ZM187.026 236.907C187.131 237.42 186.999 237.954 186.793 238.435L186.727 238.581C185.516 241.139 181.909 242.236 179.492 240.74C177.03 239.216 176.426 235.385 178.3 233.177C173.538 233.748 168.712 233.785 163.942 233.289C162.465 233.135 160.535 232.338 160.837 230.885C162.914 220.891 163.562 210.601 162.757 200.425C162.611 198.581 164.881 197.624 166.701 197.29C178.44 195.135 190.587 195.224 202.294 197.552C203.792 197.849 205.719 198.988 205.056 200.363C203.493 203.6 202.869 207.284 203.277 210.855C203.381 211.766 204.094 212.958 204.889 212.502C207.03 211.272 210.129 212.258 211.166 214.499C212.203 216.74 210.948 219.74 208.625 220.576C206.301 221.412 203.423 219.898 202.795 217.51C202.233 222.428 202.433 227.433 203.386 232.29C203.716 233.974 201.264 234.609 199.553 234.482L185.894 233.464C185.476 234.123 185.905 234.805 186.356 235.522C186.638 235.969 186.928 236.43 187.026 236.907ZM257.702 206.04L284.455 206.578L284.892 206.589C285.695 206.614 286.505 206.685 287.228 207.022C288.864 207.785 289.613 209.667 290.111 211.402C292.765 220.662 292.437 230.753 289.188 239.821L289.051 240.193C288.628 241.308 288.075 242.421 287.076 243.049C286.254 243.565 285.252 243.673 284.277 243.725L284.069 243.736C280.09 243.924 276.098 243.823 272.135 243.432C274.199 242.161 274.72 239.067 273.41 237.028C272.099 234.99 269.33 234.138 266.998 234.8C265.577 235.204 264.253 236.175 263.739 237.56C263.225 238.945 263.722 240.724 265.036 241.401C265.944 241.868 265.787 243.341 264.992 243.983C264.197 244.624 263.091 244.67 262.069 244.686L248.647 244.904C247.638 244.92 246.577 244.925 245.691 244.441C244.435 243.756 243.858 242.28 243.504 240.893C242.65 237.548 242.535 234.016 243.168 230.622C243.931 233.303 247.234 234.93 249.825 233.903C252.415 232.875 253.703 229.425 252.421 226.951C251.139 224.477 247.578 223.54 245.245 225.064L245.148 224.199C244.813 221.168 244.553 218.097 245.135 215.112C245.772 211.842 247.591 208.631 250.573 207.145C252.747 206.061 255.258 206.001 257.702 206.04ZM286.905 208.839C286.236 208.436 285.428 208.366 284.642 208.333L284.446 208.326C276.124 208.015 267.797 207.857 259.469 207.854L256.693 207.858C254.937 207.864 253.124 207.889 251.517 208.597C249.118 209.653 247.564 212.102 246.93 214.645C246.296 217.188 246.448 219.852 246.604 222.468C250.821 221.306 255.358 225.591 254.857 229.937C254.357 234.282 249.539 237.42 245.246 236.582C245.052 237.955 244.86 239.38 245.263 240.707C245.666 242.034 246.844 243.233 248.23 243.188L260.674 242.788C261.445 242.763 262.509 242.365 262.285 241.627C261.014 237.438 264.683 232.549 269.06 232.598C273.437 232.647 276.995 237.619 275.629 241.778C278.364 242.394 281.208 242.523 283.988 242.158C284.891 242.04 285.833 241.849 286.524 241.256C287.204 240.674 287.538 239.793 287.821 238.944C290.71 230.291 291.026 220.796 288.72 211.969C288.422 210.828 288.008 209.6 287.053 208.934L286.905 208.839ZM168.831 291.249C167.506 282.627 167.508 273.803 168.836 265.183L168.903 264.766C169.233 262.809 169.812 260.744 171.447 259.666C172.67 258.859 174.216 258.799 175.69 258.798L186.977 258.829C187.49 258.831 188.053 258.85 188.439 259.188C188.826 259.527 188.815 260.305 188.32 260.442C187.138 260.769 186.458 262.133 186.602 263.351C186.745 264.569 187.538 265.624 188.468 266.424C190.686 268.331 194.135 269.008 196.59 267.418C199.046 265.828 199.623 261.732 197.296 259.959C202.568 259.852 207.843 259.868 213.114 260.009L215.09 260.067C215.729 260.088 216.436 260.139 216.882 260.596C217.217 260.94 217.327 261.439 217.403 261.913C217.987 265.562 217.348 269.396 215.614 272.659C215.338 273.179 214.698 273.751 214.262 273.356C212.41 271.674 209.295 271.903 207.4 273.536C205.505 275.169 204.772 277.881 205.107 280.36C205.429 282.745 207.168 285.294 209.573 285.173C210.251 285.139 210.956 284.906 211.647 284.676C212.888 284.265 214.085 283.867 215.004 284.666L212.593 295.439C212.165 297.353 211.396 299.623 209.478 300.033C198.407 302.401 186.8 302.222 175.807 299.514L175.274 299.379C173.94 299.03 172.611 298.578 171.57 297.687C169.759 296.136 169.193 293.606 168.831 291.249ZM212.867 286.593C209.735 288.066 205.655 286.802 203.695 283.949C201.735 281.097 201.927 277.02 203.938 274.204C205.949 271.387 209.564 269.89 213.012 270.185L213.3 270.21C213.784 270.251 214.279 270.269 214.69 270.027C215.209 269.721 215.43 269.093 215.575 268.508C216.151 266.175 216.119 263.694 215.483 261.376L200.892 261.483C201.158 265.533 197.824 269.486 193.787 269.906C189.75 270.327 185.673 267.146 185.098 263.128L185.018 262.531C184.931 261.928 184.796 261.333 184.346 260.95C184.03 260.682 183.615 260.575 183.204 260.494L183.051 260.464C178.806 259.662 173.424 259.329 171.196 263.031C170.437 264.291 170.234 265.799 170.079 267.262C169.193 275.662 169.403 284.176 170.705 292.521L170.768 292.912C170.98 294.154 171.311 295.429 172.235 296.262C172.871 296.835 173.705 297.119 174.532 297.353L174.739 297.41C185.325 300.322 196.596 300.711 207.359 298.541L207.956 298.418C208.485 298.306 209.035 298.178 209.451 297.832C209.993 297.382 210.201 296.655 210.382 295.974L212.867 286.593ZM291.606 307.937C291.606 307.937 291.666 306.258 291.878 305.707C292.261 304.711 293.389 303.294 293.389 303.294C293.311 303.677 293.201 304.087 293.088 304.51L293.088 304.511L293.088 304.511C292.7 305.962 292.271 307.565 292.923 308.751C293.425 309.665 300.776 314.483 303.302 315.612C314.107 320.44 324.965 324.809 335.874 329.199L335.875 329.199L335.876 329.2L335.876 329.2L335.877 329.2L335.877 329.2L335.878 329.201L335.879 329.201L335.879 329.201L335.88 329.201L335.88 329.201L335.883 329.202L335.885 329.203L335.887 329.204L335.889 329.205L335.891 329.206C340.347 330.999 344.812 332.795 349.284 334.628C341.594 333.691 334.513 330.11 327.613 326.586C326.124 334.848 330.728 343.178 336.939 348.826C341.462 352.939 346.786 355.987 352.11 359.036C354.097 360.174 356.084 361.312 358.029 362.505L358.744 362.948C365.645 367.268 372.246 372.722 375.293 380.244C375.852 381.623 377.568 382.409 378.977 381.93C380.387 381.452 381.27 379.784 380.873 378.349C382.349 379.56 381.497 382.266 379.71 382.935C377.922 383.604 375.873 382.696 374.554 381.317C373.56 380.278 372.866 379.008 372.173 377.741L372.173 377.74C371.946 377.325 371.72 376.911 371.483 376.504C367.222 369.2 359.697 364.665 352.231 360.513L348.726 358.573C340.624 354.049 332.323 348.614 328.852 340.05C316.255 342.049 303.14 340.693 291.218 336.159C288.668 335.189 286.171 334.077 283.675 332.966C279.699 331.195 275.726 329.426 271.546 328.235C269.217 327.572 266.008 327.501 265.135 329.76C265.135 329.759 265.134 329.761 265.132 329.765L265.132 329.765C265.106 329.809 264.941 330.1 264.198 330.164C263.85 330.193 263.53 329.582 263.43 329.178C263.345 329.064 263.316 328.744 263.316 328.088C263.316 327.733 264.038 326.186 265.395 325.229C266.339 324.564 267.402 324.322 267.958 324.196C268.209 324.139 268.357 324.105 268.345 324.066C268.317 323.977 267.351 323.727 266.474 324.152C265.797 324.481 265.156 324.915 264.567 325.313C263.655 325.93 262.867 326.463 262.261 326.393C261.441 326.298 260.859 325.915 260.85 325.089C260.841 324.264 261.06 323.26 261.697 322.741C263.058 321.633 264.816 321.022 266.571 321.047C266.95 321.052 267.371 321.106 267.618 321.394C267.865 321.681 267.743 322.255 267.365 322.272C265.089 322.374 262.458 322.755 261.573 325.089C261.315 325.769 262.943 325.878 263.573 325.516C263.938 325.306 264.252 325.023 264.566 324.74C264.794 324.535 265.021 324.33 265.268 324.152C266.008 323.62 266.927 323.342 267.838 323.374C268.206 323.387 268.61 323.472 268.826 323.769C269.043 324.066 268.89 324.605 268.523 324.611C266.164 324.649 264.01 326.694 263.849 329.047C263.858 329.132 263.923 329.521 264.198 329.613C264.519 329.721 264.873 329.46 264.888 329.434C266.116 327.241 268.359 325.775 270.769 326.509C271.68 326.786 272.557 327.209 273.431 327.629C274.958 328.365 276.473 329.095 278.138 329.033L277.139 323.734C273.087 320.02 266.981 318.71 261.763 320.436C261.204 320.621 260.601 320.889 260.373 321.431C260.145 321.974 260.645 322.761 261.195 322.551C260.331 323.351 258.87 321.994 259.199 320.864C259.528 319.734 260.767 319.153 261.906 318.857C268.297 317.196 274.668 320.092 280.823 322.89L280.824 322.89C281.966 323.409 283.101 323.925 284.228 324.408C296.763 329.78 310.925 331.283 324.308 328.661C323.728 330.25 321.749 330.73 320.068 330.919C308.147 332.26 295.903 330.619 284.756 326.188C283.395 327.918 284.043 330.605 285.593 332.169C287.142 333.732 289.334 334.443 291.443 335.073C303.262 338.605 315.793 341.307 327.87 338.795L325.913 327.343L325.873 327.134C325.776 326.677 325.599 326.205 325.172 326.06L325.064 326.023C309.584 320.766 297.786 316.76 282.467 302.157C282.437 302.128 282.407 302.098 282.378 302.067C282.265 306.456 280.873 307.422 275.069 306.225C262.406 303.615 249.44 302.248 236.659 304.044C237.626 299.268 238.836 294.54 240.284 289.887C236.126 291.229 231.216 287.417 231.485 283.056C231.754 278.694 237.095 275.515 241.057 277.357C242.418 274.217 242.504 270.545 241.292 267.344C240.711 265.808 243.028 264.922 244.671 264.922L253.744 264.92C255.012 264.919 256.781 264.33 256.466 263.102C255.719 260.189 257.722 256.86 260.646 256.156C263.517 255.465 266.749 257.431 267.491 260.279L267.529 260.439C268.218 263.498 272.094 264.47 275.229 264.41L276.79 264.372C279.502 264.315 282.329 264.403 284.144 266.3C286.315 268.569 285.83 272.182 285.114 275.262L285.066 275.467C284.717 276.939 284.208 278.135 283.697 279.337C282.722 281.629 281.736 283.946 281.824 288.243C281.859 289.995 281.923 291.604 281.994 293.076C282.246 292.042 282.467 291.359 282.467 291.359C282.467 291.359 312.042 313.378 330.306 316.367C332.495 314.434 331.232 310.666 329.027 308.751C328.098 307.944 327.04 307.291 325.985 306.64C324.537 305.747 323.094 304.857 321.995 303.574C319.812 301.025 319.422 297.513 319.035 294.03C318.614 290.244 318.197 286.492 315.484 284.052C315.242 283.835 314.984 283.631 314.726 283.428L314.726 283.428C314.144 282.969 313.564 282.512 313.168 281.893C312.19 280.363 312.671 278.234 313.856 276.857C315.041 275.481 316.774 274.712 318.489 274.114C322.048 272.871 325.951 272.177 329.586 273.178C333.221 274.18 336.477 277.207 336.835 280.96C337.524 279.467 339.038 278.388 340.675 278.224L338.299 280.748L341.305 280.808L337.169 283.118C339.733 287.861 339.318 293.71 337.674 298.844C337.473 299.473 337.254 300.102 337.034 300.732L337.034 300.733C336.155 303.252 335.27 305.793 335.497 308.423C335.776 311.656 338.647 314.96 341.786 314.298L341.943 314.261C345.716 313.308 349.847 313.86 353.237 315.77C357.19 317.997 359.882 321.774 362.545 325.511L362.545 325.512L362.546 325.512L362.547 325.514C363.165 326.381 363.781 327.245 364.41 328.088C367.366 332.04 370.863 335.716 375.235 338.006C379.607 340.296 384.968 341.052 389.523 339.15C390.36 338.801 391.165 338.366 391.969 337.932C393.334 337.196 394.695 336.461 396.204 336.148C398.602 335.651 401.655 336.825 401.94 339.257C400.699 337.185 397.76 336.817 395.448 337.516C394.144 337.91 392.94 338.555 391.735 339.2C390.805 339.699 389.873 340.197 388.894 340.582C383.989 342.508 378.277 341.341 373.762 338.625C369.387 335.994 365.961 332.066 362.87 327.996L362.572 327.601C362.364 327.325 362.157 327.048 361.95 326.77L361.635 326.347L361.628 326.339C359.455 323.418 357.266 320.475 354.397 318.253C351.179 315.761 346.857 314.288 342.983 315.484L342.746 315.561C339.04 316.816 335.115 313.271 334.448 309.415C333.781 305.56 335.353 301.707 336.891 298.109C338.478 294.398 335.564 290.068 331.891 288.395C328.482 286.843 324.389 286.878 321.008 288.489C319.912 289.01 319.714 290.448 319.751 291.677L319.756 291.812C319.946 296.151 321.105 300.711 324.272 303.683C325.213 304.566 326.301 305.28 327.388 305.992C328.746 306.883 330.102 307.772 331.164 308.989C333.075 311.18 333.369 315.284 330.714 316.469C335.269 317.291 339.776 318.38 344.204 319.728C320.381 317.291 298.478 306.055 282.752 292.482C282.43 293.111 282.203 293.776 282.065 294.458C282.102 295.138 282.139 295.786 282.175 296.403C282.225 297.273 282.271 298.082 282.308 298.83C283.065 301.322 284.834 303.518 287.264 304.483C287.072 302.733 287.662 300.912 288.844 299.607C288.077 301.322 286.86 304.609 291.606 307.937ZM328.198 274.401C326.078 274.006 323.924 273.796 321.767 273.774C321.621 274.045 321.565 274.365 321.612 274.669C324.016 274.869 326.383 275.503 328.566 276.53C327.654 277.442 326.147 276.896 324.922 276.452L324.85 276.426C322.758 275.669 320.461 275.485 318.275 275.902C317.16 276.114 316.045 276.496 315.187 277.238C314.328 277.98 313.766 279.135 313.958 280.253C314.203 281.682 315.546 282.658 316.887 283.207C320.212 284.57 324.198 284.186 327.202 282.214C327.445 282.054 327.789 282.321 327.803 282.612C327.817 282.903 327.621 283.16 327.415 283.365C326.217 284.557 324.436 284.936 322.75 285.035C322.257 285.063 321.762 285.073 321.267 285.083C320.066 285.106 318.867 285.129 317.708 285.423C317.864 286.379 319.058 286.708 320.025 286.779C323.718 287.047 327.465 286.55 330.96 285.328C331.835 285.022 332.64 285.899 333.156 286.669L336.921 292.288C338.158 291.124 338.084 289.112 337.501 287.517C337.273 286.893 336.983 286.292 336.693 285.692C336.241 284.755 335.791 283.821 335.578 282.808C335.461 282.25 335.419 281.677 335.377 281.106V281.105C335.319 280.302 335.26 279.502 334.994 278.746C334.057 276.085 330.971 274.917 328.198 274.401ZM282.713 325.693L279.295 323.73C278.916 323.512 278.217 323.475 278.255 323.911C278.138 325.675 278.282 327.836 279.416 329.307C280.131 330.233 280.647 330.707 283.171 331.334L282.986 326.393C282.976 326.131 282.94 325.824 282.713 325.693ZM334.757 298.815C335.173 298.574 335.437 298.145 335.685 297.733C336.127 296.997 336.583 296.216 336.603 295.357C336.622 294.499 336.029 293.561 335.17 293.528C334.743 293.511 334.337 293.714 333.988 293.961C333.214 294.509 332.616 295.303 332.304 296.198C332.699 296.768 333.593 296.259 333.991 295.691C334.389 295.124 334.978 294.406 335.611 294.69C335.193 296.138 334.454 297.493 333.463 298.629C333.728 299.03 334.341 299.056 334.757 298.815ZM341.594 340.548C340.644 339.039 339.618 337.409 337.924 336.918C341.681 343.99 347.504 349.948 354.488 353.866C356.926 355.234 359.498 356.357 362.067 357.48C365.651 359.045 369.229 360.609 372.434 362.83C376.45 365.614 379.771 369.391 382.018 373.729C381.134 367.543 375.962 362.808 370.44 359.883C367.94 358.559 365.313 357.491 362.688 356.424L362.687 356.424C359.514 355.135 356.342 353.846 353.398 352.105C348.706 349.33 344.684 345.429 341.768 340.823L341.657 340.647L341.594 340.548ZM353.396 342.64L353.501 342.873C353.964 343.943 354.284 345.288 353.416 346.012C352.724 346.59 351.675 346.369 350.859 345.986C349.095 345.158 347.637 343.695 346.814 341.928C347.844 341.724 348.809 341.206 349.548 340.461C350.163 339.842 351.25 339.967 351.942 340.497C352.634 341.028 353.028 341.85 353.396 342.64ZM352.836 345.172C353.725 343.576 351.912 341.222 351.026 341.07C350.641 341.003 350.243 341.385 349.816 341.795C349.378 342.215 348.908 342.666 348.39 342.692C348.39 342.692 351.947 346.768 352.836 345.172ZM397.664 349.76C419.246 349.051 440.316 338.537 453.86 321.718C454.561 320.848 455.949 320.833 456.924 321.38C457.898 321.927 458.557 322.888 459.18 323.816C459.859 323.717 459.879 322.663 459.411 322.161C459.18 321.913 458.891 321.733 458.601 321.553C458.303 321.368 458.005 321.184 457.772 320.926C456.829 319.882 457.333 318.239 457.885 316.945L460.348 311.179C460.677 310.407 461.193 309.506 462.033 309.517C462.648 309.526 463.121 310.039 463.511 310.514C467.76 315.691 471.702 321.12 475.308 326.763C473.085 327.108 470.947 326.012 468.838 324.932C466.483 323.725 464.164 322.537 461.802 323.393C459.743 324.139 458.531 326.211 457.441 328.11C453.876 334.321 449.792 340.304 444.619 345.256C432.606 356.758 415.843 361.735 399.512 364.883C409.614 368.706 420.741 369.779 431.387 367.955C437.48 366.911 443.555 364.855 448.303 360.898C450.225 359.296 451.893 357.414 453.553 355.541L465.782 341.736C466.498 340.928 467.82 341.704 468.487 342.553C469.154 343.402 470.059 344.46 471.076 344.098C470.348 342.468 469.084 341.082 467.527 340.207C467.435 338.26 467.376 336.174 468.412 334.522C469.447 332.871 472.028 332.066 473.371 333.479C477.775 338.111 481.994 342.919 486.017 347.886C483.656 348.257 481.414 347.242 479.188 346.233L479.188 346.233L479.187 346.233C478.499 345.921 477.813 345.611 477.126 345.342C474.213 344.203 470.13 344.227 468.801 347.058C465.168 354.803 461.393 362.746 455.157 368.601C444.742 378.38 429.525 380.588 415.329 382.198C409.034 382.912 402.566 383.589 396.437 381.986C391.975 380.819 387.915 378.498 383.916 376.202L380.742 374.379C379.808 374.613 380.558 376.029 381.388 376.518C386.701 379.652 392.178 382.845 398.272 383.805C399.824 384.05 401.396 384.145 402.967 384.204C417.428 384.748 431.996 382.211 445.422 376.812C451.021 374.56 456.719 371.55 459.794 366.358L470.629 348.059C471.044 347.359 471.5 346.619 472.237 346.271C473.134 345.847 474.189 346.117 475.141 346.394L485.298 349.344C486.336 349.645 487.3 348.428 487.192 347.353C487.084 346.277 486.307 345.406 485.569 344.616L476.203 334.591C474.967 333.269 473.639 331.888 471.894 331.407C470.149 330.926 467.906 331.773 467.565 333.551C466.558 338.798 462.973 343.122 459.514 347.194C454.159 353.497 448.585 359.974 441.152 363.6C430.494 368.801 417.9 367.29 406.231 365.178L413.798 362.974C417.543 361.883 421.294 360.79 424.925 359.363C439.009 353.828 451.007 343.149 458.136 329.801C459.374 327.484 460.829 324.806 463.415 324.341C465.539 323.959 467.35 325.214 469.202 326.496C470.303 327.258 471.418 328.031 472.622 328.475C474.397 329.13 477.152 328.198 476.735 326.352C476.64 325.935 476.387 325.574 476.14 325.225L466.505 311.642C465.169 309.757 463.165 307.628 460.966 308.336C459.199 308.904 458.536 310.944 457.951 312.743C457.916 312.851 457.881 312.958 457.847 313.064C455.104 321.421 447.73 327.259 440.731 332.585C437.669 334.915 434.599 337.251 431.294 339.223C421.641 344.982 410.321 347.421 399.104 348.149C395.934 348.355 393.943 351.328 392.12 354.049L392.117 354.052C391.901 354.375 391.688 354.693 391.475 355.004C388.353 359.553 383.907 363.182 378.825 365.33C379.675 366.269 381.224 365.706 382.298 365.035C387.398 361.848 391.723 357.432 394.805 352.268C395.485 351.129 396.338 349.804 397.664 349.76ZM329.948 301.005C329.452 302.091 328.345 302.874 327.155 302.98C325.965 303.085 324.738 302.51 324.058 301.528C323.808 301.167 323.81 300.463 324.248 300.501C325.158 301.709 327.056 302.022 328.305 301.169C328.846 300.799 329.785 300.37 329.948 301.005ZM320.381 293.106C320.489 292.196 321.257 291.405 322.163 291.27C323.07 291.135 324.035 291.667 324.404 292.506C323.741 292.506 323.297 292.386 322.927 292.287C322.174 292.083 321.73 291.964 320.381 293.106ZM327.408 298.178L326.377 298.62L326.317 298.586C326.049 299.095 325.262 298.518 325.201 297.946C325.189 297.828 325.183 297.702 325.177 297.576C325.154 297.091 325.13 296.587 324.729 296.369C324.228 297.091 323.999 298.04 324.29 298.869C324.582 299.698 325.468 300.326 326.333 300.17C327.197 300.014 327.818 298.955 327.408 298.178ZM328.647 291.144C329.952 291.249 330.299 291.319 330.659 292.178C330.73 292.346 330.172 292.187 329.641 292.036L329.641 292.036L329.639 292.035C329.249 291.924 328.873 291.817 328.771 291.847C324.404 293.142 327.342 291.039 328.647 291.144ZM328.279 293.4C328.999 293.971 328.79 296.248 327.726 295.82C327.28 295.64 326.748 292.186 328.279 293.4ZM362.799 354.374C362.455 353.945 362.846 353.18 363.395 353.207C363.637 353.364 363.802 353.635 363.83 353.923C363.622 354.261 363.192 354.446 362.803 354.364L362.799 354.374ZM352.993 349.935L353.742 349.821L353.802 349.799C354.063 349.313 353.211 348.757 352.871 349.192C352.797 349.441 352.843 349.723 352.993 349.935ZM358.332 352.893C357.897 353.011 357.838 352.264 358.083 351.886L359.121 352.359C358.961 352.639 358.664 352.837 358.343 352.877L358.332 352.893ZM345.369 342.012C345.254 341.727 344.841 341.618 344.6 341.809L344.666 341.875C344.458 342.148 344.623 342.612 344.956 342.692C345.262 342.662 345.484 342.297 345.369 342.012ZM322.564 295.873C322.146 295.873 321.708 295.464 321.73 294.754C321.752 294.044 321.945 293.388 322.564 293.736C323.183 294.085 322.994 295.873 322.564 295.873ZM127.932 209.601C128.184 209.932 128.759 209.786 128.98 209.435C129.202 209.083 129.174 208.635 129.134 208.221C128.555 202.238 127.002 196.35 124.555 190.859C123.858 189.295 123.125 187.345 124.192 186.006C126.659 192.172 129.146 198.413 130.045 204.993C130.29 206.788 130.378 208.755 129.377 210.266C128.376 211.776 125.881 212.356 124.769 210.925C126.48 210.567 127.789 208.835 127.665 207.092C128.456 207.63 128.592 208.908 127.932 209.601ZM147.871 328.402C156.822 327.911 167.191 326.619 171.886 318.983C173.103 317.003 172.844 313.89 172.63 311.324C172.458 309.263 172.315 307.556 172.992 307.073C174.511 305.991 175.726 308.783 175.726 308.783C175.771 308.599 175.822 308.37 175.879 308.113L175.88 308.112C176.304 306.209 177.085 302.704 178.312 303.362C178.817 303.633 178.644 305.337 178.524 306.508C178.496 306.783 178.471 307.028 178.459 307.219C178.43 307.399 178.426 307.551 178.447 307.658C178.464 307.651 178.482 307.641 178.501 307.628C178.514 307.626 178.529 307.615 178.548 307.592C178.747 307.425 179.018 307.011 179.321 306.55C179.948 305.596 180.706 304.442 181.214 304.866C182.011 305.532 179.175 309.784 179.175 309.784C179.175 309.784 182.543 306.083 182.828 307.658C183.112 309.233 175.441 323.461 168.517 329.041C161.592 334.621 151.836 337.745 143.014 336.626C143.211 333.127 144.372 328.594 147.871 328.402ZM178.548 307.592C178.532 307.606 178.516 307.618 178.501 307.628C178.448 307.637 178.441 307.479 178.459 307.219C178.524 306.807 178.716 306.243 179.024 305.704C178.965 305.889 178.907 306.068 178.852 306.236C178.606 306.99 178.428 307.536 178.613 307.494C178.588 307.538 178.567 307.57 178.548 307.592ZM180.215 304.382C179.719 304.695 179.318 305.188 179.024 305.704C179.483 304.248 179.948 302.413 178.817 302.266C176.899 302.017 175.024 305.139 175.357 306.798C174.824 305.477 172.609 306.049 172.072 307.368C171.661 308.381 171.836 309.49 172.01 310.591L172.01 310.591C172.062 310.925 172.115 311.258 172.151 311.588C172.727 316.851 168.782 321.77 163.998 324.04C159.489 326.18 154.37 326.48 149.364 326.635L148.197 326.67C145.339 326.744 142.244 326.679 140.062 324.854C137.815 322.974 137.818 318.514 140.64 317.726C147.803 315.726 153.267 308.746 153.49 301.312C153.556 299.114 154.98 297.286 156.358 295.519C156.481 295.36 156.605 295.202 156.727 295.044L157.029 294.648C158.571 292.603 159.838 289.786 158.543 287.577C156.538 290.15 152.781 291.187 149.74 290.008C148.471 289.516 147.346 288.694 146.229 287.877C144.733 286.783 143.249 285.698 141.447 285.427C137.923 284.896 134.427 288.465 135.03 291.977C134.076 291.176 132.596 292.388 132.492 293.63C132.432 294.359 132.624 295.069 132.816 295.782C132.951 296.282 133.087 296.783 133.136 297.294C133.193 297.889 133.132 298.485 133.071 299.081C133.03 299.484 132.989 299.887 132.984 300.291C132.958 302.382 133.89 304.317 134.807 306.222C134.9 306.415 134.992 306.607 135.084 306.799L135.329 307.322C136.374 309.586 137.148 312.281 136.035 314.513C134.922 316.745 131.133 317.444 130.059 315.193C124.798 304.16 112.874 296.648 100.651 296.667C86.4984 296.688 73.7651 306.014 65.4249 317.448C64.3847 318.874 63.3667 320.41 63.14 322.161C62.9133 323.911 63.7256 325.92 65.3907 326.505C67.0558 327.091 69.215 325.453 68.6724 323.774C69.5172 324.76 71.245 323.827 71.6429 322.591C71.8665 321.897 71.8638 321.164 71.8611 320.429C71.8589 319.856 71.8568 319.281 71.962 318.722C72.4779 315.98 75.2982 314.397 77.8366 313.239L78.3485 313.006C84.3278 310.301 90.5574 307.885 97.0975 307.425C103.825 306.953 111.003 308.823 115.626 313.732C109.318 315.229 105.655 321.558 102.735 327.404L102.33 328.22C99.3814 334.14 95.5199 340.599 89.0547 341.854C89.3005 343.13 90.4267 344.185 91.7155 344.347L68.0139 358.438L69.8322 360.693C64.0614 369.538 57.5346 377.889 50.3464 385.626C46.4381 389.832 41.3633 394.191 35.7056 393.212C34.6827 393.035 33.691 392.684 32.7027 392.334L32.7021 392.334C31.2547 391.821 29.8146 391.311 28.2948 391.355C25.7372 391.428 23.1705 394.539 24.9066 396.418C28.7514 400.581 33.1397 404.241 37.9247 407.276L38.0486 407.354C38.6312 407.717 39.2719 408.056 39.9473 407.978C40.6301 407.9 41.1861 407.414 41.6939 406.951L73.7937 377.683C76.4226 375.305 79.3158 372.926 82.8179 372.577L83.1134 372.541C85.7036 372.181 87.8374 370.543 89.9773 368.901L89.9776 368.901L89.9779 368.901C90.9094 368.186 91.8421 367.47 92.8142 366.858C96.1039 364.788 101.56 364.575 102.84 368.245C103.52 370.196 102.63 372.18 101.753 374.135L101.753 374.136C101.491 374.718 101.231 375.298 101.014 375.874C100.068 378.383 100.843 382.241 103.524 382.194L118.525 381.928C119.065 381.923 119.632 381.953 120.052 382.283C120.49 382.628 120.644 383.202 120.729 383.766L120.763 384.024C121.328 388.618 121.25 393.292 120.533 397.865C119.755 402.822 117.685 408.273 113.008 410.09C110.059 411.236 106.773 410.641 103.667 409.93L84.7902 405.521C84.7587 403.234 86.8267 401.373 89.0313 400.768C90.9006 400.254 92.8639 400.411 94.8083 400.566L94.8213 400.567L95.1664 400.594L95.8521 400.645C100.629 400.974 105.459 400.53 110.096 399.336L103.405 382.591C104.087 388.15 105.591 393.608 107.852 398.732L85.8544 399.446C83.939 399.499 81.8124 399.415 80.5248 398.017C80.1942 397.658 79.9187 397.216 79.6457 396.779C79.0851 395.88 78.5349 394.998 77.5395 394.883C76.6794 394.783 75.9003 395.358 75.2415 395.92C70.9408 399.588 67.3699 404.109 64.7971 409.142C65.7247 411.439 68.7979 412.081 71.1854 411.422C72.582 411.037 73.8568 410.342 75.134 409.646L75.1345 409.646C76.0405 409.152 76.9477 408.658 77.9005 408.272C83.2179 406.123 89.0637 407.58 94.6792 409.271L98.0148 410.286C104.606 412.266 112.644 413.282 117.583 408.489C120.498 405.661 121.56 401.453 122.137 397.432C123.803 385.832 122.452 373.811 118.255 362.869C122.935 361.063 125.143 355.828 126.86 351.115L130.223 341.885C131.346 338.801 133.898 335.017 136.936 336.259C145.62 339.811 155.878 338.309 163.963 333.549C172.048 328.788 178.1 321.077 182.177 312.626L182.286 312.398C183.084 310.719 184.101 306.801 183.192 306.366C182.854 306.101 182.251 306.542 181.84 306.843C181.617 307.005 181.451 307.127 181.414 307.073C181.391 307.041 181.465 306.824 181.571 306.516C181.986 305.306 182.882 302.695 180.215 304.382ZM122.747 356.195C121.696 358.557 119.958 361.337 117.392 361.023C116.018 360.855 114.98 359.819 114.046 358.753L113.546 358.173C108.123 351.878 100.755 347.694 93.3506 343.842L90.8836 342.568C96.9153 341.381 100.636 335.416 103.293 329.873L104.14 328.106C106.569 323.069 109.334 317.887 114.345 315.619C115.037 315.306 115.832 315.057 116.546 315.317C116.654 315.356 116.771 315.401 116.893 315.448C117.775 315.787 118.911 316.224 118.893 315.388C117.285 314.74 117.02 312.395 117.948 310.93C118.794 309.593 120.261 308.821 121.714 308.156L122.128 307.969C121.201 306.691 119.193 307.766 118.144 308.944L118.058 309.04C117.005 310.195 115.389 311.46 114.174 310.521C109.153 306.642 102.462 305.396 96.146 306.005C89.8303 306.614 83.8045 308.924 78.0348 311.564C75.9201 312.531 73.7722 313.586 72.2028 315.302C70.9888 316.63 70.8629 318.397 70.7365 320.173C70.6995 320.693 70.6624 321.214 70.598 321.725C70.4421 322.959 69.7629 323.007 69.1645 323.048C68.8438 323.071 68.5464 323.091 68.3653 323.292C68.3507 323.308 68.3037 323.38 68.2332 323.489C67.874 324.04 66.9018 325.533 66.4628 325.385C65.8179 325.166 66.1468 323.774 66.1468 323.774C66.1468 323.774 64.233 324.321 64.0905 323.774C63.5922 321.86 66.4628 317.944 66.4628 317.944C71.2891 310.844 78.4463 304.953 86.315 301.528C94.3295 298.04 103.682 297.367 111.875 300.412C121.111 303.845 128.426 312.046 130.784 321.613C131.372 323.999 134.146 325.052 136.571 325.448C136.799 325.486 137.03 325.522 137.262 325.558C139.5 325.908 141.879 326.279 143.305 327.988C143.725 328.491 143.609 329.236 143.465 329.876L143.422 330.061C142.891 332.343 141.963 334.896 139.746 335.589C137.731 336.218 135.343 334.593 135.189 332.488C135.176 332.303 135.172 332.107 135.167 331.908C135.151 331.09 135.133 330.228 134.446 329.89L122.747 356.195ZM103.692 368.673C102.939 364.801 100.649 361.318 97.6439 358.763C97.7611 360.285 98.4049 361.761 99.4404 362.883C94.3487 364.501 89.5471 367.028 85.3295 370.308C84.2007 371.186 82.283 371.986 81.6219 370.718C79.0208 365.73 74.88 361.558 69.9113 358.919L90.3387 347.18C91.262 346.65 92.2385 346.104 93.3033 346.093C94.1287 346.085 94.9129 346.401 95.6592 346.769L96.0292 346.957C103.674 350.894 110.516 356.379 116.022 362.984C117.386 364.619 118.02 366.713 118.56 368.785L120.99 378.277C121.151 378.906 121.269 379.684 120.776 380.107C120.499 380.345 120.109 380.385 119.745 380.413L119.319 380.446C113.27 380.912 108.39 381.288 102.33 380.413C101.425 378.68 102.109 376.531 102.814 374.313C103.419 372.412 104.04 370.46 103.692 368.673ZM73.3029 362.836C75.5695 364.832 77.6128 367.081 79.3827 369.528C79.572 369.79 79.7668 370.083 79.7466 370.405C79.7231 370.781 79.4183 371.071 79.1346 371.319L52.7326 394.427C51.6317 395.39 49.8756 395.222 48.6424 394.434C47.5635 393.746 46.792 392.689 46.0841 391.613L45.784 391.151C52.6647 387.535 57.0786 381.057 61.5316 374.522C64.3248 370.423 67.1335 366.301 70.576 362.848C70.9106 362.512 71.2881 362.165 71.759 362.112C72.3416 362.047 72.863 362.449 73.3029 362.836ZM150.189 298.38L150.863 298.587C152.176 298.993 152.394 300.752 152.227 302.116C151.535 307.763 148.025 313.353 142.612 315.108L142.419 315.173C138.892 316.418 136.371 320.107 136.522 323.85C134.154 324.293 131.616 322.399 131.367 320.004C131.318 319.526 131.459 318.906 131.934 318.833C134.085 318.502 136.063 317.182 137.194 315.323C138.324 313.464 138.586 311.1 137.891 309.039C137.748 308.618 137.568 308.196 137.387 307.774C136.873 306.573 136.356 305.368 136.718 304.158C137.542 304.234 137.698 305.364 137.611 306.188L137.602 306.288C137.535 307.099 137.678 308.14 138.466 308.249C138.985 307.057 139.093 305.723 139.2 304.399C139.335 302.727 139.469 301.072 140.427 299.739C141.523 298.217 143.49 297.517 145.366 297.495C147.007 297.476 148.612 297.902 150.189 298.38ZM31.5614 393.593L31.7307 393.398C32.6756 393.191 33.5779 394.401 33.1099 395.248C32.8097 395.791 33.733 396.328 34.2485 395.983C34.7641 395.637 34.8681 394.935 34.9248 394.317C35.4434 394.155 35.8921 394.749 35.99 395.284C36.0159 395.425 36.0319 395.571 36.048 395.717C36.0927 396.125 36.1375 396.533 36.3945 396.839C36.7437 397.255 37.669 397.04 37.5172 396.518C37.2908 395.739 38.2105 395.104 39.0132 394.989C39.2062 394.962 39.4054 394.945 39.6052 394.929C40.2364 394.877 40.8727 394.825 41.3322 394.415L41.4015 394.359C41.9846 393.946 42.7066 394.711 43.1467 395.391L43.3514 395.72C44.3192 397.224 45.9641 398.278 47.7375 398.519C48.085 398.566 47.9083 399.108 47.653 399.348L41.6677 404.985C41.3776 405.258 40.9074 405.063 40.5676 404.855C37.0148 402.68 33.7351 400.059 30.8295 397.074C29.9142 396.134 30.6905 394.633 31.5614 393.593ZM83.9029 404.084C83.7303 404.795 83.2396 405.59 82.5101 405.536C80.752 405.406 78.9693 405.618 77.2907 406.157C77.4447 405.441 77.1316 404.647 76.5305 404.229C76.0919 404.856 76.2712 405.828 76.9048 406.258L75.2313 407.911L74.4302 406.07C74.0352 406.176 74.0237 406.66 74.0509 407.105L74.0704 407.381C74.1506 408.546 73.1621 409.679 71.9966 409.758C70.831 409.837 69.6993 408.846 69.6222 407.681C69.5383 406.411 70.5108 405.346 71.4149 404.45L77.835 398.093C77.9715 397.964 78.1278 397.843 78.3122 397.846C78.5158 397.85 78.681 398.004 78.8243 398.149L81.3295 400.677C81.8154 401.167 81.5084 401.917 81.2091 402.648C80.9011 403.401 80.6014 404.133 81.1831 404.541C81.7494 404.574 82.2209 404.082 82.4386 403.559C82.5497 403.291 82.6172 403.009 82.6847 402.727C82.7495 402.456 82.8143 402.185 82.9177 401.927C83.1289 401.401 83.5845 400.9 84.1517 400.912C84.7189 400.924 85.1565 401.734 84.7179 402.094C84.2503 402.478 84.1167 403.101 83.9869 403.708L83.9868 403.708C83.9597 403.835 83.9327 403.961 83.9029 404.084ZM40.0076 406.895C34.2371 403.808 29.1362 399.477 25.1548 394.283C25.6769 393.788 26.462 394.314 26.967 394.875L27.092 395.021C30.8749 399.702 35.6258 403.598 40.9576 406.39C40.9144 406.811 40.3807 407.094 40.0076 406.895ZM67.6823 405.713C70.182 402.444 72.9516 399.381 75.9537 396.566C76.4191 396.13 77.3857 395.835 77.5034 396.462C74.0084 399.799 70.6657 403.294 67.489 406.935C67.1438 406.635 67.4047 406.076 67.6823 405.713ZM48.4849 397.539C46.7406 396.919 45.1856 395.777 44.0715 394.298C43.6523 393.742 43.3878 392.775 44.023 392.489C44.525 392.263 45.0073 392.737 45.3575 393.198L45.62 393.555C46.7483 395.044 48.3576 396.163 50.1475 396.699C50.1507 397.176 49.7553 397.624 49.2811 397.68C49.0109 397.711 48.7412 397.63 48.4849 397.539ZM134.082 300.796C134.902 300.816 135.596 301.67 135.447 302.477L135.467 302.488C135.58 303.073 135.506 303.693 135.257 304.234C134.36 303.355 133.911 302.04 134.082 300.796ZM149.704 300.816C149.808 300.807 149.917 300.797 150.027 300.796C150.165 300.794 150.325 300.819 150.475 300.842L150.475 300.842C150.881 300.905 151.221 300.958 150.9 300.456C150.46 299.767 149.173 299.69 148.962 300.479C149.021 300.876 149.328 300.849 149.704 300.816L149.704 300.816ZM150.74 304.221L150.759 304.15C151.072 302.965 150.891 302.029 150.027 302.029C149.694 302.054 149.185 303.751 149.234 304.266C149.282 304.78 149.862 305.256 150.311 305.001C150.578 304.849 150.663 304.52 150.74 304.221ZM145.044 303.861C144.442 303.025 144.379 301.835 144.889 300.939C144.965 300.806 145.057 300.674 145.19 300.598C145.528 300.404 145.98 300.666 146.129 301.026C146.278 301.386 146.213 301.794 146.145 302.177C146.145 302.177 145.646 304.698 145.044 303.861ZM272.579 303.886C261.581 301.188 250.091 300.506 238.851 301.885C240.802 297.34 241.659 292.329 241.328 287.394C238.399 289.447 233.59 287.039 233.479 283.464C233.368 279.889 238.018 277.187 241.069 279.054C241.878 279.549 242.767 278.523 243.09 277.632C244.191 274.596 244.202 271.177 243.12 268.134C242.698 266.949 244.487 266.306 245.744 266.331L256.418 266.542C257.135 266.556 257.896 266.559 258.508 266.186C259.12 265.813 259.468 264.915 259.018 264.357C257.171 262.066 259.294 257.964 262.231 258.149C265.169 258.333 266.762 262.668 264.642 264.711C264.247 265.092 265.015 265.582 265.564 265.595L279.52 265.916C282.296 265.98 284.257 268.937 284.37 271.711C284.466 274.058 283.633 276.307 282.809 278.527C282.737 278.721 282.666 278.914 282.595 279.108L282.367 279.736C279.895 286.672 279.099 294.198 280.067 301.498C280.255 302.922 278.944 304.189 277.541 304.497C276.303 304.769 275.029 304.499 273.789 304.189L272.579 303.886Z" fill="#00160A"/>
<path fill-rule="evenodd" clip-rule="evenodd" d="M123.824 176.148C123.925 175.49 124.802 175.11 125.435 175.336C126.069 175.562 126.635 176.471 126.17 176.985C125.435 177.798 123.626 177.425 123.824 176.148Z" fill="#FFB61D"/>
<path fill-rule="evenodd" clip-rule="evenodd" d="M399.618 346.489C399.204 346.837 398.373 346.962 398.296 346.427C399.912 344.782 401.025 342.648 401.447 340.381C401.974 340.24 402.127 341.08 401.995 341.61C401.548 343.396 401.028 345.305 399.618 346.489Z" fill="#00160A"/>
<path d="M42.7568 150.545C42.7404 151.075 41.9362 151.044 41.4499 150.833C41.6249 150.359 42.3346 150.201 42.6941 150.555L42.7568 150.545Z" fill="black"/>
<path fill-rule="evenodd" clip-rule="evenodd" d="M272.251 296.196C271.691 296.695 270.748 295.933 270.831 295.187C270.915 294.442 271.575 293.909 272.209 293.507C274.479 292.068 277.109 291.202 279.79 291.008C279.862 292.03 278.536 292.453 277.53 292.649C275.396 293.065 273.363 293.99 271.646 295.325C271.957 295.515 272.182 295.839 272.251 296.196V296.196Z" fill="#00160A"/>
<path fill-rule="evenodd" clip-rule="evenodd" d="M279.866 297.501C278.608 298.107 277.327 298.668 276.028 299.182C276.176 299.73 276.964 299.712 277.497 299.519C278.031 299.326 278.734 299.124 279.08 299.574C278.201 300.914 276.025 301.123 274.908 299.974C274.422 299.475 273.542 299.804 272.915 299.501C272.017 299.067 272.184 297.711 272.713 296.866C273.817 295.101 275.921 294.012 278 294.131C278.791 294.177 279.737 294.567 279.789 295.358C277.307 295.202 274.776 296.226 273.1 298.064C274.052 298.801 275.418 298.251 276.492 297.706C277.566 297.162 278.983 296.682 279.866 297.501Z" fill="#00160A"/>
<path fill-rule="evenodd" clip-rule="evenodd" d="M147.723 304.542C148.436 305.254 148.731 305.581 148.731 306.629C148.731 307.678 148.162 308.351 147.203 308.659C146.76 308.801 146.147 308.692 146.033 308.242C149.231 307.588 148.055 306.194 147.723 304.542Z" fill="#00160A"/>
<path fill-rule="evenodd" clip-rule="evenodd" d="M143.456 300.082C143.797 298.95 145.281 298.339 146.32 298.901C146.731 299.124 147.073 299.529 147.094 299.997C145.882 300.025 144.883 299.241 143.456 300.082Z" fill="#00160A"/>
</svg>
