<?xml version="1.0" standalone="no"?>
<!DOCTYPE svg PUBLIC "-//W3C//DTD SVG 20010904//EN"
 "http://www.w3.org/TR/2001/REC-SVG-20010904/DTD/svg10.dtd">
<svg version="1.0" xmlns="http://www.w3.org/2000/svg"
 width="1123.000000pt" height="414.000000pt" viewBox="0 0 1123.000000 414.000000"
 preserveAspectRatio="xMidYMid meet">

<g transform="translate(0.000000,414.000000) scale(0.100000,-0.100000)"
fill="#000000" stroke="none">
<path d="M1450 4031 c-103 -34 -166 -110 -177 -216 l-6 -53 -54 29 c-92 48
-188 37 -265 -30 -46 -41 -71 -87 -85 -159 l-8 -44 -27 21 c-35 28 -101 51
-146 51 -86 0 -172 -54 -215 -134 l-22 -41 0 -930 0 -930 32 -67 32 -68 -196
0 -196 0 6 -114 c15 -282 100 -520 264 -738 321 -425 875 -605 1398 -453 243
71 496 246 648 448 167 222 251 452 264 724 l6 133 -146 0 -146 0 27 58 27 57
3 703 2 702 -38 0 c-67 0 -155 -21 -214 -51 l-58 -29 0 359 c0 387 -4 420 -54
485 -64 85 -204 111 -302 57 l-52 -28 -5 48 c-10 84 -58 153 -131 191 -43 22
-128 32 -166 19z m138 -101 c18 -11 41 -34 52 -52 19 -32 20 -52 20 -633 0
-653 -1 -645 55 -645 55 0 55 1 55 545 l0 500 25 37 c62 92 212 83 258 -15 15
-31 17 -84 17 -457 l0 -423 -27 -71 c-25 -68 -27 -80 -31 -312 l-4 -240 -48
-22 c-27 -13 -74 -45 -104 -73 -61 -55 -72 -90 -35 -109 22 -12 23 -12 114 60
28 22 73 50 102 62 l52 21 3 276 c3 263 4 278 26 326 42 92 137 166 231 181
l42 7 -3 -645 -3 -644 -30 -59 c-33 -65 -95 -119 -167 -147 -42 -16 -37 -17
194 -17 l237 -1 -5 -53 c-14 -143 -28 -221 -60 -317 -142 -427 -510 -738 -956
-810 -126 -20 -370 -8 -493 24 -341 91 -634 337 -784 657 -65 139 -111 326
-111 455 l0 44 283 1 282 0 -51 20 c-67 26 -129 80 -162 143 l-27 51 -3 915
c-2 1023 -7 958 68 1008 29 20 44 23 93 20 51 -4 63 -9 95 -41 l37 -37 5 -414
c5 -445 6 -446 58 -446 14 0 34 7 44 17 17 15 18 44 18 507 0 448 2 494 18
526 51 102 200 110 263 14 18 -27 19 -56 19 -524 0 -539 0 -540 55 -540 56 0
55 -8 55 645 0 581 1 601 20 633 28 45 76 72 130 72 27 0 58 -8 78 -20z"/>
<path d="M1359 2495 c-64 -16 -103 -47 -133 -107 -44 -88 -28 -176 45 -245 43
-40 77 -53 140 -53 109 0 209 98 209 205 0 62 -56 156 -111 186 -37 19 -105
26 -150 14z"/>
<path d="M1275 2016 c-27 -12 -65 -36 -84 -52 -41 -35 -107 -134 -116 -174
l-7 -30 -92 0 c-106 0 -126 -11 -126 -72 0 -60 19 -68 158 -68 l122 0 0 -130
0 -130 110 0 110 0 0 340 c0 265 -3 340 -12 340 -7 0 -35 -11 -63 -24z"/>
<path d="M1470 1700 l0 -340 90 0 90 0 0 96 0 96 55 85 c55 83 55 85 44 126
-17 66 -47 116 -101 173 -46 49 -134 104 -165 104 -10 0 -13 -67 -13 -340z"/>
<path d="M340 1261 c0 -29 34 -179 54 -237 22 -65 72 -174 80 -174 2 0 59 27
127 60 213 102 439 164 652 177 l97 6 0 89 0 88 -505 0 c-288 0 -505 -4 -505
-9z"/>
<path d="M1470 1180 l0 -90 53 0 c73 0 227 -25 349 -55 128 -33 251 -80 376
-145 87 -45 98 -48 109 -33 39 52 123 314 123 384 l0 29 -505 0 -505 0 0 -90z"/>
<path d="M1110 960 c-184 -33 -417 -113 -538 -186 l-43 -25 33 -41 c56 -71
158 -167 231 -218 38 -28 74 -50 78 -50 5 0 20 22 33 48 77 153 234 267 409
298 l37 6 0 94 0 94 -67 -1 c-38 0 -115 -9 -173 -19z"/>
<path d="M1470 887 l0 -96 55 -11 c88 -18 206 -83 272 -148 48 -48 122 -155
136 -196 10 -31 279 194 333 278 17 28 17 29 -2 43 -37 28 -200 101 -304 136
-127 44 -278 75 -399 84 l-91 6 0 -96z"/>
<path d="M1291 654 c-77 -21 -141 -58 -199 -117 -55 -57 -108 -145 -94 -159
24 -24 179 -64 315 -82 l37 -5 0 190 c0 104 -1 189 -2 188 -2 0 -27 -7 -57
-15z"/>
<path d="M1470 476 l0 -186 43 6 c134 18 307 63 307 81 0 3 -14 32 -32 65 -53
101 -182 199 -281 215 l-37 6 0 -187z"/>
<path d="M7033 3736 c-333 -64 -557 -268 -635 -581 -31 -128 -32 -371 -1 -496
68 -269 235 -454 488 -538 129 -43 232 -55 404 -48 165 7 302 32 439 78 l92
32 0 404 0 403 -325 0 -326 0 3 -127 3 -128 178 -3 178 -2 -3 -158 -3 -157
-75 -18 c-104 -26 -293 -28 -375 -3 -155 46 -240 127 -297 282 -19 52 -22 80
-22 224 -1 137 2 174 18 220 59 173 152 263 313 305 73 19 237 19 328 0 41 -8
113 -36 175 -67 58 -29 108 -54 111 -56 4 -2 31 59 62 135 l55 138 -26 22
c-48 39 -185 102 -272 124 -110 27 -378 35 -487 15z"/>
<path d="M3180 3233 c0 -274 5 -537 10 -585 34 -300 196 -491 467 -555 109
-25 367 -25 476 0 221 52 371 195 438 417 23 74 23 86 27 648 l3 572 -175 0
-175 0 -3 -532 c-4 -513 -4 -535 -25 -596 -12 -35 -34 -81 -49 -103 -31 -46
-101 -94 -158 -111 -53 -15 -189 -15 -242 0 -61 18 -129 68 -164 120 -64 97
-64 93 -68 685 l-3 537 -180 0 -179 0 0 -497z"/>
<path d="M4800 2910 l0 -820 170 0 170 0 2 517 3 518 405 -518 405 -517 133 0
132 0 0 820 0 820 -165 0 -165 0 0 -517 c0 -493 -1 -516 -17 -500 -10 10 -194
241 -408 515 l-390 497 -138 3 -137 3 0 -821z"/>
<path d="M8030 2911 l0 -821 180 0 180 0 0 315 0 315 123 0 c129 0 182 -14
218 -56 9 -10 84 -143 167 -294 l151 -275 200 -3 200 -2 -141 257 c-77 142
-153 275 -168 296 -31 43 -92 90 -129 102 -23 7 -21 9 27 27 126 47 230 145
273 258 27 67 37 249 20 329 -36 168 -160 292 -346 347 -52 15 -119 18 -507
21 l-448 4 0 -820z m841 507 c66 -30 103 -74 120 -141 21 -87 -9 -190 -71
-235 -59 -44 -109 -52 -325 -52 l-205 0 0 231 0 231 213 -4 c203 -3 214 -5
268 -30z"/>
<path d="M9590 2910 l0 -820 350 0 c193 0 394 5 447 11 305 34 525 174 634
404 72 151 99 328 80 516 -37 347 -217 571 -531 662 -134 39 -239 47 -622 47
l-358 0 0 -820z m766 511 c239 -46 358 -195 371 -466 12 -239 -60 -412 -209
-499 -85 -50 -181 -66 -385 -66 l-183 0 0 520 0 520 179 0 c98 0 200 -4 227
-9z"/>
<path d="M10665 1780 c-31 -61 -31 -70 -2 -70 17 0 34 15 60 53 21 30 37 57
37 60 0 4 -16 7 -35 7 -32 0 -37 -4 -60 -50z"/>
<path d="M3880 1770 l0 -40 45 0 45 0 0 40 0 40 -45 0 -45 0 0 -40z"/>
<path d="M6030 1770 l0 -40 45 0 45 0 0 40 0 40 -45 0 -45 0 0 -40z"/>
<path d="M10390 1770 l0 -40 45 0 45 0 0 40 0 40 -45 0 -45 0 0 -40z"/>
<path d="M3184 1785 c-4 -9 -5 -73 -2 -143 4 -146 18 -184 78 -214 49 -25 145
-24 187 2 58 35 68 68 68 225 l0 140 -40 0 -40 0 -5 -138 c-5 -131 -6 -140
-29 -158 -32 -26 -77 -24 -106 6 -24 23 -25 29 -25 160 l0 135 -40 0 c-27 0
-43 -5 -46 -15z"/>
<path d="M4210 1729 c0 -64 -2 -70 -17 -64 -71 29 -110 25 -148 -13 -32 -32
-39 -58 -33 -129 4 -48 10 -61 37 -85 37 -33 96 -38 136 -12 23 15 25 15 25 0
0 -12 10 -16 40 -16 l40 0 0 195 0 195 -40 0 -40 0 0 -71z m-19 -126 c22 -25
18 -102 -5 -119 -46 -33 -96 -1 -96 61 0 43 25 75 59 75 16 0 35 -7 42 -17z"/>
<path d="M4820 1723 c0 -76 0 -76 -20 -58 -27 24 -104 24 -132 -2 -65 -59 -63
-190 3 -237 30 -20 98 -21 127 0 20 14 22 14 22 0 0 -12 10 -16 40 -16 l40 0
0 195 0 195 -40 0 -40 0 0 -77z m-16 -125 c33 -47 9 -128 -38 -128 -41 0 -61
24 -61 73 0 24 6 51 14 60 20 25 67 21 85 -5z"/>
<path d="M5100 1605 l0 -195 40 0 40 0 0 122 0 121 96 -121 c83 -106 99 -122
125 -122 l29 0 0 196 0 195 -37 -3 -38 -3 -5 -114 -5 -114 -92 116 c-82 103
-97 117 -123 117 l-30 0 0 -195z"/>
<path d="M7080 1640 c0 -209 9 -230 101 -230 38 0 39 1 39 36 0 20 -4 33 -10
29 -5 -3 -18 3 -30 15 -18 18 -20 32 -20 165 l0 145 -40 0 -40 0 0 -160z"/>
<path d="M8652 1624 c3 -171 4 -176 27 -195 15 -12 39 -19 67 -19 44 0 44 0
44 36 0 19 -4 33 -8 30 -5 -3 -18 2 -30 10 -21 14 -22 23 -22 165 l0 149 -41
0 -40 0 3 -176z"/>
<path d="M9355 1781 c-76 -35 -105 -85 -105 -180 0 -150 121 -224 296 -180
l44 11 0 94 0 94 -75 0 -75 0 0 -30 c0 -28 2 -30 40 -30 39 0 40 -1 40 -34 0
-38 -12 -46 -66 -46 -46 0 -93 25 -104 56 -6 14 -10 47 -10 74 0 95 75 141
173 106 27 -10 51 -16 53 -14 2 3 7 19 10 36 6 29 4 33 -29 47 -50 21 -143 19
-192 -4z"/>
<path d="M10210 1720 c0 -36 -2 -40 -25 -40 -21 0 -25 -5 -25 -29 0 -23 5 -30
23 -33 20 -3 22 -9 25 -73 4 -108 27 -135 117 -135 50 0 55 5 48 42 -4 21 -10
26 -33 26 -44 -1 -50 8 -50 78 l0 64 40 0 c38 0 40 2 40 30 0 28 -2 30 -40 30
l-40 0 0 40 0 40 -40 0 -40 0 0 -40z"/>
<path d="M3707 1680 c-16 -5 -35 -14 -43 -21 -11 -9 -14 -8 -14 5 0 12 -10 16
-40 16 l-41 0 3 -132 3 -133 38 -3 37 -3 0 79 c0 65 4 84 21 106 11 14 28 26
38 26 33 0 41 -22 41 -117 l0 -93 40 0 40 0 0 113 c0 100 -2 116 -20 135 -12
12 -27 22 -35 22 -7 0 -19 2 -27 4 -7 2 -26 0 -41 -4z"/>
<path d="M4430 1683 c-14 -2 -40 -9 -58 -14 -27 -9 -32 -14 -26 -32 10 -34 20
-40 43 -27 12 6 41 10 64 8 34 -2 43 -7 45 -24 3 -19 -3 -22 -63 -26 -79 -7
-105 -25 -105 -75 0 -69 97 -110 158 -67 20 14 22 14 22 0 0 -12 10 -16 35
-16 l35 0 0 100 c0 106 -10 142 -44 158 -27 13 -74 20 -106 15z m70 -173 c0
-23 -44 -55 -65 -46 -46 17 -18 66 37 66 21 0 28 -5 28 -20z"/>
<path d="M5595 1685 c-5 -2 -26 -6 -45 -9 -55 -10 -63 -18 -49 -50 9 -19 17
-25 28 -19 9 4 39 7 66 8 44 0 50 -3 53 -22 3 -21 -1 -23 -41 -23 -84 0 -127
-28 -127 -82 1 -63 100 -103 158 -62 20 14 22 14 22 0 0 -12 10 -16 35 -16
l35 0 0 109 c0 104 -1 109 -26 135 -15 14 -37 26 -50 26 -12 0 -28 2 -36 4 -7
3 -17 3 -23 1z m55 -172 c0 -23 -29 -53 -51 -53 -10 0 -24 10 -30 22 -10 18
-8 24 7 35 26 19 74 17 74 -4z"/>
<path d="M5875 1681 c-45 -11 -73 -32 -90 -67 -31 -66 -9 -149 47 -184 47 -28
138 -26 176 5 1 1 -3 14 -9 29 -9 19 -17 25 -28 20 -63 -27 -112 -2 -114 58
-2 64 56 98 113 68 15 -8 20 -5 29 20 8 25 7 31 -7 39 -27 14 -84 20 -117 12z"/>
<path d="M6251 1680 c-86 -20 -121 -120 -74 -212 28 -58 136 -78 201 -38 80
49 79 184 -1 234 -30 19 -85 26 -126 16z m90 -81 c40 -76 -25 -165 -83 -112
-23 21 -24 89 -1 115 23 25 69 24 84 -3z"/>
<path d="M6615 1683 c-11 -3 -28 -12 -37 -21 -16 -14 -18 -14 -18 1 0 13 -9
17 -40 17 l-40 0 0 -135 0 -135 40 0 40 0 0 88 c0 96 12 122 59 122 30 0 41
-35 41 -131 l0 -79 40 0 40 0 0 95 c0 90 -14 154 -36 168 -16 9 -69 15 -89 10z"/>
<path d="M6880 1683 c-49 -8 -90 -25 -90 -37 0 -7 6 -20 13 -30 11 -16 17 -17
36 -7 12 7 41 11 64 9 34 -2 43 -7 45 -24 3 -20 -2 -22 -62 -26 -78 -5 -106
-25 -106 -75 0 -50 37 -83 94 -83 26 0 51 6 59 15 13 13 16 13 21 0 3 -9 19
-15 41 -15 l35 0 0 100 c0 54 -5 110 -11 124 -16 34 -83 58 -139 49z m70 -173
c0 -23 -44 -55 -65 -46 -46 17 -18 66 37 66 21 0 28 -5 28 -20z"/>
<path d="M7527 1680 c-16 -5 -35 -14 -43 -21 -11 -9 -14 -8 -14 5 0 12 -10 16
-40 16 l-40 0 0 -180 0 -180 40 0 40 0 0 61 0 61 25 -16 c40 -26 99 -21 137
13 28 24 32 36 36 90 3 36 -1 73 -8 91 -20 49 -79 75 -133 60z m47 -82 c44
-63 -12 -159 -70 -120 -34 22 -41 94 -13 129 18 21 66 16 83 -9z"/>
<path d="M7815 1685 c-5 -2 -26 -6 -45 -9 -55 -10 -63 -18 -49 -50 9 -19 17
-25 28 -20 9 4 37 9 63 12 38 3 48 0 57 -16 14 -26 6 -32 -44 -32 -82 0 -125
-28 -125 -82 1 -63 100 -103 158 -62 20 14 22 14 22 0 0 -12 10 -16 35 -16
l35 0 0 110 c0 104 -1 112 -25 135 -13 14 -35 25 -49 25 -13 0 -30 2 -38 4 -7
3 -17 3 -23 1z m60 -164 c3 -5 -5 -22 -18 -37 -17 -19 -29 -25 -44 -20 -29 9
-38 38 -17 53 21 15 70 17 79 4z"/>
<path d="M8148 1683 c-14 -2 -32 -11 -38 -19 -16 -18 -30 -18 -30 1 0 11 -11
15 -40 15 l-41 0 3 -132 3 -133 43 -3 42 -3 0 84 c0 69 3 87 18 100 10 10 26
17 34 17 35 0 48 12 48 46 0 19 -3 33 -7 33 -5 -1 -20 -4 -35 -6z"/>
<path d="M8300 1683 c-38 -6 -80 -24 -80 -35 0 -5 5 -18 10 -28 9 -16 15 -17
39 -9 16 6 46 9 68 7 30 -2 39 -7 41 -24 3 -20 -2 -22 -62 -26 -80 -5 -106
-24 -106 -79 0 -29 6 -42 26 -58 33 -26 100 -28 126 -4 17 15 18 15 18 0 0
-13 9 -17 40 -17 l40 0 0 94 c0 106 -9 138 -42 159 -26 17 -81 26 -118 20z
m80 -173 c0 -23 -44 -55 -65 -46 -46 17 -18 66 37 66 21 0 28 -5 28 -20z"/>
<path d="M8910 1683 c-14 -2 -40 -9 -58 -14 -27 -9 -32 -14 -26 -32 10 -34 20
-40 43 -27 12 6 41 10 64 8 34 -2 43 -7 45 -24 3 -20 -2 -22 -62 -26 -78 -5
-106 -25 -106 -75 0 -50 37 -83 94 -83 26 0 51 6 59 15 13 13 16 13 21 0 3 -9
19 -15 41 -15 l35 0 0 100 c0 54 -5 110 -11 124 -16 34 -83 58 -139 49z m70
-173 c0 -23 -44 -55 -65 -46 -46 17 -18 66 37 66 21 0 28 -5 28 -20z"/>
<path d="M9732 1680 c-112 -26 -138 -189 -40 -250 27 -17 46 -20 100 -18 80 4
107 22 88 58 -8 15 -16 19 -28 14 -9 -4 -36 -9 -59 -12 -32 -3 -46 1 -62 17
-12 12 -21 26 -21 31 0 6 37 10 90 10 l90 0 0 35 c0 86 -69 135 -158 115z m76
-62 c7 -7 12 -20 12 -30 0 -15 -9 -18 -55 -18 -59 0 -63 4 -39 38 17 24 62 30
82 10z"/>
<path d="M10001 1680 c-67 -16 -97 -77 -61 -122 14 -19 36 -30 75 -38 62 -13
72 -22 49 -44 -19 -19 -37 -19 -89 -1 -21 8 -40 13 -41 12 -1 -1 -5 -14 -9
-28 -6 -23 -3 -28 26 -38 72 -25 177 -6 193 34 12 32 6 72 -14 90 -10 9 -41
21 -67 26 -57 11 -71 22 -53 44 15 19 41 19 84 1 32 -13 33 -13 43 14 10 26 8
29 -16 39 -42 16 -83 20 -120 11z"/>
<path d="M10635 1683 c-83 -17 -120 -65 -113 -149 4 -45 10 -61 36 -86 25 -26
41 -32 88 -36 98 -8 154 40 154 133 0 80 -37 124 -115 137 -16 3 -39 3 -50 1z
m69 -85 c48 -68 -15 -161 -77 -115 -26 18 -33 81 -13 112 21 33 68 34 90 3z"/>
<path d="M10977 1680 c-16 -5 -35 -14 -43 -21 -11 -9 -14 -8 -14 5 0 12 -10
16 -40 16 l-40 0 0 -135 0 -135 40 0 40 0 0 83 c0 91 15 127 54 127 39 0 46
-18 46 -117 l0 -93 40 0 40 0 0 109 c0 100 -2 112 -22 134 -27 29 -62 38 -101
27z"/>
<path d="M3890 1544 l0 -135 38 3 37 3 3 133 3 132 -41 0 -40 0 0 -136z"/>
<path d="M6032 1548 l3 -133 38 -3 37 -3 0 135 0 136 -40 0 -41 0 3 -132z"/>
<path d="M10400 1545 l0 -135 40 0 40 0 0 135 0 135 -40 0 -40 0 0 -135z"/>
<path d="M5470 1190 l0 -40 45 0 45 0 0 40 0 40 -45 0 -45 0 0 -40z"/>
<path d="M4380 1139 l0 -70 -22 15 c-26 18 -86 21 -121 5 -74 -34 -79 -190 -7
-246 22 -18 101 -16 128 3 20 14 22 14 22 0 0 -12 10 -16 40 -16 l40 0 0 190
0 190 -40 0 -40 0 0 -71z m-24 -113 c14 -11 19 -26 19 -59 0 -53 -18 -77 -56
-77 -34 0 -59 32 -59 75 0 62 50 94 96 61z"/>
<path d="M4800 1046 c0 -150 2 -165 21 -190 17 -22 28 -26 70 -26 47 0 49 1
49 28 0 22 -7 30 -30 39 l-30 11 0 151 0 151 -40 0 -40 0 0 -164z"/>
<path d="M5110 1020 l0 -190 45 0 45 0 0 75 c0 73 1 75 24 75 43 0 55 -11 93
-81 l37 -69 48 0 48 0 -31 58 c-18 31 -40 65 -49 75 -16 17 -15 20 17 52 28
28 33 40 33 80 0 96 -33 115 -195 115 l-115 0 0 -190z m208 114 c26 -18 28
-50 5 -76 -12 -13 -30 -18 -70 -18 l-53 0 0 55 0 55 48 0 c27 0 57 -7 70 -16z"/>
<path d="M7110 1145 c0 -60 -9 -80 -25 -55 -3 6 -28 10 -54 10 -59 0 -94 -28
-111 -90 -17 -63 8 -147 49 -170 30 -15 99 -12 126 6 23 15 25 15 25 0 0 -12
10 -16 40 -16 l40 0 0 190 0 190 -45 0 -45 0 0 -65z m-18 -122 c23 -21 25 -95
2 -117 -39 -39 -94 -6 -94 57 0 67 49 99 92 60z"/>
<path d="M7680 1020 l0 -190 98 0 c119 0 166 12 208 54 58 58 69 177 24 251
-35 57 -88 75 -218 75 l-112 0 0 -190z m221 109 c55 -29 65 -148 16 -197 -21
-20 -38 -27 -87 -30 l-60 -4 0 127 0 128 56 -7 c31 -3 65 -11 75 -17z"/>
<path d="M9200 1140 c0 -36 -2 -40 -25 -40 -21 0 -25 -5 -25 -29 0 -23 5 -30
23 -33 20 -3 22 -9 27 -86 6 -103 22 -122 104 -122 29 0 55 2 58 5 2 3 3 19 0
35 -3 24 -8 29 -23 25 -10 -3 -27 -1 -39 5 -17 9 -20 21 -20 75 l0 65 41 0
c38 0 40 1 37 28 -3 23 -8 27 -40 30 -37 3 -38 4 -38 43 0 39 0 39 -40 39
l-40 0 0 -40z"/>
<path d="M4559 1083 c-38 -23 -59 -65 -59 -117 0 -59 16 -92 57 -117 28 -18
46 -21 103 -17 79 4 96 15 86 53 -5 21 -11 25 -24 19 -39 -17 -103 -16 -123 1
-39 36 -25 45 71 45 l90 0 0 30 c0 38 -23 84 -52 104 -30 21 -115 20 -149 -1z
m113 -50 c33 -30 23 -43 -37 -43 -59 0 -68 10 -38 42 20 22 51 23 75 1z"/>
<path d="M5480 966 l0 -136 40 0 41 0 -3 133 -3 132 -37 3 -38 3 0 -135z"/>
<path d="M5659 1083 c-38 -23 -59 -65 -59 -117 0 -59 16 -92 57 -117 28 -18
46 -21 103 -17 79 4 96 15 86 53 -5 21 -11 25 -24 19 -39 -17 -103 -16 -123 1
-39 36 -25 45 71 45 l90 0 0 30 c0 38 -23 84 -52 104 -30 21 -115 20 -149 -1z
m113 -50 c33 -30 23 -43 -37 -43 -59 0 -68 10 -38 42 20 22 51 23 75 1z"/>
<path d="M5922 1075 c-62 -52 -35 -115 58 -137 37 -9 56 -19 58 -30 5 -26 -40
-33 -93 -15 -45 14 -45 14 -51 -10 -9 -36 8 -47 81 -51 76 -5 118 9 134 44 27
61 1 96 -83 114 -44 9 -56 15 -56 30 0 27 31 33 80 16 40 -14 42 -14 52 10 17
36 -1 48 -80 52 -62 4 -71 2 -100 -23z"/>
<path d="M6191 1084 c-69 -49 -65 -191 8 -228 38 -20 91 -20 117 -1 10 8 22
15 27 15 13 0 -4 -54 -21 -67 -21 -17 -75 -16 -117 1 -33 14 -34 14 -44 -15
-10 -29 -9 -31 26 -46 26 -10 59 -14 106 -11 63 3 72 7 98 36 l29 32 0 150 0
150 -35 0 c-24 0 -35 -5 -35 -15 0 -8 -4 -15 -9 -15 -5 0 -14 7 -21 15 -17 20
-99 20 -129 -1z m131 -61 c39 -35 13 -123 -37 -123 -42 0 -75 62 -54 102 22
42 59 50 91 21z"/>
<path d="M6529 1086 c-41 -24 -62 -64 -62 -121 0 -93 46 -135 147 -135 52 0
61 3 91 33 57 57 57 153 0 207 -32 30 -134 39 -176 16z m114 -63 c25 -29 26
-93 1 -117 -39 -39 -94 -6 -94 57 0 67 55 102 93 60z"/>
<path d="M7298 1084 c-38 -20 -60 -67 -60 -125 1 -55 22 -93 63 -115 34 -17
128 -19 164 -2 22 10 25 16 20 37 -9 34 -10 35 -33 22 -26 -14 -87 -14 -113
-1 -10 6 -19 20 -19 30 0 18 7 20 90 20 l90 0 0 26 c0 40 -30 93 -61 109 -36
19 -106 18 -141 -1z m116 -56 c24 -34 20 -38 -39 -38 -59 0 -68 10 -38 42 22
25 59 23 77 -4z"/>
<path d="M8132 1080 c-35 -21 -62 -72 -62 -115 0 -43 27 -94 62 -115 38 -23
131 -27 173 -8 28 12 30 20 15 48 -9 16 -15 18 -36 10 -42 -16 -92 -12 -114
10 -12 12 -18 25 -15 30 4 6 47 10 97 10 l90 0 -7 36 c-10 55 -26 84 -56 100
-40 20 -108 18 -147 -6z m118 -50 c32 -32 24 -40 -40 -40 -52 0 -59 2 -53 18
15 43 61 54 93 22z"/>
<path d="M8420 1093 c-33 -12 -50 -37 -50 -72 0 -56 20 -73 97 -86 48 -8 60
-19 43 -40 -16 -19 -51 -19 -96 0 -34 14 -35 14 -45 -12 -14 -39 1 -47 89 -51
67 -3 81 -1 105 18 21 17 27 30 27 59 0 46 -23 70 -76 78 -72 11 -94 34 -51
54 17 8 34 7 64 -4 42 -14 42 -14 52 13 8 24 6 29 -15 39 -25 11 -117 14 -144
4z"/>
<path d="M8658 1088 c-31 -11 -35 -25 -15 -51 10 -15 17 -16 44 -7 49 17 97 9
101 -16 3 -20 -3 -22 -56 -26 -79 -6 -112 -27 -112 -74 0 -50 36 -84 90 -84
23 0 50 5 61 10 13 7 19 7 19 0 0 -5 18 -10 40 -10 l40 0 0 106 c0 103 -1 106
-29 135 -27 26 -36 29 -93 28 -35 0 -75 -5 -90 -11z m132 -155 c0 -39 -52 -67
-78 -41 -19 19 -14 38 11 48 37 15 67 12 67 -7z"/>
<path d="M8952 1085 c-33 -24 -46 -62 -32 -96 12 -28 39 -43 100 -55 40 -7 54
-22 38 -41 -14 -17 -51 -16 -95 2 -42 18 -39 18 -48 -17 -6 -24 -3 -29 20 -38
14 -5 55 -10 91 -10 56 0 68 4 89 25 30 30 34 84 7 108 -10 10 -40 21 -66 26
-58 11 -74 24 -56 46 15 18 33 18 83 1 36 -13 37 -13 43 11 9 36 -9 47 -84 51
-51 2 -73 -1 -90 -13z"/>
<path d="M9390 965 l0 -135 40 0 40 0 0 80 c0 91 17 120 69 120 36 0 44 10 35
45 -7 29 -46 34 -81 10 -19 -13 -22 -13 -27 0 -3 9 -19 15 -41 15 l-35 0 0
-135z"/>
<path d="M9649 1083 c-38 -23 -59 -65 -59 -117 0 -59 16 -92 57 -117 28 -18
46 -21 103 -17 79 4 96 15 86 53 -5 21 -11 25 -24 19 -39 -17 -103 -16 -123 1
-39 36 -25 45 71 45 l90 0 0 30 c0 38 -23 84 -52 104 -30 21 -115 20 -149 -1z
m113 -50 c33 -30 23 -43 -37 -43 -59 0 -68 10 -38 42 20 22 51 23 75 1z"/>
<path d="M9925 1088 c-31 -18 -44 -40 -45 -74 0 -40 22 -59 90 -76 37 -9 56
-19 58 -30 5 -25 -40 -33 -93 -16 l-44 15 -10 -28 c-9 -25 -7 -28 21 -38 40
-14 130 -14 161 0 26 12 47 47 47 79 0 32 -34 57 -94 70 -44 9 -56 15 -56 30
0 27 31 33 80 16 40 -14 42 -14 52 10 9 18 8 28 0 36 -17 17 -142 22 -167 6z"/>
<path d="M7140 430 l0 -110 660 0 660 0 0 110 0 110 -660 0 -660 0 0 -110z"/>
</g>
</svg>
