<svg width="36" height="24" viewBox="0 0 36 24" fill="none" xmlns="http://www.w3.org/2000/svg">
<path d="M19.2768 13.1341L13.8859 22.3669L8.49496 13.1341H19.2768ZM20.721 12.3088H7.04492L13.8859 24L20.721 12.3088Z" fill="#263238"/>
<path d="M28.6496 1.65038L34.0405 10.8833H23.2586L28.6496 1.65038ZM28.6496 0L21.8086 11.6912H35.4905L28.6496 0Z" fill="#263238"/>
<path d="M0.490479 0L6.22638 10.3409L12.4943 0.259661L0.490479 0Z" fill="#4CAF4F"/>
<path d="M13.886 0.905762L19.9026 11.1889H7.85779L13.886 0.905762Z" fill="#4CAF4F"/>
<path d="M21.452 13.4341L27.4744 24H15.1431L21.2648 13.4341H21.452Z" fill="#4CAF4F"/>
<path d="M22.7558 12.7935L28.6495 23.1978L34.6252 12.7935H22.7558Z" fill="#4CAF4F"/>
</svg>
